<svg width="20" height="20" viewBox="0 0 20 20" fill="none" xmlns="http://www.w3.org/2000/svg">
<path fill-rule="evenodd" clip-rule="evenodd" d="M3.96415 8.38241C4.85753 5.04825 8.28464 3.06961 11.6188 3.96299C12.7196 4.25796 13.6711 4.82811 14.421 5.5794L16.0069 7.16529H13.3538C13.0086 7.16529 12.7288 7.44511 12.7288 7.79029C12.7288 8.13547 13.0086 8.41529 13.3538 8.41529H17.5143C17.6801 8.41529 17.8391 8.34943 17.9563 8.2322C18.0735 8.11497 18.1393 7.95598 18.1393 7.7902V3.62979C18.1393 3.28461 17.8595 3.00479 17.5143 3.00479C17.1691 3.00479 16.8893 3.28461 16.8893 3.62979V6.27993L15.3057 4.69634C14.4048 3.79378 13.261 3.10892 11.9423 2.75559C7.94133 1.68352 3.8288 4.05789 2.75674 8.05889C2.6674 8.3923 2.86527 8.73501 3.19868 8.82435C3.5321 8.91369 3.87481 8.71583 3.96415 8.38241ZM16.8037 11.1757C16.4703 11.0864 16.1276 11.2842 16.0382 11.6176C15.1448 14.9518 11.7177 16.9305 8.38356 16.0371C7.28275 15.7421 6.33126 15.172 5.58138 14.4207L3.99647 12.8347H6.64882C6.99399 12.8347 7.27381 12.5549 7.27381 12.2097C7.27381 11.8646 6.99399 11.5847 6.64882 11.5847L2.48828 11.5847C2.1431 11.5847 1.86328 11.8646 1.86328 12.2097V16.3703C1.86328 16.7155 2.1431 16.9953 2.48828 16.9953C2.83346 16.9953 3.11328 16.7155 3.11328 16.3703V13.7193L4.69667 15.3037C5.59767 16.2064 6.74127 16.8911 8.06004 17.2445C12.061 18.3165 16.1736 15.9422 17.2456 11.9412C17.335 11.6078 17.1371 11.265 16.8037 11.1757Z" fill="#5497F6"/>
</svg>
