<svg width="16" height="16" viewBox="0 0 16 16" fill="none" xmlns="http://www.w3.org/2000/svg">
<path d="M11.6924 7.00004H3.55556C3.24873 7.00004 3 7.2239 3 7.50004C3 7.77618 3.24873 8.00004 3.55556 8.00004H11.6924L7.59619 12.0962C7.40093 12.2915 7.40093 12.6081 7.59619 12.8033C7.79146 12.9986 8.10804 12.9986 8.3033 12.8033L12.5459 8.5607C12.8041 8.3025 12.9485 7.9736 12.9791 7.63631C12.9927 7.59299 13 7.54728 13 7.50004C13 7.4528 12.9927 7.40709 12.9791 7.36377C12.9485 7.02648 12.8041 6.69758 12.5459 6.43938L8.3033 2.19674C8.10804 2.00148 7.79146 2.00148 7.59619 2.19674C7.40093 2.392 7.40093 2.70858 7.59619 2.90385L11.6924 7.00004Z" fill="#323E4D"/>
</svg>
