<svg width="16" height="16" viewBox="0 0 16 16" fill="none" xmlns="http://www.w3.org/2000/svg">
<path fill-rule="evenodd" clip-rule="evenodd" d="M4.30761 7.00004H12.4444C12.7513 7.00004 13 7.2239 13 7.50004C13 7.77618 12.7513 8.00004 12.4444 8.00004H4.30761L8.40381 12.0962C8.59907 12.2915 8.59907 12.6081 8.40381 12.8033C8.20854 12.9986 7.89196 12.9986 7.6967 12.8033L3.45406 8.5607C3.19586 8.3025 3.05147 7.9736 3.02088 7.63631C3.00728 7.59299 3 7.54728 3 7.50004C3 7.4528 3.00728 7.40709 3.02088 7.36377C3.05147 7.02648 3.19586 6.69758 3.45406 6.43938L7.6967 2.19674C7.89196 2.00148 8.20854 2.00148 8.40381 2.19674C8.59907 2.392 8.59907 2.70858 8.40381 2.90385L4.30761 7.00004Z" fill="#323E4D"/>
</svg>
