<svg width="16" height="16" viewBox="0 0 16 16" fill="none" xmlns="http://www.w3.org/2000/svg">
<path d="M4.20156 9.6001C4.20156 9.26873 4.47019 9.0001 4.80156 9.0001H4.80956C5.14093 9.0001 5.40956 9.26873 5.40956 9.6001V9.6081C5.40956 9.93947 5.14093 10.2081 4.80956 10.2081H4.80156C4.47019 10.2081 4.20156 9.93947 4.20156 9.6081V9.6001Z" fill="#0F172A"/>
<path d="M4.80156 10.6001C4.47019 10.6001 4.20156 10.8687 4.20156 11.2001V11.2081C4.20156 11.5395 4.47019 11.8081 4.80156 11.8081H4.80956C5.14093 11.8081 5.40956 11.5395 5.40956 11.2081V11.2001C5.40956 10.8687 5.14093 10.6001 4.80956 10.6001H4.80156Z" fill="#0F172A"/>
<path d="M5.80156 9.6001C5.80156 9.26873 6.07019 9.0001 6.40156 9.0001H6.40956C6.74093 9.0001 7.00956 9.26873 7.00956 9.6001V9.6081C7.00956 9.93947 6.74093 10.2081 6.40956 10.2081H6.40156C6.07019 10.2081 5.80156 9.93947 5.80156 9.6081V9.6001Z" fill="#0F172A"/>
<path d="M6.40156 10.6001C6.07019 10.6001 5.80156 10.8687 5.80156 11.2001V11.2081C5.80156 11.5395 6.07019 11.8081 6.40156 11.8081H6.40956C6.74093 11.8081 7.00956 11.5395 7.00956 11.2081V11.2001C7.00956 10.8687 6.74093 10.6001 6.40956 10.6001H6.40156Z" fill="#0F172A"/>
<path d="M7.40156 8.0001C7.40156 7.66873 7.67019 7.4001 8.00156 7.4001H8.00956C8.34093 7.4001 8.60956 7.66873 8.60956 8.0001V8.0081C8.60956 8.33947 8.34093 8.6081 8.00956 8.6081H8.00156C7.67019 8.6081 7.40156 8.33947 7.40156 8.0081V8.0001Z" fill="#0F172A"/>
<path d="M8.00156 9.0001C7.67019 9.0001 7.40156 9.26873 7.40156 9.6001V9.6081C7.40156 9.93947 7.67019 10.2081 8.00156 10.2081H8.00956C8.34093 10.2081 8.60956 9.93947 8.60956 9.6081V9.6001C8.60956 9.26873 8.34093 9.0001 8.00956 9.0001H8.00156Z" fill="#0F172A"/>
<path d="M7.40156 11.2001C7.40156 10.8687 7.67019 10.6001 8.00156 10.6001H8.00956C8.34093 10.6001 8.60956 10.8687 8.60956 11.2001V11.2081C8.60956 11.5395 8.34093 11.8081 8.00956 11.8081H8.00156C7.67019 11.8081 7.40156 11.5395 7.40156 11.2081V11.2001Z" fill="#0F172A"/>
<path d="M9.60156 7.4001C9.27019 7.4001 9.00156 7.66873 9.00156 8.0001V8.0081C9.00156 8.33947 9.27019 8.6081 9.60156 8.6081H9.60956C9.94093 8.6081 10.2096 8.33947 10.2096 8.0081V8.0001C10.2096 7.66873 9.94093 7.4001 9.60956 7.4001H9.60156Z" fill="#0F172A"/>
<path d="M9.00156 9.6001C9.00156 9.26873 9.27019 9.0001 9.60156 9.0001H9.60956C9.94093 9.0001 10.2096 9.26873 10.2096 9.6001V9.6081C10.2096 9.93947 9.94093 10.2081 9.60956 10.2081H9.60156C9.27019 10.2081 9.00156 9.93947 9.00156 9.6081V9.6001Z" fill="#0F172A"/>
<path d="M9.60156 10.6001C9.27019 10.6001 9.00156 10.8687 9.00156 11.2001V11.2081C9.00156 11.5395 9.27019 11.8081 9.60156 11.8081H9.60956C9.94093 11.8081 10.2096 11.5395 10.2096 11.2081V11.2001C10.2096 10.8687 9.94093 10.6001 9.60956 10.6001H9.60156Z" fill="#0F172A"/>
<path d="M10.6016 8.0001C10.6016 7.66873 10.8702 7.4001 11.2016 7.4001H11.2096C11.5409 7.4001 11.8096 7.66873 11.8096 8.0001V8.0081C11.8096 8.33947 11.5409 8.6081 11.2096 8.6081H11.2016C10.8702 8.6081 10.6016 8.33947 10.6016 8.0081V8.0001Z" fill="#0F172A"/>
<path d="M11.2016 9.0001C10.8702 9.0001 10.6016 9.26873 10.6016 9.6001V9.6081C10.6016 9.93947 10.8702 10.2081 11.2016 10.2081H11.2096C11.5409 10.2081 11.8096 9.93947 11.8096 9.6081V9.6001C11.8096 9.26873 11.5409 9.0001 11.2096 9.0001H11.2016Z" fill="#0F172A"/>
<path fill-rule="evenodd" clip-rule="evenodd" d="M4.60156 1.6001C4.93293 1.6001 5.20156 1.86873 5.20156 2.2001V3.2001H10.8016V2.2001C10.8016 1.86873 11.0702 1.6001 11.4016 1.6001C11.7329 1.6001 12.0016 1.86873 12.0016 2.2001V3.2001H12.2016C13.4166 3.2001 14.4016 4.18507 14.4016 5.4001V12.2001C14.4016 13.4151 13.4166 14.4001 12.2016 14.4001H3.80156C2.58654 14.4001 1.60156 13.4151 1.60156 12.2001V5.4001C1.60156 4.18507 2.58654 3.2001 3.80156 3.2001H4.00156V2.2001C4.00156 1.86873 4.27019 1.6001 4.60156 1.6001ZM3.80156 6.0001C3.24928 6.0001 2.80156 6.44781 2.80156 7.0001V12.2001C2.80156 12.7524 3.24928 13.2001 3.80156 13.2001H12.2016C12.7538 13.2001 13.2016 12.7524 13.2016 12.2001V7.0001C13.2016 6.44781 12.7538 6.0001 12.2016 6.0001H3.80156Z" fill="#0F172A"/>
</svg>
