<svg width="51" height="50" viewBox="0 0 51 50" fill="none" xmlns="http://www.w3.org/2000/svg">
<circle cx="25.499" cy="24.9999" r="23.5849" fill="#DDE851"/>
<g clip-path="url(#clip0_556_53661)">
<path fill-rule="evenodd" clip-rule="evenodd" d="M14.0088 0.960693C14.2953 0.960693 14.5817 0.960693 14.8682 0.960693C14.8551 3.43479 14.8682 5.90875 14.9072 8.38257C15.0092 8.65299 15.1784 8.86132 15.415 9.00757C14.9716 9.02054 14.5289 9.00749 14.0869 8.96851C13.8916 8.87734 13.7484 8.73413 13.6572 8.53882C13.6441 7.32745 13.605 6.12954 13.54 4.94507C13.527 3.85101 13.54 2.75726 13.5791 1.66382C13.6435 1.37821 13.7868 1.14384 14.0088 0.960693Z" fill="#2C597F"/>
<path opacity="0.991" fill-rule="evenodd" clip-rule="evenodd" d="M14.8682 0.960693C15.6494 0.960693 16.4307 0.960693 17.2119 0.960693C17.4228 1.08148 17.566 1.26377 17.6416 1.50757C17.6807 2.65311 17.6937 3.79894 17.6807 4.94507C17.6275 6.16136 17.5753 7.38533 17.5244 8.61694C17.4155 8.78946 17.2593 8.90663 17.0557 8.9685C16.5094 9.00757 15.9625 9.02054 15.415 9.00757C15.1784 8.86132 15.0092 8.65299 14.9072 8.38257C14.8682 5.90875 14.8551 3.43479 14.8682 0.960693Z" fill="#4F748C"/>
<path fill-rule="evenodd" clip-rule="evenodd" d="M34.7119 0.960693C34.9984 0.960693 35.2848 0.960693 35.5713 0.960693C35.5582 3.46083 35.5713 5.96083 35.6104 8.46069C35.7427 8.68394 35.912 8.86624 36.1182 9.00757C35.6747 9.02054 35.232 9.00749 34.79 8.96851C34.5379 8.8464 34.3686 8.65109 34.2822 8.38257C34.2432 7.23703 34.2301 6.0912 34.2432 4.94507C34.2301 3.79894 34.2432 2.65311 34.2822 1.50757C34.3578 1.26377 34.501 1.08148 34.7119 0.960693Z" fill="#2F597E"/>
<path opacity="0.998" fill-rule="evenodd" clip-rule="evenodd" d="M35.5713 0.960693C36.3525 0.960693 37.1338 0.960693 37.915 0.960693C38.1371 1.14384 38.2803 1.37821 38.3447 1.66382C38.3838 2.75726 38.3968 3.85101 38.3838 4.94507C38.3306 6.13532 38.2785 7.33324 38.2275 8.53882C38.1578 8.77013 38.0015 8.91335 37.7588 8.9685C37.2125 9.00757 36.6657 9.02054 36.1182 9.00757C35.912 8.86624 35.7427 8.68394 35.6104 8.46069C35.5713 5.96083 35.5583 3.46083 35.5713 0.960693Z" fill="#50748C"/>
<path opacity="0.994" fill-rule="evenodd" clip-rule="evenodd" d="M12.289 4.94507C12.276 6.53382 12.289 8.12236 12.3281 9.71069C12.4258 9.91936 12.569 10.0886 12.7578 10.2185C14.1569 10.3465 15.5632 10.3726 16.9765 10.2966C17.245 10.2103 17.4403 10.041 17.5624 9.78882C17.6262 9.38382 17.6132 8.99319 17.5234 8.61694C17.5743 7.38532 17.6264 6.16136 17.6796 4.94507C22.7837 4.94507 27.8879 4.94507 32.992 4.94507C32.979 6.53382 32.992 8.12236 33.0311 9.71069C33.1223 10.0101 33.3176 10.2055 33.617 10.2966C34.9712 10.3487 36.3254 10.3487 37.6795 10.2966C37.9811 10.2034 38.1764 10.0081 38.2654 9.71069C38.3292 9.30569 38.3162 8.91507 38.2264 8.53882C38.2773 7.33324 38.3294 6.13532 38.3826 4.94507C39.5808 4.93205 40.7787 4.94507 41.9763 4.98413C43.0924 5.24078 43.7565 5.93089 43.9685 7.05444C44.0076 9.03342 44.0206 11.0126 44.0076 12.9919C32.4191 12.9919 20.8306 12.9919 9.24219 12.9919C9.24219 10.4138 9.24219 7.83569 9.24219 5.25757C9.44805 5.11475 9.68242 5.0236 9.94531 4.98413C10.7261 4.94508 11.5074 4.93206 12.289 4.94507Z" fill="#5FCAC3"/>
<path fill-rule="evenodd" clip-rule="evenodd" d="M12.29 4.94507C12.7067 4.94507 13.1234 4.94507 13.54 4.94507C13.605 6.12954 13.644 7.32745 13.6572 8.53882C13.7484 8.73413 13.8916 8.87733 14.0869 8.96851C14.5289 9.00749 14.9716 9.02054 15.415 9.00757C15.9625 9.02054 16.5094 9.00757 17.0556 8.96851C17.2592 8.90663 17.4155 8.78946 17.5244 8.61694C17.6142 8.99319 17.6272 9.38382 17.5634 9.78882C17.4413 10.041 17.246 10.2103 16.9775 10.2966C15.5642 10.3726 14.1579 10.3466 12.7588 10.2185C12.57 10.0886 12.4268 9.91936 12.3291 9.71069C12.29 8.12236 12.277 6.53383 12.29 4.94507Z" fill="#479892"/>
<path fill-rule="evenodd" clip-rule="evenodd" d="M32.9932 4.94507C33.4098 4.94507 33.8265 4.94507 34.2432 4.94507C34.2301 6.0912 34.2432 7.23703 34.2822 8.38257C34.3686 8.65109 34.5379 8.8464 34.79 8.96851C35.232 9.00749 35.6747 9.02054 36.1182 9.00757C36.6657 9.02054 37.2125 9.00757 37.7588 8.96851C38.0015 8.91335 38.1578 8.77013 38.2275 8.53882C38.3174 8.91507 38.3303 9.30569 38.2666 9.71069C38.1775 10.0081 37.9822 10.2034 37.6806 10.2966C36.3265 10.3487 34.9723 10.3487 33.6182 10.2966C33.3187 10.2055 33.1234 10.0101 33.0322 9.71069C32.9932 8.12236 32.9801 6.53383 32.9932 4.94507Z" fill="#479892"/>
<path fill-rule="evenodd" clip-rule="evenodd" d="M9.24315 5.25757C9.24315 7.83569 9.24315 10.4138 9.24315 12.9919C8.80045 12.9919 8.35774 12.9919 7.91504 12.9919C7.90202 11.0126 7.91504 9.03343 7.9541 7.05444C8.07957 6.22829 8.50926 5.62933 9.24315 5.25757Z" fill="#4CA29C"/>
<path fill-rule="evenodd" clip-rule="evenodd" d="M7.91406 12.9919C8.35677 12.9919 8.79947 12.9919 9.24218 12.9919C20.8306 12.9919 32.4191 12.9919 44.0076 12.9919C44.0076 13.2003 44.0076 13.4086 44.0076 13.6169C43.9816 13.6169 43.9555 13.6169 43.9295 13.6169C43.9295 13.4347 43.9295 13.2523 43.9295 13.0701C31.9504 13.0701 19.9713 13.0701 7.99219 13.0701C8.01575 13.27 7.9897 13.4523 7.91406 13.6169C7.91406 13.4086 7.91406 13.2003 7.91406 12.9919Z" fill="#F0C3C6"/>
<path fill-rule="evenodd" clip-rule="evenodd" d="M43.9304 13.6169C43.9304 13.8513 43.9304 14.0857 43.9304 14.3201C32.4982 14.307 21.066 14.3201 9.63378 14.3591C9.54263 14.4503 9.45149 14.5414 9.36034 14.6326C9.30826 22.7836 9.30826 30.9347 9.36034 39.0857C9.61736 40.0324 10.2033 40.6574 11.1181 40.9607C10.6754 40.9607 10.2327 40.9607 9.79003 40.9607C8.78189 40.616 8.16991 39.9129 7.9541 38.8513C7.91504 30.4399 7.90202 22.0284 7.91504 13.6169C7.99068 13.4523 8.01673 13.27 7.99316 13.0701C19.9722 13.0701 31.9514 13.0701 43.9304 13.0701C43.9304 13.2523 43.9304 13.4347 43.9304 13.6169Z" fill="#E6E6E6"/>
<path opacity="0.998" fill-rule="evenodd" clip-rule="evenodd" d="M43.9295 13.6169C43.9555 13.6169 43.9816 13.6169 44.0076 13.6169C44.0206 22.0284 44.0076 30.4399 43.9685 38.8513C43.7528 39.9129 43.1407 40.616 42.1326 40.9607C31.7942 40.9607 21.4556 40.9607 11.1172 40.9607C10.2023 40.6574 9.61639 40.0324 9.35938 39.0857C9.30729 30.9347 9.30729 22.7836 9.35938 14.6326C9.45052 14.5414 9.54166 14.4503 9.63281 14.3591C21.065 14.3201 32.4972 14.307 43.9295 14.3201C43.9295 14.0857 43.9295 13.8513 43.9295 13.6169Z" fill="#F5F4F4"/>
<path fill-rule="evenodd" clip-rule="evenodd" d="M14.1641 18.4607C15.8047 18.4607 17.4453 18.4607 19.0859 18.4607C19.0859 20.0753 19.0859 21.6898 19.0859 23.3044C17.4453 23.3044 15.8047 23.3044 14.1641 23.3044C14.1641 21.6898 14.1641 20.0753 14.1641 18.4607Z" fill="#5497F6"/>
<path fill-rule="evenodd" clip-rule="evenodd" d="M14.1641 18.4608C15.8172 18.3829 17.4838 18.3568 19.164 18.3827C19.164 20.0493 19.164 21.7161 19.164 23.3827C17.4838 23.4086 15.8172 23.3825 14.1641 23.3046C15.8047 23.3046 17.4453 23.3046 19.0859 23.3046C19.0859 21.69 19.0859 20.0754 19.0859 18.4608C17.4453 18.4608 15.8047 18.4608 14.1641 18.4608Z" fill="#FACFA5"/>
<path fill-rule="evenodd" clip-rule="evenodd" d="M20.3359 18.4609C22.0026 18.4609 23.6693 18.4609 25.3359 18.4609C25.3359 20.0755 25.3359 21.6901 25.3359 23.3047C23.6693 23.3047 22.0026 23.3047 20.3359 23.3047C20.3359 21.6901 20.3359 20.0755 20.3359 18.4609Z" fill="#5497F6"/>
<path fill-rule="evenodd" clip-rule="evenodd" d="M20.3359 18.4608C22.0151 18.3829 23.7078 18.3568 25.414 18.3827C25.414 20.0493 25.414 21.7161 25.414 23.3827C23.7078 23.4086 22.0151 23.3825 20.3359 23.3046C22.0026 23.3046 23.6693 23.3046 25.3359 23.3046C25.3359 21.69 25.3359 20.0754 25.3359 18.4608C23.6693 18.4608 22.0026 18.4608 20.3359 18.4608Z" fill="#FAD3AE"/>
<path fill-rule="evenodd" clip-rule="evenodd" d="M31.5859 18.4608C29.9193 18.4608 28.2526 18.4608 26.5859 18.4608C26.5859 20.0754 26.5859 21.69 26.5859 23.3046C28.2526 23.3046 29.9193 23.3046 31.5859 23.3046C29.9067 23.3825 28.2141 23.4086 26.5078 23.3827C26.5078 21.7161 26.5078 20.0493 26.5078 18.3827C28.2141 18.3568 29.9067 18.3829 31.5859 18.4608Z" fill="#FAD3AE"/>
<path fill-rule="evenodd" clip-rule="evenodd" d="M31.5859 18.4607C31.5859 20.0753 31.5859 21.6898 31.5859 23.3044C29.9193 23.3044 28.2526 23.3044 26.5859 23.3044C26.5859 21.6898 26.5859 20.0753 26.5859 18.4607C28.2526 18.4607 29.9193 18.4607 31.5859 18.4607Z" fill="#5497F6"/>
<path fill-rule="evenodd" clip-rule="evenodd" d="M37.7578 18.4608C36.1172 18.4608 34.4766 18.4608 32.8359 18.4608C32.8359 20.0754 32.8359 21.69 32.8359 23.3046C34.4766 23.3046 36.1172 23.3046 37.7578 23.3046C36.1047 23.3825 34.438 23.4086 32.7578 23.3827C32.7578 21.7161 32.7578 20.0493 32.7578 18.3827C34.438 18.3568 36.1047 18.3829 37.7578 18.4608Z" fill="#FACFA5"/>
<path fill-rule="evenodd" clip-rule="evenodd" d="M37.7578 18.4607C37.7578 20.0753 37.7578 21.6898 37.7578 23.3044C36.1172 23.3044 34.4766 23.3044 32.8359 23.3044C32.8359 21.6898 32.8359 20.0753 32.8359 18.4607C34.4766 18.4607 36.1172 18.4607 37.7578 18.4607Z" fill="#5497F6"/>
<path fill-rule="evenodd" clip-rule="evenodd" d="M14.1641 24.5544C15.8047 24.5544 17.4453 24.5544 19.0859 24.5544C19.0859 26.1951 19.0859 27.8357 19.0859 29.4763C17.4453 29.4763 15.8047 29.4763 14.1641 29.4763C14.1641 27.8357 14.1641 26.1951 14.1641 24.5544Z" fill="#5497F6"/>
<path fill-rule="evenodd" clip-rule="evenodd" d="M20.3359 24.5544C22.0026 24.5544 23.6693 24.5544 25.3359 24.5544C25.3359 26.1951 25.3359 27.8357 25.3359 29.4763C23.6693 29.4763 22.0026 29.4763 20.3359 29.4763C20.3359 27.8357 20.3359 26.1951 20.3359 24.5544Z" fill="#5497F6"/>
<path fill-rule="evenodd" clip-rule="evenodd" d="M26.5859 24.5544C28.2526 24.5544 29.9193 24.5544 31.5859 24.5544C31.5859 26.1951 31.5859 27.8357 31.5859 29.4763C29.9193 29.4763 28.2526 29.4763 26.5859 29.4763C26.5859 27.8357 26.5859 26.1951 26.5859 24.5544Z" fill="#5497F6"/>
<path fill-rule="evenodd" clip-rule="evenodd" d="M32.8359 24.5544C34.4766 24.5544 36.1172 24.5544 37.7578 24.5544C37.7578 26.1951 37.7578 27.8357 37.7578 29.4763C36.1172 29.4763 34.4766 29.4763 32.8359 29.4763C32.8359 27.8357 32.8359 26.1951 32.8359 24.5544Z" fill="#E6E6E6"/>
<path fill-rule="evenodd" clip-rule="evenodd" d="M14.1641 30.7263C15.8047 30.7263 17.4453 30.7263 19.0859 30.7263C19.0859 32.3669 19.0859 34.0076 19.0859 35.6482C17.4453 35.6482 15.8047 35.6482 14.1641 35.6482C14.1641 34.0076 14.1641 32.3669 14.1641 30.7263Z" fill="#E6E6E6"/>
<path fill-rule="evenodd" clip-rule="evenodd" d="M20.3359 30.7266C22.0026 30.7266 23.6693 30.7266 25.3359 30.7266C25.3359 32.3672 25.3359 34.0078 25.3359 35.6484C23.6693 35.6484 22.0026 35.6484 20.3359 35.6484C20.3359 34.0078 20.3359 32.3672 20.3359 30.7266Z" fill="#E5E6E5"/>
<path fill-rule="evenodd" clip-rule="evenodd" d="M26.5859 30.7263C28.2526 30.7263 29.9193 30.7263 31.5859 30.7263C31.5859 32.3669 31.5859 34.0076 31.5859 35.6482C29.9193 35.6482 28.2526 35.6482 26.5859 35.6482C26.5859 34.0076 26.5859 32.3669 26.5859 30.7263Z" fill="#E5E6E5"/>
<path fill-rule="evenodd" clip-rule="evenodd" d="M32.8359 30.7263C34.4766 30.7263 36.1172 30.7263 37.7578 30.7263C37.7578 32.3669 37.7578 34.0076 37.7578 35.6482C36.1172 35.6482 34.4766 35.6482 32.8359 35.6482C32.8359 34.0076 32.8359 32.3669 32.8359 30.7263Z" fill="#E6E6E6"/>
</g>
<defs>
<clipPath id="clip0_556_53661">
<rect width="39.9997" height="40" fill="white" transform="translate(6 1)"/>
</clipPath>
</defs>
</svg>
