<svg width="51" height="50" viewBox="0 0 51 50" fill="none" xmlns="http://www.w3.org/2000/svg">
<circle cx="25.0849" cy="24.5849" r="23.5849" fill="#BFC9F7"/>
<g clip-path="url(#clip0_556_53813)">
<path fill-rule="evenodd" clip-rule="evenodd" d="M7.90356 0.958984C10.3372 0.958984 12.7707 0.958984 15.2043 0.958984C14.6958 1.48307 14.6684 2.02994 15.1223 2.59961C14.467 3.16996 14.467 3.74417 15.1223 4.32227C14.7724 4.82279 14.7997 5.3013 15.2043 5.75781C12.2787 5.79883 9.35291 5.8125 6.427 5.79883C6.41333 4.6774 6.42701 3.55631 6.46801 2.43555C6.68814 1.68234 7.16665 1.19015 7.90356 0.958984Z" fill="#1D2E79"/>
<path opacity="0.999" fill-rule="evenodd" clip-rule="evenodd" d="M15.207 0.958984C24.4766 0.958984 33.7461 0.958984 43.0156 0.958984C43.7525 1.19015 44.2311 1.68234 44.4512 2.43555C44.4922 3.55631 44.5059 4.6774 44.4922 5.79883C31.8046 5.79099 19.1171 5.81834 6.42969 5.88086C6.42969 5.85352 6.42969 5.82617 6.42969 5.79883C9.35559 5.8125 12.2814 5.79883 15.207 5.75781C14.8024 5.3013 14.7751 4.82279 15.125 4.32227C15.9807 4.61663 16.5003 4.31585 16.6836 3.41992C16.4629 2.56926 15.9434 2.29581 15.125 2.59961C14.6711 2.02994 14.6985 1.48307 15.207 0.958984Z" fill="#2A428C"/>
<path fill-rule="evenodd" clip-rule="evenodd" d="M15.1243 4.32231C14.469 3.74422 14.469 3.17 15.1243 2.59965C15.9427 2.29586 16.4623 2.5693 16.6829 3.41996C16.4996 4.31589 15.98 4.61668 15.1243 4.32231Z" fill="#4969B0"/>
<path fill-rule="evenodd" clip-rule="evenodd" d="M18.5685 2.68164C24.3381 2.66797 30.1076 2.68164 35.8771 2.72266C36.4425 2.95653 36.5928 3.35301 36.3283 3.91211C36.2201 4.07515 36.0697 4.17085 35.8771 4.19922C30.1076 4.25391 24.338 4.25391 18.5685 4.19922C18.079 3.92094 17.956 3.52445 18.1994 3.00977C18.314 2.88095 18.437 2.77158 18.5685 2.68164Z" fill="#4969B0"/>
<path fill-rule="evenodd" clip-rule="evenodd" d="M39.4032 2.68163C40.0874 2.66798 40.771 2.68165 41.454 2.72264C42.2172 3.2233 42.2172 3.71548 41.454 4.19921C40.7705 4.2539 40.0868 4.2539 39.4032 4.19921C38.95 3.95977 38.7997 3.59063 38.9521 3.09178C39.094 2.93577 39.2443 2.79905 39.4032 2.68163Z" fill="#4969B0"/>
<path opacity="0.999" fill-rule="evenodd" clip-rule="evenodd" d="M44.4922 5.79892C44.4922 5.82626 44.4922 5.85361 44.4922 5.88095C35.2227 5.88095 25.9531 5.88095 16.6836 5.88095C16.4879 7.47068 15.613 8.42771 14.0586 8.75204C13.9218 8.75204 13.7852 8.75204 13.6484 8.75204C11.2422 8.75204 8.83593 8.75204 6.42969 8.75204C6.42969 7.79501 6.42969 6.83798 6.42969 5.88095C19.1171 5.81842 31.8046 5.79108 44.4922 5.79892Z" fill="#56A9F3"/>
<path fill-rule="evenodd" clip-rule="evenodd" d="M44.4883 5.88086C44.4883 6.83789 44.4883 7.79492 44.4883 8.75195C34.3437 8.75195 24.1992 8.75195 14.0547 8.75195C15.6091 8.42763 16.484 7.47059 16.6797 5.88086C25.9492 5.88086 35.2188 5.88086 44.4883 5.88086Z" fill="#D3DCFB"/>
<path fill-rule="evenodd" clip-rule="evenodd" d="M6.42969 8.75195C8.83593 8.75195 11.2422 8.75195 13.6484 8.75195C12.9946 8.94958 12.4341 9.30501 11.9668 9.81836C11.8142 10.0143 11.7048 10.2329 11.6387 10.4746C11.5977 10.9113 11.584 11.3487 11.5977 11.7871C11.4918 11.7677 11.4097 11.795 11.3516 11.8691C10.5883 12.0164 10.0551 12.4539 9.75195 13.1816C9.65795 15.0371 9.61694 16.8964 9.62891 18.7598C9.61694 20.6231 9.65795 22.4824 9.75195 24.3379C10.0298 25.1493 10.5903 25.6141 11.4336 25.7324C11.4616 25.8012 11.5163 25.8286 11.5977 25.8145C11.5977 26.5801 11.5977 27.3457 11.5977 28.1113C10.573 28.2613 9.94411 28.8355 9.71094 29.834C9.62912 31.6245 9.60178 33.4292 9.62891 35.248C8.1811 33.5018 7.11469 31.5331 6.42969 29.3418C6.42969 25.0215 6.42969 20.7012 6.42969 16.3809C6.42969 13.8379 6.42969 11.2949 6.42969 8.75195Z" fill="#D3DCFA"/>
<path opacity="0.999" fill-rule="evenodd" clip-rule="evenodd" d="M13.6457 8.75195C13.7825 8.75195 13.9191 8.75195 14.0559 8.75195C24.2004 8.75195 34.3449 8.75195 44.4895 8.75195C44.4895 11.2949 44.4895 13.8379 44.4895 16.3809C44.4895 20.7012 44.4895 25.0215 44.4895 29.3418C43.6377 32.0319 42.2432 34.3835 40.3059 36.3965C40.2422 36.073 40.0508 35.868 39.7317 35.7812C35.384 35.7265 31.0363 35.7265 26.6887 35.7812C26.0324 36.2461 26.0324 36.7109 26.6887 37.1758C30.9816 37.2168 35.2746 37.2305 39.5676 37.2168C39.0746 37.7097 38.5551 38.1745 38.009 38.6113C36.1498 38.5566 34.2767 38.5293 32.3899 38.5293C30.4551 38.5164 28.5273 38.5574 26.6067 38.6523C26.0294 39.1855 26.0841 39.6503 26.7707 40.0469C29.8057 40.0879 32.8409 40.1016 35.8762 40.0879C33.2174 41.6851 30.3463 42.6421 27.2629 42.959C26.0598 42.959 24.8567 42.959 23.6535 42.959C23.1714 42.8775 22.6792 42.7955 22.177 42.7129C22.5 42.4311 22.8144 42.1303 23.1203 41.8105C23.2101 41.6811 23.2785 41.5444 23.3254 41.4004C23.8291 40.7241 24.1162 39.9585 24.1867 39.1035C24.2415 38.502 24.2415 37.9004 24.1867 37.2988C23.9406 37.0527 23.6945 36.8066 23.4485 36.5605C23.3291 36.2807 23.1787 36.0209 22.9973 35.7812C22.678 35.7469 22.3773 35.6785 22.0949 35.5762C22.1086 33.6073 22.0949 31.6385 22.0539 29.6699C21.8128 28.9092 21.3069 28.4307 20.5363 28.2344C18.978 28.1934 17.4194 28.1797 15.8606 28.1934C14.453 28.1116 13.0311 28.0843 11.5949 28.1113C11.5949 27.3457 11.5949 26.5801 11.5949 25.8145C14.3567 25.8145 17.1184 25.8145 19.8801 25.8145C20.3184 26.1979 20.8106 26.4987 21.3567 26.7168C22.1321 26.4056 22.761 25.9134 23.2434 25.2402C23.6837 24.6595 23.9708 24.0033 24.1047 23.2715C24.2264 22.5097 24.2537 21.744 24.1867 20.9746C23.6823 20.5538 23.2858 20.0479 22.9973 19.457C22.6817 19.4051 22.3809 19.3367 22.0949 19.252C22.1086 17.283 22.0949 15.3143 22.0539 13.3457C21.8067 12.4971 21.2462 11.9913 20.3723 11.8281C17.4466 11.7871 14.5208 11.7734 11.5949 11.7871C11.5813 11.3487 11.595 10.9113 11.636 10.4746C11.7021 10.2329 11.8115 10.0143 11.9641 9.81836C12.4314 9.30501 12.9919 8.94958 13.6457 8.75195Z" fill="#E8EEFE"/>
<path fill-rule="evenodd" clip-rule="evenodd" d="M11.3497 11.8692C12.8265 11.8555 14.3031 11.8692 15.7794 11.9102C15.463 12.3887 15.463 12.8672 15.7794 13.3457C14.3572 13.332 12.9353 13.3457 11.5137 13.3867C11.3634 13.4277 11.2677 13.5235 11.2266 13.6738C11.1856 16.6542 11.1719 19.6346 11.1856 22.6152C11.172 23.0536 11.1857 23.4911 11.2266 23.9277C11.2573 24.0029 11.2983 24.0713 11.3497 24.1328C11.9144 24.2497 12.4887 24.2907 13.0723 24.2559C13.8653 24.2559 14.6583 24.2559 15.4512 24.2559C15.298 24.5083 15.1887 24.7817 15.1231 25.0762C15.1353 25.3329 15.2447 25.538 15.4512 25.6914C14.1117 25.7324 12.7719 25.7461 11.4317 25.7324C10.5884 25.6141 10.0279 25.1493 9.75007 24.3379C9.65607 22.4824 9.61506 20.6231 9.62703 18.7598C9.61506 16.8964 9.65607 15.0371 9.75007 13.1817C10.0533 12.4539 10.5865 12.0164 11.3497 11.8692Z" fill="#FEDD42"/>
<path fill-rule="evenodd" clip-rule="evenodd" d="M11.3516 11.8691C11.4097 11.7949 11.4918 11.7676 11.5977 11.7871C14.5235 11.7734 17.4494 11.7871 20.375 11.8281C21.2489 11.9912 21.8094 12.497 22.0566 13.3457C22.0977 15.3142 22.1114 17.283 22.0977 19.2519C21.6055 19.2519 21.1133 19.2519 20.6211 19.2519C20.6605 17.3304 20.6195 15.4164 20.498 13.5097C20.4365 13.4584 20.3681 13.4174 20.293 13.3867C18.7893 13.3457 17.2854 13.332 15.7812 13.3457C15.4649 12.8672 15.4649 12.3886 15.7812 11.9101C14.3049 11.8691 12.8284 11.8554 11.3516 11.8691Z" fill="#FEE88D"/>
<path fill-rule="evenodd" clip-rule="evenodd" d="M15.7786 13.3457C15.7786 13.4277 15.7786 13.5098 15.7786 13.5918C15.0383 13.5314 14.4231 13.7775 13.9329 14.3301C13.9172 14.7814 13.7258 15.1369 13.3586 15.3965C13.2085 15.9943 13.1948 16.5959 13.3176 17.2012C13.2151 17.2075 13.1468 17.2622 13.1125 17.3652C13.0795 17.95 13.2573 18.4558 13.6458 18.8828C13.7577 19.507 14.0038 20.0675 14.384 20.5645C14.3569 20.9477 14.2475 21.3032 14.0559 21.6309C13.6948 21.6658 13.3667 21.7752 13.0715 21.959C12.4834 22.294 11.8545 22.5128 11.1848 22.6152C11.1711 19.6346 11.1848 16.6542 11.2258 13.6738C11.2668 13.5235 11.3626 13.4277 11.5129 13.3867C12.9345 13.3457 14.3564 13.332 15.7786 13.3457Z" fill="#FEB232"/>
<path fill-rule="evenodd" clip-rule="evenodd" d="M15.7812 13.3457C17.2854 13.332 18.7893 13.3457 20.293 13.3867C20.3681 13.4174 20.4365 13.4584 20.498 13.5098C20.6195 15.4164 20.6605 17.3305 20.6211 19.252C19.9259 19.1887 19.4884 19.4895 19.3086 20.1543C19.092 20.439 18.8323 20.6851 18.5293 20.8926C18.4884 21.2196 18.4747 21.5477 18.4883 21.877C18.2149 21.7949 17.9414 21.7129 17.668 21.6309C17.4276 21.3198 17.3183 20.9644 17.3398 20.5645C17.7361 20.0326 17.9548 19.431 17.9961 18.7598C18.1511 18.7764 18.2742 18.7218 18.3652 18.5957C18.4145 18.3384 18.4966 18.0923 18.6113 17.8574C18.5245 17.3806 18.4835 16.8884 18.4883 16.3809C18.6865 15.2046 18.2489 14.3707 17.1758 13.8789C16.7288 13.692 16.2639 13.5962 15.7812 13.5918C15.7812 13.5098 15.7812 13.4277 15.7812 13.3457Z" fill="#FDDC41"/>
<path fill-rule="evenodd" clip-rule="evenodd" d="M15.7782 13.5917C15.377 14.0596 15.3496 14.5518 15.6961 15.0682C15.686 15.118 15.6587 15.1454 15.6141 15.1503C14.2344 14.7664 13.6192 15.286 13.7684 16.7089C13.6638 16.8907 13.5818 17.0822 13.5223 17.2831C13.4673 17.2214 13.3989 17.194 13.3172 17.2011C13.1944 16.5958 13.2081 15.9941 13.3583 15.3964C13.7254 15.1368 13.9168 14.7813 13.9325 14.33C14.4227 13.7774 15.0379 13.5313 15.7782 13.5917Z" fill="#243079"/>
<path fill-rule="evenodd" clip-rule="evenodd" d="M15.78 13.5918C16.2626 13.5962 16.7275 13.692 17.1745 13.8789C18.2476 14.3707 18.6852 15.2046 18.487 16.3809C18.4557 16.6777 18.3737 16.9511 18.2409 17.2012C18.1067 17.0987 18.011 16.962 17.9538 16.791C17.9396 16.374 17.885 15.9638 17.7897 15.5605C17.5785 15.1793 17.2504 15.0153 16.8054 15.0684C16.4584 15.0976 16.1166 15.1523 15.78 15.2324C15.6986 15.2465 15.644 15.2191 15.6159 15.1504C15.6605 15.1455 15.6878 15.1182 15.6979 15.0684C15.3514 14.5519 15.3788 14.0597 15.78 13.5918Z" fill="#2D438B"/>
<path fill-rule="evenodd" clip-rule="evenodd" d="M30.5433 13.7559C30.1227 14.0764 30.027 14.4866 30.2562 14.9863C30.3501 15.0795 30.4458 15.1616 30.5433 15.2324C29.2579 15.2461 27.9727 15.2324 26.6878 15.1914C26.2368 14.9322 26.1138 14.5631 26.3187 14.084C26.4183 13.9569 26.5413 13.8613 26.6878 13.7969C27.9727 13.7559 29.2579 13.7422 30.5433 13.7559Z" fill="#FE4255"/>
<path fill-rule="evenodd" clip-rule="evenodd" d="M30.5451 13.7559C31.4205 13.7422 32.2955 13.7559 33.1701 13.7969C33.6288 13.9939 33.7792 14.3357 33.6213 14.8223C33.5206 15.0049 33.3702 15.1279 33.1701 15.1914C32.2955 15.2324 31.4205 15.2461 30.5451 15.2324C30.4476 15.1616 30.3519 15.0795 30.258 14.9863C30.0288 14.4866 30.1245 14.0764 30.5451 13.7559Z" fill="#FE7186"/>
<path fill-rule="evenodd" clip-rule="evenodd" d="M15.6152 15.1504C15.6433 15.2192 15.6979 15.2466 15.7793 15.2325C15.5651 15.6616 15.4694 16.1265 15.4922 16.627C15.3135 16.8881 15.2179 17.1752 15.2051 17.4883C15.2515 18.3798 15.4293 19.2412 15.7383 20.0723C15.9599 20.4479 16.247 20.7623 16.5996 21.0157C16.7151 21.0415 16.8244 21.0142 16.9277 20.9336C17.0538 20.7936 17.1905 20.6706 17.3379 20.5645C17.3163 20.9644 17.4256 21.3198 17.666 21.6309C17.0572 22.6904 16.1821 23.0185 15.041 22.6153C15.5393 22.3304 15.7854 21.8929 15.7793 21.3028C15.2113 21.2512 14.7464 21.0051 14.3847 20.5645C14.0045 20.0675 13.7584 19.507 13.6465 18.8828C13.258 18.4558 13.0802 17.95 13.1133 17.3653C13.1475 17.2622 13.2158 17.2075 13.3183 17.2012C13.4 17.1941 13.4684 17.2215 13.5234 17.2832C13.5829 17.0823 13.6649 16.8909 13.7695 16.709C13.6203 15.2861 14.2355 14.7665 15.6152 15.1504Z" fill="#FBAC6C"/>
<path fill-rule="evenodd" clip-rule="evenodd" d="M18.2383 17.2011C18.1096 17.7102 18.0275 18.2297 17.9922 18.7597C17.9508 19.431 17.7321 20.0325 17.3359 20.5644C17.1886 20.6705 17.0519 20.7935 16.9258 20.9336C16.8225 21.0141 16.7132 21.0414 16.5977 21.0156C16.2451 20.7623 15.958 20.4479 15.7363 20.0722C15.4273 19.2411 15.2496 18.3798 15.2031 17.4882C15.2159 17.1751 15.3116 16.888 15.4902 16.6269C15.4674 16.1264 15.5632 15.6616 15.7773 15.2324C16.114 15.1522 16.4557 15.0976 16.8027 15.0683C17.2478 15.0152 17.5759 15.1793 17.7871 15.5605C17.8823 15.9638 17.937 16.3739 17.9512 16.791C18.0083 16.9619 18.1041 17.0987 18.2383 17.2011Z" fill="#F8B98E"/>
<path opacity="0.973" fill-rule="evenodd" clip-rule="evenodd" d="M6.42831 16.3809C6.42831 20.7012 6.42831 25.0215 6.42831 29.3418C5.67541 27.2578 5.31994 25.0977 5.36191 22.8613C5.3022 20.622 5.65767 18.4619 6.42831 16.3809Z" fill="#B2C3FA"/>
<path opacity="0.975" fill-rule="evenodd" clip-rule="evenodd" d="M44.4922 16.3809C45.2629 18.4619 45.6183 20.622 45.5586 22.8613C45.6006 25.0977 45.2451 27.2578 44.4922 29.3418C44.4922 25.0215 44.4922 20.7012 44.4922 16.3809Z" fill="#B2C3FA"/>
<path fill-rule="evenodd" clip-rule="evenodd" d="M26.7733 16.5449C31.0937 16.5312 35.414 16.5449 39.7343 16.5859C40.3391 16.8615 40.4621 17.2853 40.1034 17.8574C39.987 17.9362 39.864 18.0045 39.7343 18.0625C35.4139 18.1172 31.0937 18.1172 26.7733 18.0625C26.0131 17.557 26.0131 17.0511 26.7733 16.5449Z" fill="#BFC9F7"/>
<path fill-rule="evenodd" clip-rule="evenodd" d="M18.4844 16.3809C18.4796 16.8884 18.5206 17.3806 18.6074 17.8574C18.4927 18.0923 18.4106 18.3384 18.3613 18.5957C18.2703 18.7218 18.1472 18.7764 17.9922 18.7598C18.0275 18.2298 18.1096 17.7103 18.2383 17.2012C18.3711 16.9511 18.4531 16.6777 18.4844 16.3809Z" fill="#F3AC6D"/>
<path fill-rule="evenodd" clip-rule="evenodd" d="M20.6204 19.2519C21.1126 19.2519 21.6048 19.2519 22.097 19.2519C22.3829 19.3366 22.6837 19.405 22.9993 19.457C23.2878 20.0478 23.6843 20.5537 24.1888 20.9745C24.2557 21.7439 24.2284 22.5096 24.1067 23.2714C23.9728 24.0032 23.6857 24.6595 23.2454 25.2402C22.4198 25.0151 21.9824 24.4683 21.9329 23.5995C22.2335 23.2852 22.5206 22.9571 22.7942 22.6152C22.9073 21.9899 22.6475 21.7028 22.0149 21.7538C21.7539 22.0286 21.4805 22.2884 21.1946 22.5331C20.9642 22.2402 20.6635 22.1035 20.2923 22.123C19.5318 21.6959 19.2037 21.0396 19.3079 20.1542C19.4877 19.4895 19.9252 19.1886 20.6204 19.2519Z" fill="#5FCAC3"/>
<path fill-rule="evenodd" clip-rule="evenodd" d="M26.6888 19.416C31.0639 19.4023 35.4389 19.416 39.8138 19.457C40.2955 19.7044 40.4186 20.0736 40.183 20.5645C40.0834 20.6915 39.9603 20.7872 39.8138 20.8516C35.4388 20.9063 31.0638 20.9063 26.6888 20.8516C26.036 20.3664 26.036 19.8879 26.6888 19.416Z" fill="#BEC8F7"/>
<path fill-rule="evenodd" clip-rule="evenodd" d="M19.3081 20.1543C19.204 21.0397 19.5321 21.6959 20.2925 22.123C19.9144 22.3056 19.7914 22.6063 19.9234 23.0254C20.2378 23.3398 20.5523 23.6543 20.8667 23.9688C21.305 24.0774 21.6605 23.9544 21.9331 23.5996C21.9826 24.4683 22.4201 25.0151 23.2456 25.2402C22.7633 25.9134 22.1344 26.4056 21.3589 26.7168C20.8128 26.4987 20.3206 26.1979 19.8824 25.8145C19.4508 25.3619 19.1227 24.8423 18.898 24.2559C18.5827 23.5542 18.446 22.816 18.4878 22.041C18.4878 21.9863 18.4878 21.9317 18.4878 21.877C18.4742 21.5477 18.4879 21.2196 18.5288 20.8926C18.8319 20.6851 19.0916 20.439 19.3081 20.1543Z" fill="#479892"/>
<path fill-rule="evenodd" clip-rule="evenodd" d="M14.3828 20.5645C14.7445 21.005 15.2094 21.2511 15.7773 21.3027C15.7835 21.8929 15.5374 22.3303 15.0391 22.6152C14.9843 22.5879 14.9297 22.5605 14.875 22.5332C14.541 22.2814 14.2675 21.9807 14.0547 21.6309C14.2462 21.3031 14.3557 20.9477 14.3828 20.5645Z" fill="#FC995B"/>
<path fill-rule="evenodd" clip-rule="evenodd" d="M17.6642 21.6309C17.9376 21.7129 18.2111 21.7949 18.4845 21.877C18.4845 21.9317 18.4845 21.9863 18.4845 22.041C17.485 23.7092 16.0904 24.133 14.3009 23.3125C14.216 23.1889 14.2297 23.0658 14.3419 22.9434C14.5393 22.8132 14.717 22.6765 14.8751 22.5332C14.9299 22.5605 14.9845 22.5879 15.0392 22.6152C16.1803 23.0185 17.0554 22.6904 17.6642 21.6309Z" fill="#76C2F6"/>
<path fill-rule="evenodd" clip-rule="evenodd" d="M21.9321 23.5995C21.6594 23.9543 21.304 24.0774 20.8657 23.9687C20.5513 23.6542 20.2368 23.3397 19.9223 23.0253C19.7903 22.6062 19.9134 22.3055 20.2915 22.123C20.6627 22.1034 20.9634 22.2402 21.1938 22.5331C21.4797 22.2883 21.7531 22.0285 22.0141 21.7538C22.6467 21.7028 22.9065 21.9899 22.7934 22.6151C22.5198 22.9571 22.2327 23.2852 21.9321 23.5995Z" fill="#E6EEFC"/>
<path fill-rule="evenodd" clip-rule="evenodd" d="M13.0715 21.959C13.3752 22.4091 13.7306 22.8329 14.1379 23.2305C13.704 23.3376 13.3622 23.57 13.1125 23.9277C13.0723 24.0338 13.0586 24.1432 13.0715 24.2559C12.4878 24.2907 11.9136 24.2497 11.3488 24.1328C11.2975 24.0713 11.2565 24.0029 11.2258 23.9277C11.1848 23.4911 11.1712 23.0536 11.1848 22.6152C11.8545 22.5128 12.4834 22.294 13.0715 21.959Z" fill="#219EF3"/>
<path fill-rule="evenodd" clip-rule="evenodd" d="M14.0555 21.6309C14.2683 21.9807 14.5417 22.2814 14.8758 22.5332C14.7176 22.6765 14.5399 22.8132 14.3426 22.9434C14.2304 23.0658 14.2167 23.1889 14.3016 23.3125C16.0911 24.133 17.4856 23.7092 18.4852 22.041C18.4433 22.816 18.5801 23.5542 18.8953 24.2559C17.7469 24.2559 16.5984 24.2559 15.45 24.2559C14.657 24.2559 13.8641 24.2559 13.0711 24.2559C13.0582 24.1432 13.0719 24.0338 13.1121 23.9277C13.3618 23.57 13.7036 23.3376 14.1375 23.2305C13.7302 22.8329 13.3748 22.4091 13.0711 21.959C13.3662 21.7752 13.6944 21.6658 14.0555 21.6309Z" fill="#50ABF6"/>
<path fill-rule="evenodd" clip-rule="evenodd" d="M26.7733 22.2051C31.0937 22.1914 35.414 22.2051 39.7343 22.2461C40.3001 22.4777 40.4505 22.8742 40.1854 23.4356C40.0559 23.562 39.9055 23.6577 39.7343 23.7227C35.4139 23.7774 31.0937 23.7774 26.7733 23.7227C26.0131 23.2172 26.0131 22.7113 26.7733 22.2051Z" fill="#BFC9F7"/>
<path fill-rule="evenodd" clip-rule="evenodd" d="M15.4492 24.2559C16.5977 24.2559 17.7461 24.2559 18.8945 24.2559C19.1192 24.8423 19.4473 25.3619 19.8789 25.8145C17.1172 25.8145 14.3555 25.8145 11.5938 25.8145C11.5124 25.8286 11.4577 25.8012 11.4297 25.7324C12.7698 25.7461 14.1096 25.7324 15.4492 25.6914C15.2427 25.538 15.1332 25.3329 15.1211 25.0762C15.1866 24.7817 15.296 24.5083 15.4492 24.2559Z" fill="#FDE891"/>
<path fill-rule="evenodd" clip-rule="evenodd" d="M11.5952 28.1114C13.0315 28.0844 14.4533 28.1117 15.8609 28.1935C15.4305 28.683 15.4305 29.1752 15.8609 29.67C14.4114 29.6563 12.9622 29.67 11.5132 29.711C11.4381 29.7417 11.3697 29.7827 11.3081 29.8341C11.1864 32.2331 11.1454 34.6394 11.1851 37.0528C10.6922 36.5598 10.2273 36.0403 9.79056 35.4942C9.71022 33.6112 9.68288 31.7245 9.70853 29.8341C9.9417 28.8356 10.5706 28.2614 11.5952 28.1114Z" fill="#FEDD43"/>
<path fill-rule="evenodd" clip-rule="evenodd" d="M15.8618 28.1934C17.4207 28.1797 18.9792 28.1934 20.5376 28.2344C21.3081 28.4307 21.814 28.9092 22.0552 29.6699C22.0962 31.6385 22.1099 33.6073 22.0962 35.5762C21.604 35.5762 21.1118 35.5762 20.6196 35.5762C20.659 33.6547 20.618 31.7406 20.4966 29.834C20.4351 29.7826 20.3666 29.7416 20.2915 29.7109C18.8152 29.6699 17.3386 29.6562 15.8618 29.6699C15.4315 29.1751 15.4315 28.6829 15.8618 28.1934Z" fill="#FEE88C"/>
<path fill-rule="evenodd" clip-rule="evenodd" d="M15.8623 29.6699C15.8123 29.743 15.7849 29.8251 15.7803 29.916C15.0947 29.8846 14.5068 30.1034 14.0166 30.5723C13.873 30.7975 13.791 31.0436 13.7705 31.3106C13.5433 31.4829 13.3792 31.7017 13.2783 31.9668C13.2204 32.4893 13.2341 33.0089 13.3193 33.5254C13.087 33.6818 13.0186 33.9005 13.1143 34.1817C13.1846 34.5875 13.3623 34.9293 13.6475 35.207C13.7718 35.8516 14.0179 36.4394 14.3857 36.9707C14.3513 37.3286 14.2419 37.6567 14.0576 37.9551C13.5831 38.0401 13.1456 38.2041 12.7451 38.4473C12.199 38.0105 11.6795 37.5457 11.1865 37.0527C11.1468 34.6393 11.1878 32.233 11.3096 29.834C11.3711 29.7826 11.4395 29.7416 11.5146 29.7109C12.9636 29.6699 14.4128 29.6562 15.8623 29.6699Z" fill="#FEB232"/>
<path fill-rule="evenodd" clip-rule="evenodd" d="M15.8633 29.6699C17.3401 29.6562 18.8167 29.6699 20.293 29.7109C20.3681 29.7416 20.4365 29.7826 20.498 29.834C20.6195 31.7406 20.6605 33.6547 20.6211 35.5762C19.9295 35.5223 19.492 35.8231 19.3086 36.4785C19.092 36.7633 18.8323 37.0094 18.5293 37.2168C18.4884 37.5438 18.4747 37.8719 18.4883 38.2012C18.2135 38.1189 17.9401 38.0369 17.668 37.9551C17.4453 37.6397 17.3359 37.2842 17.3398 36.8887C17.7361 36.3568 17.9548 35.7553 17.9961 35.084C18.1511 35.1006 18.2742 35.046 18.3652 34.9199C18.4473 34.6738 18.5293 34.4277 18.6113 34.1817C18.5245 33.7048 18.4835 33.2126 18.4883 32.7051C18.6865 31.5288 18.2489 30.6949 17.1758 30.2031C16.73 30.0195 16.2652 29.9237 15.7812 29.916C15.7859 29.8251 15.8132 29.743 15.8633 29.6699Z" fill="#FEDC41"/>
<path fill-rule="evenodd" clip-rule="evenodd" d="M15.7793 29.916C15.3821 30.4008 15.3547 30.9067 15.6972 31.4336C15.6485 31.4717 15.5938 31.4854 15.5332 31.4746C14.2208 31.1596 13.6329 31.6791 13.7695 33.0332C13.6734 33.2253 13.5777 33.4168 13.4824 33.6075C13.4264 33.5777 13.3717 33.5504 13.3183 33.5254C13.2331 33.0089 13.2194 32.4894 13.2773 31.9668C13.3782 31.7017 13.5423 31.4829 13.7695 31.3106C13.79 31.0436 13.872 30.7976 14.0156 30.5723C14.5058 30.1034 15.0937 29.8846 15.7793 29.916Z" fill="#223079"/>
<path fill-rule="evenodd" clip-rule="evenodd" d="M15.7809 29.916C16.2648 29.9237 16.7297 30.0195 17.1754 30.2031C18.2485 30.6949 18.6861 31.5288 18.4879 32.7051C18.4333 32.9667 18.3786 33.2402 18.3238 33.5254C18.2678 33.5552 18.2131 33.5825 18.1598 33.6074C17.9563 33.1414 17.8606 32.6492 17.8727 32.1309C17.7484 31.5828 17.4067 31.3367 16.8473 31.3926C16.4853 31.4132 16.1298 31.4679 15.7809 31.5566C15.675 31.5761 15.5929 31.5488 15.5348 31.4746C15.5954 31.4854 15.6501 31.4717 15.6988 31.4336C15.3563 30.9067 15.3837 30.4008 15.7809 29.916Z" fill="#2E438B"/>
<path fill-rule="evenodd" clip-rule="evenodd" d="M30.5436 30.0801C29.8873 30.5723 29.8873 31.0645 30.5436 31.5567C29.2582 31.5704 27.973 31.5567 26.6881 31.5156C26.2068 31.2663 26.0837 30.8971 26.319 30.4082C26.4186 30.2811 26.5416 30.1855 26.6881 30.1211C27.973 30.0801 29.2582 30.0664 30.5436 30.0801Z" fill="#FE4255"/>
<path fill-rule="evenodd" clip-rule="evenodd" d="M30.5469 30.0801C31.4223 30.0664 32.2973 30.0801 33.1719 30.1211C33.6732 30.3875 33.7963 30.7839 33.541 31.3106C33.4381 31.3689 33.3424 31.4372 33.2539 31.5156C32.352 31.5567 31.4496 31.5704 30.5469 31.5567C29.8906 31.0645 29.8906 30.5723 30.5469 30.0801Z" fill="#FE7186"/>
<path fill-rule="evenodd" clip-rule="evenodd" d="M9.70935 29.834C9.6837 31.7244 9.71104 33.6111 9.79138 35.4941C9.67602 35.4553 9.62133 35.3733 9.62732 35.248C9.60019 33.4292 9.62753 31.6245 9.70935 29.834Z" fill="#F7DF72"/>
<path fill-rule="evenodd" clip-rule="evenodd" d="M15.5321 31.4747C15.5902 31.5488 15.6723 31.5761 15.7782 31.5567C15.5065 32.0364 15.3834 32.5559 15.409 33.1153C15.2817 33.3013 15.2134 33.5064 15.2039 33.7305C15.3061 34.342 15.3745 34.9572 15.409 35.5762C15.6119 36.3388 16.0357 36.9403 16.6805 37.3809C16.924 37.2464 17.1427 37.0823 17.3367 36.8887C17.3328 37.2842 17.4422 37.6397 17.6649 37.9551C17.0855 39.0147 16.2105 39.3701 15.0399 39.0215C15.0399 38.9942 15.0399 38.9668 15.0399 38.9395C15.5361 38.6595 15.7822 38.2221 15.7782 37.627C15.6388 37.6401 15.502 37.6265 15.368 37.586C15.0043 37.4252 14.6761 37.2201 14.3836 36.9708C14.0158 36.4395 13.7697 35.8516 13.6453 35.2071C13.3602 34.9293 13.1824 34.5876 13.1121 34.1817C13.0165 33.9006 13.0849 33.6819 13.3172 33.5255C13.3705 33.5504 13.4253 33.5777 13.4813 33.6075C13.5766 33.4168 13.6723 33.2254 13.7684 33.0333C13.6318 31.6792 14.2196 31.1597 15.5321 31.4747Z" fill="#FBAC6C"/>
<path fill-rule="evenodd" clip-rule="evenodd" d="M18.1562 33.6074C18.1092 34.1005 18.0545 34.5926 17.9922 35.0839C17.9508 35.7552 17.7321 36.3567 17.3359 36.8886C17.1419 37.0822 16.9232 37.2463 16.6797 37.3808C16.0349 36.9402 15.6111 36.3387 15.4082 35.5761C15.3737 34.9571 15.3053 34.3419 15.2031 33.7304C15.2126 33.5063 15.2809 33.3012 15.4082 33.1152C15.3826 32.5558 15.5057 32.0363 15.7773 31.5566C16.1263 31.4678 16.4817 31.4131 16.8438 31.3925C17.4031 31.3367 17.7449 31.5827 17.8691 32.1308C17.8571 32.6492 17.9528 33.1413 18.1562 33.6074Z" fill="#F8B98E"/>
<path fill-rule="evenodd" clip-rule="evenodd" d="M26.7733 32.8692C31.0937 32.8555 35.414 32.8692 39.7343 32.9102C40.3001 33.1417 40.4505 33.5383 40.1854 34.0996C40.0559 34.226 39.9055 34.3218 39.7343 34.3867C35.4139 34.4414 31.0937 34.4414 26.7733 34.3867C26.0131 33.8813 26.0131 33.3754 26.7733 32.8692Z" fill="#BFC9F7"/>
<path fill-rule="evenodd" clip-rule="evenodd" d="M18.4844 32.7051C18.4796 33.2126 18.5206 33.7048 18.6074 34.1816C18.5254 34.4277 18.4434 34.6738 18.3613 34.9199C18.2703 35.046 18.1472 35.1006 17.9922 35.084C18.0545 34.5927 18.1092 34.1005 18.1562 33.6074C18.2096 33.5825 18.2643 33.5552 18.3203 33.5254C18.375 33.2402 18.4297 32.9667 18.4844 32.7051Z" fill="#F3AC6C"/>
<path fill-rule="evenodd" clip-rule="evenodd" d="M20.6173 35.5762C21.1095 35.5762 21.6017 35.5762 22.0938 35.5762C22.3762 35.6786 22.6769 35.7469 22.9962 35.7813C23.1776 36.0209 23.328 36.2807 23.4474 36.5606C23.6935 36.8067 23.9395 37.0528 24.1856 37.2989C24.2404 37.9004 24.2404 38.502 24.1856 39.1036C24.1151 39.9586 23.828 40.7242 23.3243 41.4004C22.8713 41.4268 22.5021 41.2628 22.2169 40.9082C22.0429 40.6168 21.9199 40.316 21.8478 40.0059C22.1181 39.6943 22.4052 39.3936 22.7091 39.1036C22.9922 38.4031 22.7598 38.0613 22.0118 38.0782C21.7508 38.3529 21.4774 38.6127 21.1915 38.8575C20.9571 38.6309 20.6836 38.4941 20.3712 38.4473C19.5498 38.0635 19.1944 37.4072 19.3048 36.4786C19.4882 35.8231 19.9257 35.5223 20.6173 35.5762Z" fill="#5FCAC3"/>
<path fill-rule="evenodd" clip-rule="evenodd" d="M40.3047 36.3965C40.1188 36.7194 39.8727 36.9928 39.5664 37.2168C35.2734 37.2305 30.9804 37.2168 26.6875 37.1758C26.0312 36.7109 26.0312 36.2461 26.6875 35.7813C31.0352 35.7266 35.3828 35.7266 39.7305 35.7813C40.0497 35.868 40.241 36.0731 40.3047 36.3965Z" fill="#BEC8F7"/>
<path fill-rule="evenodd" clip-rule="evenodd" d="M19.3059 36.4785C19.1955 37.4072 19.5509 38.0634 20.3723 38.4473C19.9205 38.585 19.7702 38.8858 19.9211 39.3496C20.1809 39.7188 20.4953 40.0332 20.8645 40.293C21.2551 40.3959 21.5832 40.3002 21.8488 40.0059C21.9209 40.3159 22.044 40.6167 22.218 40.9082C22.5032 41.2627 22.8723 41.4268 23.3254 41.4004C23.2785 41.5444 23.2101 41.6811 23.1203 41.8105C22.8144 42.1303 22.5 42.4311 22.177 42.7129C21.3753 42.6241 20.6097 42.4328 19.8801 42.1387C19.4706 41.7029 19.1425 41.2107 18.8957 40.6621C18.9098 40.5807 18.8824 40.5261 18.8137 40.498C18.5746 39.8093 18.4653 39.0983 18.4856 38.3652C18.4856 38.3105 18.4856 38.2559 18.4856 38.2012C18.4719 37.8719 18.4856 37.5438 18.5266 37.2168C18.8296 37.0093 19.0893 36.7632 19.3059 36.4785Z" fill="#479892"/>
<path fill-rule="evenodd" clip-rule="evenodd" d="M14.3828 36.9707C14.6753 37.2201 15.0035 37.4252 15.3672 37.5859C15.5012 37.6265 15.638 37.6401 15.7773 37.627C15.7814 38.222 15.5353 38.6595 15.0391 38.9395C14.6267 38.6911 14.2986 38.363 14.0547 37.9551C14.239 37.6567 14.3484 37.3286 14.3828 36.9707Z" fill="#FC995B"/>
<path fill-rule="evenodd" clip-rule="evenodd" d="M14.0547 37.9551C14.2986 38.363 14.6267 38.6911 15.0391 38.9395C15.0391 38.9668 15.0391 38.9942 15.0391 39.0215C14.6254 39.0524 14.4066 39.2711 14.3828 39.6777C13.7891 39.3301 13.2423 38.9199 12.7422 38.4473C13.1427 38.2041 13.5801 38.0401 14.0547 37.9551Z" fill="#51AAF3"/>
<path opacity="0.998" fill-rule="evenodd" clip-rule="evenodd" d="M17.6641 37.9551C17.9362 38.0369 18.2096 38.1189 18.4844 38.2012C18.4844 38.2559 18.4844 38.3105 18.4844 38.3652C17.6783 39.8475 16.4479 40.367 14.793 39.9238C14.6146 39.9033 14.4779 39.8213 14.3828 39.6777C14.4066 39.2711 14.6254 39.0524 15.0391 39.0215C16.2096 39.37 17.0847 39.0146 17.6641 37.9551Z" fill="#73C2F7"/>
<path fill-rule="evenodd" clip-rule="evenodd" d="M21.8516 40.0057C21.586 40.3001 21.2579 40.3958 20.8673 40.2928C20.4981 40.033 20.1837 39.7186 19.9239 39.3495C19.773 38.8857 19.9233 38.5849 20.3751 38.4471C20.6875 38.494 20.961 38.6307 21.1954 38.8573C21.4813 38.6125 21.7547 38.3527 22.0157 38.078C22.7637 38.0611 22.996 38.4029 22.713 39.1034C22.4091 39.3934 22.122 39.6942 21.8516 40.0057Z" fill="#E5EEFB"/>
<path opacity="0.992" fill-rule="evenodd" clip-rule="evenodd" d="M18.4883 38.3652C18.468 39.0983 18.5774 39.8093 18.8164 40.498C17.874 40.5797 16.917 40.607 15.9453 40.5801C15.5352 40.4026 15.1523 40.1838 14.7969 39.9238C16.4518 40.367 17.6822 39.8475 18.4883 38.3652Z" fill="#4FABF6"/>
<path fill-rule="evenodd" clip-rule="evenodd" d="M38.0087 38.6114C37.3581 39.1835 36.6471 39.6757 35.8759 40.088C32.8406 40.1017 29.8055 40.088 26.7705 40.047C26.0839 39.6504 26.0291 39.1856 26.6064 38.6525C28.5271 38.5575 30.4548 38.5165 32.3896 38.5294C34.2765 38.5294 36.1496 38.5567 38.0087 38.6114Z" fill="#BFC9F7"/>
<path fill-rule="evenodd" clip-rule="evenodd" d="M18.8164 40.498C18.8851 40.5261 18.9125 40.5807 18.8984 40.6621C18.0087 40.6352 17.1337 40.6626 16.2734 40.7441C16.1378 40.731 16.0285 40.6764 15.9453 40.5801C16.917 40.607 17.874 40.5797 18.8164 40.498Z" fill="#CCD7A8"/>
<path opacity="0.971" fill-rule="evenodd" clip-rule="evenodd" d="M18.8984 40.6621C19.1452 41.2107 19.4733 41.7029 19.8828 42.1387C18.6003 41.8663 17.3971 41.4014 16.2734 40.7441C17.1337 40.6626 18.0087 40.6352 18.8984 40.6621Z" fill="#FBE78E"/>
</g>
<defs>
<clipPath id="clip0_556_53813">
<rect width="42" height="42" fill="white" transform="translate(4.5 1)"/>
</clipPath>
</defs>
</svg>
