<svg width="37" height="36" viewBox="0 0 37 36" fill="none" xmlns="http://www.w3.org/2000/svg">
<path fill-rule="evenodd" clip-rule="evenodd" d="M15.7674 4.49114C16.9799 2.39113 20.0109 2.39114 21.2234 4.49114L32.525 24.0661C33.7374 26.1661 32.2219 28.7911 29.797 28.7911H7.19376C4.76889 28.7911 3.25335 26.1661 4.46578 24.0661L15.7674 4.49114ZM18.4953 9.00015C19.2409 9.00015 19.8453 9.60456 19.8453 10.3501V16.6501C19.8453 17.3957 19.2409 18.0001 18.4953 18.0001C17.7497 18.0001 17.1453 17.3957 17.1453 16.6501L17.1453 10.3501C17.1453 9.60456 17.7497 9.00015 18.4953 9.00015ZM18.4953 25.2001C19.4894 25.2001 20.2953 24.3943 20.2953 23.4001C20.2953 22.406 19.4894 21.6001 18.4953 21.6001C17.5012 21.6001 16.6953 22.406 16.6953 23.4001C16.6953 24.3943 17.5012 25.2001 18.4953 25.2001Z" fill="#FFD600"/>
</svg>
