<svg width="37" height="36" viewBox="0 0 37 36" fill="none" xmlns="http://www.w3.org/2000/svg">
<path fill-rule="evenodd" clip-rule="evenodd" d="M32.8977 18C32.8977 25.9529 26.4506 32.4 18.4977 32.4C10.5448 32.4 4.09766 25.9529 4.09766 18C4.09766 10.0471 10.5448 3.59998 18.4977 3.59998C26.4506 3.59998 32.8977 10.0471 32.8977 18ZM18.4977 8.99998C19.2432 8.99998 19.8477 9.60439 19.8477 10.35V18.45C19.8477 19.1956 19.2432 19.8 18.4977 19.8C17.7521 19.8 17.1477 19.1956 17.1477 18.45V10.35C17.1477 9.60439 17.7521 8.99998 18.4977 8.99998ZM18.4977 27C19.4918 27 20.2977 26.1941 20.2977 25.2C20.2977 24.2059 19.4918 23.4 18.4977 23.4C17.5035 23.4 16.6977 24.2059 16.6977 25.2C16.6977 26.1941 17.5035 27 18.4977 27Z" fill="#F63564"/>
</svg>
