<svg width="16" height="16" viewBox="0 0 16 16" fill="none" xmlns="http://www.w3.org/2000/svg">
<path fill-rule="evenodd" clip-rule="evenodd" d="M7.20156 2.79998C4.77151 2.79998 2.80156 4.76992 2.80156 7.19998C2.80156 9.63003 4.77151 11.6 7.20156 11.6C8.41675 11.6 9.51593 11.1081 10.3128 10.3112C11.1097 9.51434 11.6016 8.41517 11.6016 7.19998C11.6016 4.76992 9.63161 2.79998 7.20156 2.79998ZM1.60156 7.19998C1.60156 4.10718 4.10877 1.59998 7.20156 1.59998C10.2944 1.59998 12.8016 4.10718 12.8016 7.19998C12.8016 8.52999 12.3373 9.75242 11.5629 10.7128L14.2258 13.3757C14.4601 13.61 14.4601 13.9899 14.2258 14.2242C13.9915 14.4586 13.6116 14.4586 13.3773 14.2242L10.7144 11.5614C9.75401 12.3357 8.53158 12.8 7.20156 12.8C4.10877 12.8 1.60156 10.2928 1.60156 7.19998Z" fill="#546881"/>
</svg>
