<svg width="51" height="50" viewBox="0 0 51 50" fill="none" xmlns="http://www.w3.org/2000/svg">
<circle cx="25.499" cy="24.9999" r="23.5849" fill="#E77FB9"/>
<g clip-path="url(#clip0_556_53562)">
<path fill-rule="evenodd" clip-rule="evenodd" d="M21.2727 4.96094C22.4706 4.96094 23.6685 4.96094 24.8664 4.96094C27.3688 5.2024 29.7907 5.80136 32.132 6.75781C29.6675 6.75635 27.2717 7.18604 24.9445 8.04688C20.3693 10.0963 17.8042 13.625 17.2492 18.6328C17.0294 21.1177 17.381 23.5135 18.3039 25.8203C16.0297 26.3166 13.738 26.7202 11.4289 27.0312C11.3534 27.3751 11.3274 27.7266 11.3508 28.0859C10.8904 28.1944 10.695 28.4809 10.7649 28.9453C10.9316 29.1526 11.1269 29.3088 11.3508 29.4141C11.3638 29.9095 11.3508 30.4043 11.3117 30.8984C10.9642 29.9128 10.2741 29.3399 9.24142 29.1797C8.85506 27.4693 8.5035 25.7505 8.18674 24.0234C7.5951 20.9691 7.62114 17.9223 8.26486 14.8828C9.51992 10.2943 12.4236 7.28644 16.9758 5.85938C18.3906 5.42286 19.8229 5.12338 21.2727 4.96094Z" fill="#8B5E5E"/>
<path opacity="0.999" fill-rule="evenodd" clip-rule="evenodd" d="M43.0713 29.1796C41.8166 29.2068 40.9833 29.8057 40.5713 30.9765C40.5713 30.4296 40.5713 29.8827 40.5713 29.3359C41.107 29.207 41.2763 28.8945 41.0791 28.3984C40.9511 28.2238 40.7818 28.1197 40.5713 28.0859C40.5713 27.6692 40.5713 27.2525 40.5713 26.8359C39.7144 26.7542 38.9071 26.5069 38.1494 26.0937C36.4697 25.1431 35.1546 23.828 34.2041 22.1484C33.6859 21.2443 33.2432 20.3068 32.8759 19.3359C31.2205 20.8483 29.3585 22.0592 27.29 22.9687C24.4052 24.1846 21.4365 25.1351 18.3837 25.8202C18.3577 25.8202 18.3316 25.8202 18.3056 25.8202C17.3827 23.5134 17.0311 21.1177 17.2509 18.6327C17.8059 13.6249 20.371 10.0963 24.9462 8.0468C27.2734 7.18596 29.6692 6.75628 32.1337 6.75774C34.6057 6.38771 37.0016 6.66114 39.3213 7.57805C41.9693 8.82352 43.649 10.8678 44.3603 13.7109C44.842 15.8202 44.9982 17.9555 44.8291 20.1171C44.5286 23.1949 43.9427 26.2157 43.0713 29.1796Z" fill="#9D6B6B"/>
<path fill-rule="evenodd" clip-rule="evenodd" d="M40.5703 28.0859C39.5405 28.4125 38.6681 28.9854 37.9531 29.8047C37.5579 30.3303 37.1933 30.8772 36.8594 31.4453C36.4734 32.2436 36.0697 33.0248 35.6484 33.7891C34.4466 33.4115 33.3659 33.6198 32.4062 34.4141C32.043 35.1012 32.1862 35.6611 32.8359 36.0938C33.0819 36.205 33.3162 36.3222 33.5391 36.4453C32.8785 36.4552 32.2535 36.3119 31.6641 36.0156C31.1202 35.3414 30.5473 34.6904 29.9453 34.0625C28.2906 32.8222 26.4416 32.4055 24.3984 32.8125C22.6618 33.2998 21.3337 34.3154 20.4141 35.8594C19.87 36.2187 19.271 36.414 18.6172 36.4453C18.4173 36.4689 18.2349 36.4428 18.0703 36.3672C18.7923 36.3646 19.3262 36.0521 19.6719 35.4297C19.7505 35.0695 19.6984 34.7309 19.5156 34.4141C19.1763 34.1082 18.7987 33.8738 18.3828 33.7109C18.3828 33.4505 18.3828 33.1901 18.3828 32.9297C18.5843 32.938 18.7666 32.8859 18.9297 32.7734C19.5642 32.2057 19.8507 31.4896 19.7891 30.625C19.8781 29.7498 19.5917 29.0337 18.9297 28.4766C18.7666 28.3641 18.5843 28.312 18.3828 28.3203C18.3828 27.487 18.3828 26.6537 18.3828 25.8203C21.4355 25.1352 24.4043 24.1847 27.2891 22.9688C29.3576 22.0593 31.2196 20.8484 32.875 19.3359C33.2423 20.3069 33.685 21.2444 34.2031 22.1484C35.1537 23.8281 36.4688 25.1432 38.1484 26.0938C38.9062 26.507 39.7134 26.7543 40.5703 26.8359C40.5703 27.2526 40.5703 27.6693 40.5703 28.0859Z" fill="#FEDCCD"/>
<path fill-rule="evenodd" clip-rule="evenodd" d="M18.3052 25.8203C18.3312 25.8203 18.3573 25.8203 18.3833 25.8203C18.3833 26.6537 18.3833 27.487 18.3833 28.3203C17.8113 28.5148 17.4336 28.9055 17.2505 29.4922C16.9279 30.5011 17.0321 31.4646 17.563 32.3828C17.7671 32.6734 18.0405 32.8556 18.3833 32.9297C18.3833 33.1901 18.3833 33.4505 18.3833 33.7109C17.669 33.5825 16.9658 33.6085 16.274 33.7891C15.8527 33.0248 15.449 32.2436 15.063 31.4453C14.4704 30.3 13.6501 29.3495 12.6021 28.5938C12.1992 28.3858 11.7825 28.2165 11.3521 28.0859C11.3286 27.7266 11.3547 27.3751 11.4302 27.0312C13.7393 26.7202 16.031 26.3166 18.3052 25.8203Z" fill="#FECABD"/>
<path fill-rule="evenodd" clip-rule="evenodd" d="M11.3497 28.0859C11.7802 28.2165 12.1969 28.3858 12.5997 28.5938C13.6478 29.3495 14.4681 30.3 15.0607 31.4453C15.4467 32.2436 15.8504 33.0248 16.2716 33.7891C16.5619 34.4477 16.9135 35.0727 17.3263 35.6641C17.5411 35.942 17.7884 36.1763 18.0685 36.3672C18.2331 36.4428 18.4154 36.4689 18.6154 36.4453C18.71 37.1073 18.8924 37.7452 19.1622 38.3594C24.0365 38.3602 28.9063 38.4123 33.7716 38.5156C34.2117 38.9443 34.1596 39.3089 33.6154 39.6094C29.006 39.6354 24.3966 39.6615 19.7872 39.6875C20.1231 40.216 20.4877 40.7238 20.881 41.2109C24.5591 41.2507 28.231 41.3159 31.8966 41.4062C32.2205 41.7676 32.1945 42.1062 31.8185 42.4219C28.6154 42.4479 25.4122 42.474 22.2091 42.5C23.8908 43.9009 25.8179 44.7212 27.9904 44.9609C25.5685 44.9609 23.1466 44.9609 20.7247 44.9609C17.7246 44.5245 15.2897 43.1182 13.42 40.7422C13.3345 40.6189 13.2694 40.4887 13.2247 40.3516C13.1702 39.241 13.4437 38.2254 14.045 37.3047C14.7427 36.6802 15.5109 36.3677 16.3497 36.3672C15.9383 35.7263 15.5477 35.0752 15.1779 34.4141C14.6018 33.0972 13.9118 31.8472 13.1075 30.6641C12.8341 30.3906 12.5607 30.1172 12.2872 29.8438C12.0026 29.6363 11.6901 29.493 11.3497 29.4141C11.1258 29.3088 10.9305 29.1526 10.7638 28.9453C10.694 28.4809 10.8893 28.1944 11.3497 28.0859Z" fill="#DDE9FA"/>
<path fill-rule="evenodd" clip-rule="evenodd" d="M40.5703 28.0859C40.7809 28.1198 40.9502 28.2239 41.0781 28.3984C41.2754 28.8945 41.1061 29.207 40.5703 29.3359C39.8817 29.6355 39.2958 30.0783 38.8125 30.6641C38.0083 31.8472 37.3182 33.0972 36.7422 34.4141C36.3723 35.0752 35.9817 35.7263 35.5703 36.3672C35.5182 36.3672 35.4922 36.3932 35.4922 36.4453C34.9453 36.4453 34.3984 36.4453 33.8516 36.4453C34.6312 35.6901 35.2301 34.8046 35.6484 33.7891C36.0697 33.0248 36.4734 32.2436 36.8594 31.4453C37.1933 30.8772 37.5579 30.3303 37.9531 29.8047C38.6681 28.9854 39.5405 28.4125 40.5703 28.0859Z" fill="#DDE9F9"/>
<path fill-rule="evenodd" clip-rule="evenodd" d="M18.3821 28.3204C18.5836 28.3122 18.7659 28.3643 18.929 28.4767C18.0482 29.453 17.8269 30.5728 18.2649 31.8361C18.4149 32.2061 18.6362 32.5186 18.929 32.7736C18.7659 32.886 18.5836 32.9381 18.3821 32.9298C18.0393 32.8557 17.7659 32.6735 17.5618 32.3829C17.0309 31.4647 16.9267 30.5012 17.2493 29.4923C17.4324 28.9056 17.8101 28.515 18.3821 28.3204Z" fill="#3A607E"/>
<path fill-rule="evenodd" clip-rule="evenodd" d="M33.9315 28.4766C33.2886 29.0359 33.0021 29.752 33.0721 30.625C33.0289 31.4869 33.3153 32.203 33.9315 32.7734C33.6302 32.9665 33.3177 32.9795 32.994 32.8125C32.3405 32.2205 32.028 31.4784 32.0565 30.5859C32.0443 29.723 32.3568 29.0068 32.994 28.4375C33.3177 28.2705 33.6302 28.2835 33.9315 28.4766Z" fill="#39607E"/>
<path fill-rule="evenodd" clip-rule="evenodd" d="M18.9292 28.4766C19.5912 29.0337 19.8776 29.7498 19.7886 30.625C19.8502 31.4896 19.5637 32.2057 18.9292 32.7734C18.6365 32.5184 18.4151 32.2059 18.2651 31.8359C17.8271 30.5727 18.0484 29.4529 18.9292 28.4766Z" fill="#417093"/>
<path fill-rule="evenodd" clip-rule="evenodd" d="M33.9283 28.4766C34.5783 29.0225 34.8647 29.7256 34.7877 30.5859C34.8039 31.2239 34.6607 31.8228 34.358 32.3828C34.2248 32.5291 34.0816 32.6594 33.9283 32.7734C33.3121 32.203 33.0257 31.487 33.0689 30.625C32.9989 29.752 33.2854 29.0359 33.9283 28.4766Z" fill="#417093"/>
<path opacity="0.992" fill-rule="evenodd" clip-rule="evenodd" d="M9.24251 29.1798C10.2751 29.34 10.9652 29.9129 11.3128 30.8985C11.3518 30.4044 11.3649 29.9096 11.3519 29.4141C11.6922 29.4931 12.0047 29.6363 12.2894 29.8438C12.5628 30.1173 12.8363 30.3907 13.1097 30.6641C13.9139 31.8473 14.604 33.0973 15.18 34.4141C14.8299 34.983 14.908 35.4908 15.4144 35.9376C15.6991 36.1451 16.0116 36.2883 16.3519 36.3673C15.5131 36.3677 14.7449 36.6802 14.0472 37.3048C13.4458 38.2255 13.1724 39.2411 13.2269 40.3516C12.3847 39.2394 11.8379 37.9894 11.5863 36.6016C8.89787 36.5303 7.29631 35.1761 6.78157 32.5391C6.66876 31.6533 6.82501 30.8199 7.25032 30.0391C7.77837 29.4432 8.44244 29.1567 9.24251 29.1798Z" fill="#FECBBE"/>
<path opacity="0.983" fill-rule="evenodd" clip-rule="evenodd" d="M43.0703 29.1797C43.9942 29.3092 44.6323 29.804 44.9844 30.6641C45.536 33.4023 44.5334 35.3163 41.9766 36.4062C41.4395 36.5534 40.8926 36.6184 40.3359 36.6016C40.5252 35.5963 40.6034 34.5807 40.5703 33.5547C40.936 33.3854 41.2485 33.138 41.5078 32.8125C41.6773 32.6886 41.8597 32.5844 42.0547 32.5C42.4706 32.5114 42.8873 32.5114 43.3047 32.5C43.6807 32.1843 43.7067 31.8457 43.3828 31.4844C42.3402 31.0548 41.4027 31.2241 40.5703 31.9922C40.5703 31.6537 40.5703 31.3151 40.5703 30.9766C40.9823 29.8058 41.8156 29.2069 43.0703 29.1797Z" fill="#FECABD"/>
<path opacity="0.997" fill-rule="evenodd" clip-rule="evenodd" d="M40.5703 29.3359C40.5703 29.8828 40.5703 30.4297 40.5703 30.9766C40.5703 31.3151 40.5703 31.6537 40.5703 31.9922C40.5703 32.513 40.5703 33.0338 40.5703 33.5547C40.6034 34.5807 40.5252 35.5963 40.3359 36.6016C40.0582 38.0417 39.4852 39.3438 38.6172 40.5078C38.6921 39.3842 38.4448 38.3426 37.875 37.3828C37.22 36.7259 36.4258 36.4134 35.4922 36.4453C35.4922 36.3932 35.5182 36.3672 35.5703 36.3672C36.347 36.2409 36.8158 35.7983 36.9766 35.0391C36.9416 34.8132 36.8634 34.6048 36.7422 34.4141C37.3182 33.0972 38.0083 31.8472 38.8125 30.6641C39.2958 30.0783 39.8817 29.6355 40.5703 29.3359Z" fill="#FEDDCE"/>
<path fill-rule="evenodd" clip-rule="evenodd" d="M8.929 31.2891C9.84519 31.1297 10.6395 31.3641 11.3118 31.9923C11.3508 32.5124 11.3639 33.0333 11.3509 33.5548C11.2687 33.5664 11.1906 33.5534 11.1165 33.5157C10.7979 33.1447 10.4333 32.8322 10.0227 32.5782C9.84745 32.5074 9.66515 32.4684 9.47587 32.461C9.19026 32.5224 8.9038 32.5355 8.6165 32.5001C8.14136 31.946 8.24552 31.5423 8.929 31.2891Z" fill="#EAAC9D"/>
<path fill-rule="evenodd" clip-rule="evenodd" d="M40.5703 33.5546C40.5703 33.0338 40.5703 32.513 40.5703 31.9921C41.4027 31.224 42.3402 31.0547 43.3828 31.4843C43.7067 31.8456 43.6807 32.1842 43.3047 32.4999C42.8873 32.5113 42.4706 32.5113 42.0547 32.4999C41.8597 32.5843 41.6773 32.6885 41.5078 32.8124C41.2485 33.138 40.936 33.3853 40.5703 33.5546Z" fill="#EAAC9D"/>
<path opacity="0.999" fill-rule="evenodd" clip-rule="evenodd" d="M33.5391 36.4452C33.6432 36.4452 33.7474 36.4452 33.8516 36.4452C34.3984 36.4452 34.9453 36.4452 35.4922 36.4452C36.4258 36.4134 37.22 36.7259 37.875 37.3827C38.4448 38.3425 38.6921 39.3842 38.6172 40.5077C36.791 43.0493 34.3171 44.5337 31.1953 44.9609C30.1276 44.9609 29.0599 44.9609 27.9922 44.9609C25.8198 44.7211 23.8927 43.9008 22.2109 42.4999C25.4141 42.4739 28.6172 42.4478 31.8203 42.4218C32.1963 42.1061 32.2223 41.7675 31.8984 41.4062C28.2328 41.3158 24.5609 41.2506 20.8828 41.2109C20.4895 40.7238 20.1249 40.2159 19.7891 39.6874C24.3984 39.6614 29.0078 39.6353 33.6172 39.6093C34.1614 39.3088 34.2135 38.9442 33.7734 38.5156C28.9081 38.4123 24.0384 38.3602 19.1641 38.3593C18.8942 37.7452 18.7119 37.1072 18.6172 36.4452C19.271 36.4139 19.87 36.2186 20.4141 35.8593C21.3337 34.3153 22.6618 33.2997 24.3984 32.8124C26.4416 32.4055 28.2906 32.8221 29.9453 34.0624C30.5473 34.6903 31.1202 35.3413 31.6641 36.0156C32.2535 36.3118 32.8785 36.4551 33.5391 36.4452Z" fill="#EBF3FE"/>
<path fill-rule="evenodd" clip-rule="evenodd" d="M18.3828 33.711C18.7987 33.8738 19.1763 34.1082 19.5156 34.4141C19.6984 34.7309 19.7505 35.0695 19.6719 35.4297C19.3262 36.0521 18.7923 36.3646 18.0703 36.3672C17.7902 36.1763 17.5429 35.942 17.3281 35.6641C16.9153 35.0728 16.5637 34.4478 16.2734 33.7891C16.9653 33.6085 17.6684 33.5825 18.3828 33.711Z" fill="#EAB1B7"/>
<path fill-rule="evenodd" clip-rule="evenodd" d="M35.6485 33.7889C35.2302 34.8045 34.6313 35.69 33.8517 36.4452C33.7475 36.4452 33.6433 36.4452 33.5392 36.4452C33.3163 36.3221 33.082 36.2049 32.836 36.0936C32.1863 35.661 32.0431 35.1011 32.4063 34.4139C33.3659 33.6197 34.4467 33.4114 35.6485 33.7889Z" fill="#EAB1B7"/>
<path fill-rule="evenodd" clip-rule="evenodd" d="M15.1796 34.4141C15.5494 35.0752 15.94 35.7263 16.3514 36.3672C16.0111 36.2882 15.6986 36.145 15.4139 35.9375C14.9075 35.4907 14.8294 34.9829 15.1796 34.4141Z" fill="#EAB3B8"/>
<path fill-rule="evenodd" clip-rule="evenodd" d="M36.7422 34.4141C36.8634 34.6048 36.9416 34.8132 36.9766 35.0391C36.8158 35.7983 36.347 36.2409 35.5703 36.3672C35.9817 35.7263 36.3723 35.0752 36.7422 34.4141Z" fill="#EAB3B9"/>
<path fill-rule="evenodd" clip-rule="evenodd" d="M23.4603 35.5078C25.1271 35.4948 26.7938 35.5078 28.4603 35.5469C28.8293 35.7371 28.9465 36.0367 28.8118 36.4453C28.717 36.5663 28.5998 36.6574 28.4603 36.7188C26.7936 36.7709 25.1269 36.7709 23.4603 36.7188C23.0912 36.5285 22.974 36.229 23.1087 35.8203C23.2178 35.6977 23.335 35.5934 23.4603 35.5078Z" fill="#DDEAFB"/>
<rect x="33.0312" y="5.625" width="12.1094" height="12.1094" rx="6.05469" fill="#23BFAE"/>
<path fill-rule="evenodd" clip-rule="evenodd" d="M41.5554 9.52792C41.6767 9.6203 41.7001 9.7935 41.6077 9.91475L38.6634 13.7791C38.6152 13.8424 38.5419 13.8818 38.4624 13.8872C38.3829 13.8925 38.305 13.8633 38.2487 13.807L36.5926 12.1508C36.4848 12.043 36.4848 11.8683 36.5926 11.7605C36.7004 11.6527 36.8751 11.6527 36.9829 11.7605L38.4157 13.1933L41.1686 9.58019C41.2609 9.45893 41.4341 9.43553 41.5554 9.52792Z" fill="white"/>
</g>
<defs>
<clipPath id="clip0_556_53562">
<rect width="40" height="40" fill="white" transform="translate(6 5)"/>
</clipPath>
</defs>
</svg>
