<svg width="60" height="60" viewBox="0 0 60 60" fill="none" xmlns="http://www.w3.org/2000/svg">
<circle cx="30.0011" cy="30" r="28.3019" fill="#E77FB9"/>
<g clip-path="url(#clip0_2507_26390)">
<path fill-rule="evenodd" clip-rule="evenodd" d="M24.9241 5.95312C26.3616 5.95312 27.7991 5.95312 29.2366 5.95312C32.2395 6.24288 35.1457 6.96163 37.9553 8.10938C34.9979 8.10762 32.1229 8.62325 29.3303 9.65625C23.8401 12.1156 20.762 16.35 20.096 22.3594C19.8321 25.3413 20.254 28.2162 21.3616 30.9844C18.6325 31.5799 15.8825 32.0642 13.1116 32.4375C13.021 32.8501 12.9897 33.272 13.0178 33.7031C12.4653 33.8333 12.2309 34.177 12.3147 34.7344C12.5147 34.9831 12.7491 35.1706 13.0178 35.2969C13.0334 35.8914 13.0178 36.4852 12.971 37.0781C12.5539 35.8954 11.7258 35.2079 10.4866 35.0156C10.023 32.9632 9.60108 30.9007 9.22096 28.8281C8.511 25.163 8.54225 21.5067 9.31471 17.8594C10.8208 12.3531 14.3052 8.74372 19.7678 7.03125C21.4656 6.50743 23.1844 6.14806 24.9241 5.95312Z" fill="#8B5E5E"/>
<path opacity="0.999" fill-rule="evenodd" clip-rule="evenodd" d="M51.0839 35.0157C49.5783 35.0483 48.5784 35.767 48.0839 37.1719C48.0839 36.5157 48.0839 35.8594 48.0839 35.2032C48.7269 35.0485 48.93 34.6735 48.6933 34.0782C48.5398 33.8687 48.3366 33.7438 48.0839 33.7032C48.0839 33.2032 48.0839 32.7031 48.0839 32.2032C47.0557 32.1052 46.087 31.8084 45.1777 31.3125C43.1621 30.1719 41.584 28.5938 40.4433 26.5782C39.8216 25.4933 39.2903 24.3683 38.8496 23.2032C36.8631 25.0181 34.6287 26.4712 32.1464 27.5625C28.6847 29.0217 25.1222 30.1622 21.4589 30.9844C21.4277 30.9844 21.3964 30.9844 21.3652 30.9844C20.2576 28.2163 19.8357 25.3413 20.0996 22.3594C20.7656 16.35 23.8437 12.1157 29.3339 9.65629C32.1265 8.62329 35.0015 8.10766 37.9589 8.10942C40.9253 7.66538 43.8003 7.99351 46.5839 9.09379C49.7616 10.5884 51.7772 13.0415 52.6308 16.4532C53.2088 18.9843 53.3963 21.5468 53.1933 24.1407C52.8328 27.834 52.1296 31.459 51.0839 35.0157Z" fill="#9D6B6B"/>
<path fill-rule="evenodd" clip-rule="evenodd" d="M48.0859 33.7031C46.8502 34.095 45.8033 34.7825 44.9453 35.7656C44.471 36.3964 44.0335 37.0526 43.6328 37.7344C43.1696 38.6923 42.6852 39.6298 42.1797 40.5469C40.7375 40.0938 39.4406 40.3437 38.2891 41.2969C37.8531 42.1215 38.0251 42.7933 38.8047 43.3125C39.0998 43.446 39.3811 43.5866 39.6484 43.7344C38.8558 43.7462 38.1058 43.5742 37.3984 43.2187C36.7458 42.4097 36.0583 41.6285 35.3359 40.875C33.3503 39.3866 31.1315 38.8867 28.6797 39.375C26.5957 39.9597 25.002 41.1785 23.8984 43.0312C23.2456 43.4624 22.5268 43.6968 21.7422 43.7344C21.5023 43.7627 21.2835 43.7314 21.0859 43.6406C21.9524 43.6375 22.593 43.2625 23.0078 42.5156C23.1022 42.0833 23.0397 41.677 22.8203 41.2969C22.4132 40.9298 21.96 40.6486 21.4609 40.4531C21.4609 40.1407 21.4609 39.8281 21.4609 39.5156C21.7027 39.5256 21.9214 39.463 22.1172 39.3281C22.8786 38.6468 23.2224 37.7875 23.1484 36.75C23.2553 35.6998 22.9116 34.8404 22.1172 34.1719C21.9214 34.037 21.7027 33.9744 21.4609 33.9844C21.4609 32.9843 21.4609 31.9844 21.4609 30.9844C25.1242 30.1622 28.6867 29.0216 32.1484 27.5625C34.6307 26.4712 36.8651 25.018 38.8516 23.2031C39.2923 24.3682 39.8236 25.4932 40.4453 26.5781C41.586 28.5937 43.1641 30.1718 45.1797 31.3125C46.089 31.8083 47.0577 32.1052 48.0859 32.2031C48.0859 32.7031 48.0859 33.2032 48.0859 33.7031Z" fill="#FEDCCD"/>
<path fill-rule="evenodd" clip-rule="evenodd" d="M21.3655 30.9844C21.3967 30.9844 21.428 30.9844 21.4592 30.9844C21.4592 31.9844 21.4592 32.9843 21.4592 33.9844C20.7728 34.2178 20.3196 34.6866 20.0998 35.3906C19.7127 36.6013 19.8377 37.7575 20.4748 38.8594C20.7197 39.208 21.0478 39.4268 21.4592 39.5156C21.4592 39.8281 21.4592 40.1407 21.4592 40.4531C20.602 40.299 19.7582 40.3302 18.928 40.5469C18.4225 39.6298 17.9381 38.6923 17.4748 37.7344C16.7637 36.36 15.7794 35.2193 14.5217 34.3125C14.0383 34.0629 13.5383 33.8598 13.0217 33.7031C12.9936 33.272 13.0248 32.8501 13.1155 32.4375C15.8864 32.0642 18.6364 31.5799 21.3655 30.9844Z" fill="#FECABD"/>
<path fill-rule="evenodd" clip-rule="evenodd" d="M13.0244 33.7031C13.5409 33.8598 14.0409 34.0629 14.5244 34.3125C15.782 35.2193 16.7664 36.36 17.4775 37.7344C17.9407 38.6923 18.4251 39.6298 18.9306 40.5469C19.279 41.3373 19.7009 42.0873 20.1962 42.7969C20.454 43.1303 20.7508 43.4116 21.0869 43.6406C21.2844 43.7314 21.5032 43.7627 21.7431 43.7344C21.8567 44.5287 22.0755 45.2943 22.3994 46.0312C28.2485 46.0323 34.0922 46.0948 39.9306 46.2188C40.4587 46.7332 40.3962 47.1707 39.7431 47.5312C34.2119 47.5625 28.6806 47.5938 23.1494 47.625C23.5524 48.2592 23.9899 48.8686 24.4619 49.4531C28.8756 49.5008 33.2819 49.579 37.6806 49.6875C38.0693 50.1211 38.0381 50.5274 37.5869 50.9062C33.7431 50.9375 29.8994 50.9688 26.0556 51C28.0737 52.681 30.3862 53.6654 32.9931 53.9531C30.0869 53.9531 27.1806 53.9531 24.2744 53.9531C20.6743 53.4293 17.7524 51.7418 15.5087 48.8906C15.4061 48.7427 15.328 48.5864 15.2744 48.4219C15.209 47.0892 15.5371 45.8705 16.2587 44.7656C17.0959 44.0162 18.0178 43.6412 19.0244 43.6406C18.5307 42.8716 18.0619 42.0903 17.6181 41.2969C16.9269 39.7166 16.0988 38.2166 15.1337 36.7969C14.8056 36.4688 14.4775 36.1406 14.1494 35.8125C13.8078 35.5635 13.4328 35.3917 13.0244 35.2969C12.7556 35.1706 12.5213 34.9831 12.3212 34.7344C12.2375 34.177 12.4718 33.8333 13.0244 33.7031Z" fill="#DDE9FA"/>
<path fill-rule="evenodd" clip-rule="evenodd" d="M48.0859 33.7031C48.3386 33.7437 48.5417 33.8687 48.6953 34.0781C48.932 34.6734 48.7289 35.0484 48.0859 35.2031C47.2596 35.5627 46.5565 36.0939 45.9766 36.7969C45.0115 38.2166 44.1834 39.7166 43.4922 41.2969C43.0484 42.0903 42.5796 42.8716 42.0859 43.6406C42.0234 43.6406 41.9922 43.6718 41.9922 43.7344C41.3359 43.7344 40.6797 43.7344 40.0234 43.7344C40.959 42.8281 41.6777 41.7655 42.1797 40.5469C42.6852 39.6298 43.1696 38.6923 43.6328 37.7344C44.0335 37.0526 44.471 36.3964 44.9453 35.7656C45.8033 34.7825 46.8502 34.095 48.0859 33.7031Z" fill="#DDE9F9"/>
<path fill-rule="evenodd" clip-rule="evenodd" d="M21.4617 33.9844C21.7034 33.9744 21.9222 34.037 22.1179 34.1719C21.061 35.3435 20.7954 36.6872 21.321 38.2031C21.501 38.6471 21.7666 39.0221 22.1179 39.3281C21.9222 39.463 21.7034 39.5255 21.4617 39.5156C21.0503 39.4267 20.7222 39.208 20.4773 38.8594C19.8402 37.7575 19.7152 36.6013 20.1023 35.3906C20.322 34.6865 20.7752 34.2178 21.4617 33.9844Z" fill="#3A607E"/>
<path fill-rule="evenodd" clip-rule="evenodd" d="M40.1193 34.1719C39.3479 34.8431 39.0041 35.7024 39.0881 36.75C39.0362 37.7843 39.3799 38.6436 40.1193 39.3281C39.7578 39.5598 39.3828 39.5754 38.9943 39.375C38.2101 38.6646 37.8351 37.774 37.8693 36.7031C37.8547 35.6675 38.2297 34.8081 38.9943 34.125C39.3828 33.9245 39.7578 33.9402 40.1193 34.1719Z" fill="#39607E"/>
<path fill-rule="evenodd" clip-rule="evenodd" d="M22.1135 34.1719C22.9079 34.8404 23.2516 35.6998 23.1447 36.75C23.2187 37.7875 22.8749 38.6468 22.1135 39.3281C21.7622 39.0221 21.4966 38.6471 21.3166 38.2031C20.7909 36.6872 21.0565 35.3435 22.1135 34.1719Z" fill="#417093"/>
<path fill-rule="evenodd" clip-rule="evenodd" d="M40.1139 34.1719C40.8939 34.827 41.2376 35.6708 41.1452 36.7031C41.1647 37.4687 40.9928 38.1874 40.6296 38.8594C40.4698 39.035 40.298 39.1912 40.1139 39.3281C39.3745 38.6437 39.0308 37.7843 39.0827 36.75C38.9987 35.7024 39.3425 34.8431 40.1139 34.1719Z" fill="#417093"/>
<path opacity="0.992" fill-rule="evenodd" clip-rule="evenodd" d="M10.4879 35.0156C11.7271 35.2079 12.5552 35.8954 12.9723 37.0781C13.0191 36.4852 13.0347 35.8915 13.0191 35.2969C13.4275 35.3917 13.8025 35.5635 14.1441 35.8125C14.4723 36.1406 14.8004 36.4688 15.1285 36.7969C16.0936 38.2166 16.9217 39.7166 17.6129 41.2969C17.1927 41.9795 17.2864 42.5889 17.8941 43.125C18.2358 43.374 18.6108 43.5459 19.0191 43.6406C18.0125 43.6412 17.0907 44.0162 16.2535 44.7656C15.5318 45.8705 15.2037 47.0892 15.2691 48.4219C14.2586 47.0872 13.6023 45.5872 13.3004 43.9219C10.0743 43.8363 8.15245 42.2112 7.53476 39.0469C7.39938 37.9839 7.58688 36.9838 8.09726 36.0469C8.73092 35.3318 9.5278 34.988 10.4879 35.0156Z" fill="#FECBBE"/>
<path opacity="0.983" fill-rule="evenodd" clip-rule="evenodd" d="M51.0859 35.0156C52.1946 35.1711 52.9603 35.7648 53.3828 36.7969C54.0448 40.0827 52.8416 42.3796 49.7734 43.6875C49.1289 43.864 48.4727 43.9421 47.8047 43.9219C48.0318 42.7156 48.1256 41.4968 48.0859 40.2656C48.5248 40.0625 48.8998 39.7657 49.2109 39.375C49.4144 39.2263 49.6332 39.1013 49.8672 39C50.3663 39.0137 50.8663 39.0137 51.3672 39C51.8184 38.6212 51.8496 38.2148 51.4609 37.7812C50.2097 37.2657 49.0848 37.4689 48.0859 38.3906C48.0859 37.9844 48.0859 37.5781 48.0859 37.1719C48.5804 35.7669 49.5803 35.0482 51.0859 35.0156Z" fill="#FECABD"/>
<path opacity="0.997" fill-rule="evenodd" clip-rule="evenodd" d="M48.0859 35.2031C48.0859 35.8594 48.0859 36.5156 48.0859 37.1719C48.0859 37.5781 48.0859 37.9844 48.0859 38.3906C48.0859 39.0157 48.0859 39.6406 48.0859 40.2656C48.1256 41.4968 48.0318 42.7156 47.8047 43.9219C47.4714 45.6501 46.7838 47.2126 45.7422 48.6094C45.8321 47.2611 45.5353 46.0111 44.8516 44.8594C44.0656 44.0711 43.1125 43.6961 41.9922 43.7344C41.9922 43.6718 42.0234 43.6406 42.0859 43.6406C43.018 43.4891 43.5805 42.9579 43.7734 42.0469C43.7314 41.7758 43.6377 41.5258 43.4922 41.2969C44.1834 39.7166 45.0115 38.2166 45.9766 36.7969C46.5565 36.0939 47.2596 35.5627 48.0859 35.2031Z" fill="#FEDDCE"/>
<path fill-rule="evenodd" clip-rule="evenodd" d="M10.1164 37.5469C11.2158 37.3556 12.1689 37.6368 12.9757 38.3907C13.0226 39.0149 13.0382 39.6399 13.0226 40.2657C12.924 40.2797 12.8302 40.2641 12.7414 40.2188C12.3591 39.7736 11.9216 39.3986 11.4289 39.0938C11.2185 39.0089 10.9997 38.962 10.7726 38.9532C10.4299 39.0269 10.0861 39.0425 9.74136 39.0001C9.17119 38.3352 9.29619 37.8508 10.1164 37.5469Z" fill="#EAAC9D"/>
<path fill-rule="evenodd" clip-rule="evenodd" d="M48.0859 40.2656C48.0859 39.6405 48.0859 39.0156 48.0859 38.3906C49.0848 37.4688 50.2098 37.2657 51.4609 37.7812C51.8496 38.2148 51.8184 38.6211 51.3672 39C50.8663 39.0136 50.3663 39.0136 49.8672 39C49.6332 39.1012 49.4144 39.2263 49.2109 39.375C48.8998 39.7656 48.5248 40.0624 48.0859 40.2656Z" fill="#EAAC9D"/>
<path opacity="0.999" fill-rule="evenodd" clip-rule="evenodd" d="M39.6484 43.7344C39.7734 43.7344 39.8985 43.7344 40.0234 43.7344C40.6797 43.7344 41.3359 43.7344 41.9922 43.7344C43.1125 43.6961 44.0656 44.0711 44.8516 44.8594C45.5353 46.0111 45.8321 47.2611 45.7422 48.6094C43.5508 51.6593 40.5821 53.4405 36.8359 53.9531C35.5547 53.9531 34.2735 53.9531 32.9922 53.9531C30.3853 53.6654 28.0728 52.681 26.0547 51C29.8984 50.9688 33.7422 50.9375 37.5859 50.9063C38.0372 50.5274 38.0684 50.1211 37.6797 49.6875C33.2809 49.579 28.8747 49.5008 24.4609 49.4531C23.989 48.8686 23.5515 48.2592 23.1484 47.625C28.6797 47.5938 34.2109 47.5625 39.7422 47.5313C40.3953 47.1707 40.4578 46.7332 39.9297 46.2188C34.0913 46.0948 28.2476 46.0323 22.3984 46.0313C22.0746 45.2943 21.8558 44.5287 21.7422 43.7344C22.5268 43.6968 23.2456 43.4624 23.8984 43.0313C25.002 41.1785 26.5957 39.9597 28.6797 39.375C31.1315 38.8867 33.3503 39.3866 35.3359 40.875C36.0583 41.6285 36.7458 42.4097 37.3984 43.2188C38.1058 43.5743 38.8558 43.7462 39.6484 43.7344Z" fill="#EBF3FE"/>
<path fill-rule="evenodd" clip-rule="evenodd" d="M21.4609 40.4531C21.96 40.6486 22.4132 40.9298 22.8203 41.2969C23.0397 41.677 23.1022 42.0833 23.0078 42.5156C22.593 43.2625 21.9524 43.6375 21.0859 43.6406C20.7498 43.4116 20.453 43.1303 20.1953 42.7969C19.6999 42.0873 19.2781 41.3373 18.9297 40.5469C19.7599 40.3302 20.6037 40.299 21.4609 40.4531Z" fill="#EAB1B7"/>
<path fill-rule="evenodd" clip-rule="evenodd" d="M42.1798 40.5469C41.6778 41.7655 40.9591 42.8281 40.0235 43.7344C39.8986 43.7344 39.7735 43.7344 39.6485 43.7344C39.3812 43.5866 39.0999 43.446 38.8048 43.3125C38.0252 42.7933 37.8532 42.1215 38.2892 41.2969C39.4407 40.3437 40.7376 40.0938 42.1798 40.5469Z" fill="#EAB1B7"/>
<path fill-rule="evenodd" clip-rule="evenodd" d="M17.617 41.2969C18.0608 42.0903 18.5296 42.8716 19.0233 43.6406C18.6149 43.5458 18.2399 43.374 17.8983 43.125C17.2906 42.5888 17.1968 41.9795 17.617 41.2969Z" fill="#EAB3B8"/>
<path fill-rule="evenodd" clip-rule="evenodd" d="M43.4922 41.2969C43.6377 41.5258 43.7314 41.7758 43.7734 42.0469C43.5805 42.9579 43.018 43.4891 42.0859 43.6406C42.5796 42.8716 43.0484 42.0903 43.4922 41.2969Z" fill="#EAB3B9"/>
<path fill-rule="evenodd" clip-rule="evenodd" d="M27.5492 42.6094C29.5494 42.5937 31.5494 42.6094 33.5492 42.6563C33.9921 42.8845 34.1327 43.244 33.9711 43.7344C33.8573 43.8796 33.7166 43.9889 33.5492 44.0625C31.5492 44.125 29.5492 44.125 27.5492 44.0625C27.1063 43.8342 26.9657 43.4748 27.1273 42.9844C27.2583 42.8372 27.3989 42.7121 27.5492 42.6094Z" fill="#DDEAFB"/>
<rect x="39.0391" y="6.75" width="14.5312" height="14.5312" rx="7.26562" fill="#23BFAE"/>
<path fill-rule="evenodd" clip-rule="evenodd" d="M49.2634 11.4336C49.4089 11.5445 49.4369 11.7523 49.3261 11.8978L45.793 16.535C45.7351 16.611 45.6471 16.6583 45.5518 16.6647C45.4564 16.6711 45.3629 16.636 45.2953 16.5685L43.308 14.5811C43.1786 14.4517 43.1786 14.242 43.308 14.1127C43.4373 13.9833 43.647 13.9833 43.7764 14.1127L45.4957 15.832L48.7991 11.4963C48.91 11.3508 49.1178 11.3227 49.2634 11.4336Z" fill="white"/>
</g>
<defs>
<clipPath id="clip0_2507_26390">
<rect width="48" height="48" fill="white" transform="translate(6.60156 6)"/>
</clipPath>
</defs>
</svg>
