<svg width="48" height="48" viewBox="0 0 48 48" fill="none" xmlns="http://www.w3.org/2000/svg">
<g clip-path="url(#clip0_535_61778)">
<path opacity="0.973" fill-rule="evenodd" clip-rule="evenodd" d="M21.6094 -0.046875C22.1093 -0.046875 22.6094 -0.046875 23.1094 -0.046875C24.5883 0.401493 25.3695 1.4015 25.4531 2.95312C24.9532 3.07812 24.4531 3.07812 23.9531 2.95312C23.8472 2.0035 23.316 1.50351 22.3594 1.45312C21.4657 1.56541 20.9346 2.06542 20.7656 2.95312C20.2657 3.07812 19.7656 3.07812 19.2656 2.95312C19.375 1.41937 20.1562 0.419375 21.6094 -0.046875ZM23.9531 2.95312C22.8907 2.95312 21.8281 2.95312 20.7656 2.95312C20.9346 2.06542 21.4657 1.56541 22.3594 1.45312C23.316 1.50351 23.8472 2.0035 23.9531 2.95312Z" fill="#E7F7F6"/>
<path opacity="0.999" fill-rule="evenodd" clip-rule="evenodd" d="M19.2675 2.95312C19.7675 3.07812 20.2676 3.07812 20.7675 2.95312C21.83 2.95312 22.8926 2.95312 23.955 2.95312C24.455 3.07812 24.9551 3.07812 25.455 2.95312C25.8926 2.95312 26.33 2.95312 26.7675 2.95312C26.9316 3.04436 27.0722 3.16936 27.1894 3.32812C27.2519 5.23437 27.2519 7.14062 27.1894 9.04687C27.0914 9.12875 27.0134 9.2225 26.955 9.32812C25.6738 9.32812 24.3926 9.32812 23.1113 9.32812C23.1269 8.73355 23.1113 8.1398 23.0644 7.54687C22.7913 7.06036 22.4007 6.95099 21.8925 7.21875C21.8339 7.2891 21.787 7.36723 21.7519 7.45312C21.705 8.07734 21.6895 8.70234 21.705 9.32812C19.6736 9.34374 17.6423 9.32812 15.6113 9.28125C15.4979 9.18383 15.4041 9.07445 15.33 8.95312C15.33 8.54687 15.33 8.14062 15.33 7.73437C15.3592 6.66428 15.3279 5.60178 15.2363 4.54687C15.2207 4.13942 15.2364 3.73318 15.2832 3.32812C15.397 3.18292 15.5376 3.07354 15.705 3C16.8921 2.95313 18.0796 2.9375 19.2675 2.95312Z" fill="#FFD600"/>
<path fill-rule="evenodd" clip-rule="evenodd" d="M26.7656 2.95311C27.6171 2.91433 28.4608 2.9612 29.2969 3.09374C29.3438 3.14061 29.3906 3.18749 29.4375 3.23436C29.4843 3.67075 29.4999 4.10825 29.4844 4.54686C29.4844 5.60936 29.4844 6.67186 29.4844 7.73436C29.4999 8.14181 29.4843 8.54806 29.4375 8.95311C29.3939 9.08725 29.3157 9.19663 29.2031 9.28124C28.4538 9.32808 27.7038 9.34371 26.9531 9.32811C27.0114 9.22249 27.0895 9.12874 27.1875 9.04686C27.25 7.14062 27.25 5.23436 27.1875 3.32811C27.0703 3.16935 26.9297 3.04435 26.7656 2.95311Z" fill="#CCAB00"/>
<path opacity="0.994" fill-rule="evenodd" clip-rule="evenodd" d="M15.2344 4.54687C15.326 5.60178 15.3573 6.66428 15.3281 7.73437C13.062 7.70335 10.812 7.7346 8.57813 7.82812C8.39898 7.83509 8.2896 7.92884 8.25 8.10937C8.1875 20.2343 8.1875 32.3594 8.25 44.4844C8.32812 44.5625 8.40626 44.6407 8.48438 44.7187C16.9843 44.7656 25.4843 44.7813 33.9844 44.7656C34.7663 44.7812 35.5475 44.7656 36.3281 44.7187C36.4407 44.6341 36.5189 44.5248 36.5625 44.3906C36.6094 37.8907 36.625 31.3907 36.6094 24.8906C36.8594 24.5782 37.1407 24.2969 37.4531 24.0469C37.4688 31.6407 37.4531 39.2345 37.4063 46.8281C37.305 47.0621 37.1799 47.2809 37.0313 47.4844C36.7988 47.6544 36.5645 47.8107 36.3281 47.9531C26.2343 47.9531 16.1407 47.9531 6.04688 47.9531C5.61156 47.7207 5.28343 47.377 5.0625 46.9219C5 33.1718 5 19.4219 5.0625 5.67187C5.24653 5.08771 5.63715 4.72833 6.23438 4.59375C9.23422 4.54687 12.2342 4.53125 15.2344 4.54687Z" fill="#DDE851"/>
<path opacity="0.986" fill-rule="evenodd" clip-rule="evenodd" d="M29.4844 4.54688C31.6718 4.54688 33.8594 4.54688 36.0469 4.54688C36.7157 4.7032 37.1689 5.10945 37.4063 5.76562C37.4531 8.82797 37.4688 11.8905 37.4531 14.9531C37.2031 15.2656 36.9218 15.5468 36.6094 15.7969C36.625 13.2654 36.6094 10.7342 36.5625 8.20312C36.4889 8.03569 36.3796 7.89506 36.2344 7.78125C35.4537 7.7344 34.6725 7.71878 33.8906 7.73438C32.4218 7.73438 30.9532 7.73438 29.4844 7.73438C29.4844 6.67188 29.4844 5.60937 29.4844 4.54688Z" fill="#DDE851"/>
<path d="M37.9847 14.4491L37.5005 14.8526C37.5153 11.8233 37.4995 8.79398 37.4531 5.76489L37.453 5.75705L37.4503 5.74967C37.2437 5.17835 36.8753 4.79067 36.3477 4.58939C37.0582 4.58248 37.7683 4.59945 38.4779 4.64031C39.021 4.76223 39.397 5.07724 39.6098 5.58851C39.7461 8.43179 39.7932 11.2797 39.7511 14.1321C39.4377 14.0016 39.1367 13.9577 38.8489 14.0032C38.5416 14.0517 38.2535 14.2015 37.9847 14.4491Z" fill="#B1BA41" stroke="#B1BA41" stroke-width="0.09375"/>
<path fill-rule="evenodd" clip-rule="evenodd" d="M23.1113 9.32812C22.6426 9.32812 22.1738 9.32812 21.7051 9.32812C21.6895 8.70234 21.7051 8.07734 21.7519 7.45312C21.787 7.36723 21.8339 7.2891 21.8926 7.21875C22.4007 6.95099 22.7913 7.06037 23.0644 7.54687C23.1113 8.13981 23.1269 8.73355 23.1113 9.32812Z" fill="#FFB629"/>
<path fill-rule="evenodd" clip-rule="evenodd" d="M8.57812 7.82824C10.812 7.73472 13.062 7.70347 15.3281 7.73449C15.3281 8.14074 15.3281 8.54699 15.3281 8.95324C15.236 8.59714 15.2047 8.22214 15.2344 7.82824C13.0156 7.82824 10.7969 7.82824 8.57812 7.82824Z" fill="#F5EBD5"/>
<path fill-rule="evenodd" clip-rule="evenodd" d="M29.4844 7.73438C30.9532 7.73438 32.4218 7.73438 33.8906 7.73438C34.0448 7.81091 34.1541 7.93592 34.2188 8.10938C34.2656 11.453 34.2813 14.7968 34.2656 18.1406C31.0469 21.4219 27.7969 24.6719 24.5156 27.8906C24.4366 27.7338 24.3116 27.6244 24.1406 27.5625C22.4219 27.5 20.7031 27.5 18.9844 27.5625C18.5218 27.8123 18.4124 28.1717 18.6563 28.6406C18.7621 28.7945 18.9027 28.8882 19.0781 28.9219C20.5781 28.9844 22.0781 29.0468 23.5781 29.1094C23.4848 30.2177 23.4536 31.3427 23.4844 32.4844C23.0156 32.9219 22.5469 33.3593 22.0781 33.7969C21.0776 33.7812 20.0776 33.7969 19.0781 33.8438C18.5203 34.076 18.3797 34.4665 18.6563 35.0156C18.7409 35.1282 18.8502 35.2064 18.9844 35.25C20.0464 35.2969 21.1089 35.3125 22.1719 35.2969C22.4052 35.3158 22.624 35.2689 22.8281 35.1562C23.4097 34.5905 23.9722 34.0123 24.5156 33.4219C25.6406 33.4219 26.7656 33.4219 27.8906 33.4219C29.9843 31.3594 32.0782 29.2969 34.1719 27.2344C34.2811 32.9686 34.2968 38.7187 34.2188 44.4844C34.1208 44.5662 34.0427 44.66 33.9844 44.7656C25.4843 44.7813 16.9843 44.7656 8.48438 44.7188C8.40626 44.6407 8.32812 44.5625 8.25 44.4844C8.1875 32.3594 8.1875 20.2343 8.25 8.10938C8.2896 7.92884 8.39898 7.83509 8.57813 7.82812C10.7969 7.82812 13.0156 7.82812 15.2344 7.82812C15.2047 8.22203 15.236 8.59703 15.3281 8.95312C15.4022 9.07446 15.4959 9.18383 15.6094 9.28125C17.6404 9.32812 19.6717 9.34374 21.7031 9.32812C22.1719 9.32812 22.6406 9.32812 23.1094 9.32812C24.3907 9.32812 25.6718 9.32812 26.9531 9.32812C27.7038 9.34372 28.4538 9.3281 29.2031 9.28125C29.3157 9.19664 29.3939 9.08726 29.4375 8.95312C29.4843 8.54807 29.4999 8.14182 29.4844 7.73438Z" fill="#EFFAF9"/>
<path fill-rule="evenodd" clip-rule="evenodd" d="M33.8906 7.73436C34.6725 7.71876 35.4537 7.73439 36.2344 7.78124C36.3796 7.89505 36.4889 8.03567 36.5625 8.20311C36.6094 10.7342 36.625 13.2654 36.6094 15.7969C36.2904 16.1151 36.0092 16.4589 35.7656 16.8281C35.2397 17.2286 34.7397 17.666 34.2656 18.1406C34.2813 14.7967 34.2656 11.453 34.2187 8.10936C34.1541 7.9359 34.0447 7.8109 33.8906 7.73436Z" fill="#CDEFEC"/>
<path fill-rule="evenodd" clip-rule="evenodd" d="M39.7969 14.2031C40.7906 15.056 41.7438 15.9623 42.6563 16.9219C42.9687 17.5469 42.9687 18.1719 42.6563 18.7969C41.8404 19.6284 41.0123 20.4409 40.1719 21.2344C39.8308 20.8618 39.487 20.4868 39.1406 20.1094C39.5435 19.6596 39.9653 19.2221 40.4063 18.7969C40.7187 18.1719 40.7187 17.5469 40.4063 16.9219C39.5904 16.1217 38.7936 15.3092 38.0156 14.4844C38.5427 13.9983 39.1365 13.9046 39.7969 14.2031Z" fill="#B9284B"/>
<path fill-rule="evenodd" clip-rule="evenodd" d="M38.0156 14.4844C38.7936 15.3092 39.5904 16.1217 40.4063 16.9219C40.7187 17.5469 40.7187 18.1718 40.4063 18.7969C39.9653 19.222 39.5435 19.6596 39.1406 20.1094C39.1094 20.1094 39.0781 20.1094 39.0469 20.1094C38.8906 19.8907 38.7031 19.7032 38.4844 19.5469C38.1719 19.1719 37.8281 18.8281 37.4531 18.5156C36.9218 17.9219 36.3593 17.3594 35.7656 16.8281C36.0092 16.4589 36.2904 16.1152 36.6094 15.7969C36.9218 15.5468 37.2031 15.2656 37.4531 14.9531C37.6406 14.7968 37.8281 14.6407 38.0156 14.4844Z" fill="#F63564"/>
<path fill-rule="evenodd" clip-rule="evenodd" d="M12.6129 14.9531C13.8632 14.9375 15.1133 14.9531 16.3629 15C16.5552 15.0872 16.6959 15.2278 16.7847 15.4219C16.8473 16.6094 16.8473 17.7969 16.7847 18.9844C16.7112 19.1518 16.6018 19.2925 16.4566 19.4063C15.2155 19.559 13.9655 19.5902 12.7066 19.5C12.5725 19.4564 12.4632 19.3782 12.3785 19.2656C12.2256 17.962 12.1944 16.6495 12.2847 15.3281C12.3494 15.1547 12.4587 15.0296 12.6129 14.9531Z" fill="#2B5B58"/>
<path fill-rule="evenodd" clip-rule="evenodd" d="M18.8949 14.9531C20.1765 14.9375 21.4577 14.9531 22.7386 15C23.2601 15.484 23.2289 15.9215 22.6449 16.3125C21.4261 16.375 20.2074 16.375 18.9886 16.3125C18.4066 15.8981 18.3753 15.445 18.8949 14.9531Z" fill="#5FCAC3"/>
<path fill-rule="evenodd" clip-rule="evenodd" d="M13.6406 16.3594C14.2031 16.3594 14.7656 16.3594 15.3281 16.3594C15.3281 16.9219 15.3281 17.4844 15.3281 18.0469C14.7656 18.0469 14.2031 18.0469 13.6406 18.0469C13.6406 17.4844 13.6406 16.9219 13.6406 16.3594Z" fill="#F1FDFE"/>
<path fill-rule="evenodd" clip-rule="evenodd" d="M35.7656 16.8281C36.3593 17.3594 36.9218 17.9219 37.4531 18.5156C33.3593 22.5469 29.2969 26.6093 25.2656 30.7031C24.7031 30.1718 24.1406 29.6407 23.5781 29.1094C22.0781 29.0468 20.5781 28.9844 19.0781 28.9219C20.5784 28.9375 22.0784 28.9219 23.5781 28.875C23.9097 28.5592 24.2223 28.231 24.5156 27.8906C27.7969 24.6719 31.0469 21.4219 34.2656 18.1406C34.7397 17.6661 35.2397 17.2286 35.7656 16.8281Z" fill="#87DBFE"/>
<path fill-rule="evenodd" clip-rule="evenodd" d="M18.9882 18.0469C20.7072 18.0312 22.426 18.0469 24.1444 18.0938C24.5873 18.322 24.7279 18.6815 24.5663 19.1719C24.4525 19.3171 24.3118 19.4264 24.1444 19.5C22.4257 19.5625 20.7069 19.5625 18.9882 19.5C18.5161 19.2175 18.4067 18.8269 18.66 18.3281C18.8023 18.266 18.9117 18.1722 18.9882 18.0469Z" fill="#2B5B58"/>
<path fill-rule="evenodd" clip-rule="evenodd" d="M26.8585 18.0469C28.0464 18.0312 29.234 18.0469 30.421 18.0938C31.161 18.5541 31.161 19.0228 30.421 19.5C29.2335 19.5625 28.0461 19.5625 26.8585 19.5C26.2399 19.0114 26.2399 18.527 26.8585 18.0469Z" fill="#2B5B58"/>
<path fill-rule="evenodd" clip-rule="evenodd" d="M37.4531 18.5156C37.8281 18.8281 38.1719 19.1719 38.4844 19.5469C34.4408 23.5436 30.4095 27.5592 26.3906 31.5938C26.3349 31.6372 26.2724 31.6529 26.2031 31.6406C25.8593 31.3594 25.5469 31.0469 25.2656 30.7031C29.2969 26.6093 33.3593 22.5469 37.4531 18.5156Z" fill="#56B6B0"/>
<path fill-rule="evenodd" clip-rule="evenodd" d="M38.4844 19.5469C38.7031 19.7032 38.8906 19.8907 39.0469 20.1094C35.0156 24.2032 30.9532 28.2656 26.8594 32.2969C26.6093 32.1094 26.3906 31.8907 26.2031 31.6406C26.2724 31.6529 26.3349 31.6372 26.3906 31.5938C30.4095 27.5592 34.4408 23.5436 38.4844 19.5469Z" fill="#86DBFE"/>
<path fill-rule="evenodd" clip-rule="evenodd" d="M39.0469 20.1094C39.0781 20.1094 39.1094 20.1094 39.1406 20.1094C39.487 20.4868 39.8308 20.8618 40.1719 21.2344C40.0469 21.3907 39.9218 21.5468 39.7969 21.7031C38.9843 22.4531 38.2031 23.2343 37.4531 24.0469C37.1407 24.2969 36.8594 24.5782 36.6094 24.8906C35.7395 25.6042 34.9269 26.3855 34.1719 27.2344C32.0782 29.2969 29.9843 31.3594 27.8906 33.4219C27.5468 33.0469 27.2032 32.6719 26.8594 32.2969C30.9532 28.2656 35.0156 24.2032 39.0469 20.1094Z" fill="#56B6B0"/>
<path d="M36.4975 47.9062H36.4938C36.6835 47.7871 36.8719 47.6591 37.0589 47.5222L37.0648 47.5179L37.0691 47.512C37.2199 47.3058 37.3467 47.0839 37.4493 46.8467L37.4531 46.838L37.4531 46.8284C37.5 39.2408 37.5156 31.653 37.5 24.0652C38.2212 23.2846 38.9712 22.5329 39.7502 21.8102C39.7655 30.0547 39.7498 38.2992 39.7031 46.5436C39.6134 47.2101 39.2675 47.6622 38.6628 47.9062H38.6627H38.6581H38.6536H38.649H38.6444H38.6398H38.6353H38.6307H38.6261H38.6215H38.6169H38.6124H38.6078H38.6032H38.5986H38.5941H38.5895H38.5849H38.5803H38.5757H38.5712H38.5666H38.562H38.5574H38.5529H38.5483H38.5437H38.5391H38.5346H38.53H38.5254H38.5208H38.5162H38.5117H38.5071H38.5025H38.4979H38.4934H38.4888H38.4842H38.4796H38.475H38.4705H38.4659H38.4613H38.4567H38.4522H38.4476H38.443H38.4384H38.4338H38.4293H38.4247H38.4201H38.4155H38.411H38.4064H38.4018H38.3972H38.3926H38.3881H38.3835H38.3789H38.3743H38.3698H38.3652H38.3606H38.356H38.3514H38.3469H38.3423H38.3377H38.3331H38.3286H38.324H38.3194H38.3148H38.3103H38.3057H38.3011H38.2965H38.2919H38.2874H38.2828H38.2782H38.2736H38.2691H38.2645H38.2599H38.2553H38.2507H38.2462H38.2416H38.237H38.2324H38.2279H38.2233H38.2187H38.2141H38.2095H38.205H38.2004H38.1958H38.1912H38.1867H38.1821H38.1775H38.1729H38.1683H38.1638H38.1592H38.1546H38.15H38.1455H38.1409H38.1363H38.1317H38.1271H38.1226H38.118H38.1134H38.1088H38.1043H38.0997H38.0951H38.0905H38.0859H38.0814H38.0768H38.0722H38.0676H38.0631H38.0585H38.0539H38.0493H38.0447H38.0402H38.0356H38.031H38.0264H38.0219H38.0173H38.0127H38.0081H38.0035H37.999H37.9944H37.9898H37.9852H37.9807H37.9761H37.9715H37.9669H37.9623H37.9578H37.9532H37.9486H37.944H37.9395H37.9349H37.9303H37.9257H37.9211H37.9166H37.912H37.9074H37.9028H37.8983H37.8937H37.8891H37.8845H37.88H37.8754H37.8708H37.8662H37.8616H37.8571H37.8525H37.8479H37.8433H37.8388H37.8342H37.8296H37.825H37.8204H37.8159H37.8113H37.8067H37.8021H37.7976H37.793H37.7884H37.7838H37.7792H37.7747H37.7701H37.7655H37.7609H37.7564H37.7518H37.7472H37.7426H37.738H37.7335H37.7289H37.7243H37.7197H37.7152H37.7106H37.706H37.7014H37.6968H37.6923H37.6877H37.6831H37.6785H37.674H37.6694H37.6648H37.6602H37.6556H37.6511H37.6465H37.6419H37.6373H37.6328H37.6282H37.6236H37.619H37.6144H37.6099H37.6053H37.6007H37.5961H37.5916H37.587H37.5824H37.5778H37.5732H37.5687H37.5641H37.5595H37.5549H37.5504H37.5458H37.5412H37.5366H37.532H37.5275H37.5229H37.5183H37.5137H37.5092H37.5046H37.5H37.4954H37.4908H37.4863H37.4817H37.4771H37.4725H37.468H37.4634H37.4588H37.4542H37.4496H37.4451H37.4405H37.4359H37.4313H37.4268H37.4222H37.4176H37.413H37.4084H37.4039H37.3993H37.3947H37.3901H37.3856H37.381H37.3764H37.3718H37.3672H37.3627H37.3581H37.3535H37.3489H37.3444H37.3398H37.3352H37.3306H37.326H37.3215H37.3169H37.3123H37.3077H37.3032H37.2986H37.294H37.2894H37.2848H37.2803H37.2757H37.2711H37.2665H37.262H37.2574H37.2528H37.2482H37.2436H37.2391H37.2345H37.2299H37.2253H37.2208H37.2162H37.2116H37.207H37.2024H37.1979H37.1933H37.1887H37.1841H37.1796H37.175H37.1704H37.1658H37.1612H37.1567H37.1521H37.1475H37.1429H37.1384H37.1338H37.1292H37.1246H37.12H37.1155H37.1109H37.1063H37.1017H37.0972H37.0926H37.088H37.0834H37.0789H37.0743H37.0697H37.0651H37.0605H37.056H37.0514H37.0468H37.0422H37.0377H37.0331H37.0285H37.0239H37.0193H37.0148H37.0102H37.0056H37.001H36.9965H36.9919H36.9873H36.9827H36.9781H36.9736H36.969H36.9644H36.9598H36.9553H36.9507H36.9461H36.9415H36.9369H36.9324H36.9278H36.9232H36.9186H36.9141H36.9095H36.9049H36.9003H36.8957H36.8912H36.8866H36.882H36.8774H36.8729H36.8683H36.8637H36.8591H36.8545H36.85H36.8454H36.8408H36.8362H36.8317H36.8271H36.8225H36.8179H36.8133H36.8088H36.8042H36.7996H36.795H36.7905H36.7859H36.7813H36.7767H36.7721H36.7676H36.763H36.7584H36.7538H36.7493H36.7447H36.7401H36.7355H36.7309H36.7264H36.7218H36.7172H36.7126H36.7081H36.7035H36.6989H36.6943H36.6897H36.6852H36.6806H36.676H36.6714H36.6669H36.6623H36.6577H36.6531H36.6486H36.644H36.6394H36.6348H36.6302H36.6257H36.6211H36.6165H36.6119H36.6074H36.6028H36.5982H36.5936H36.589H36.5845H36.5799H36.5753H36.5707H36.5662H36.5616H36.557H36.5524H36.5478H36.5433H36.5387H36.5341H36.5295H36.525H36.5204H36.5158H36.5112H36.5066H36.5021H36.4975Z" fill="#B1BA41" stroke="#B1BA41" stroke-width="0.09375"/>
<path fill-rule="evenodd" clip-rule="evenodd" d="M12.6129 24.4219C13.8632 24.4062 15.1133 24.4219 16.3629 24.4688C16.497 24.5124 16.6063 24.5905 16.691 24.7031C16.8437 25.9443 16.8749 27.1943 16.7847 28.4531C16.7412 28.5873 16.663 28.6966 16.5504 28.7813C15.8723 28.8875 15.1848 28.9344 14.4879 28.9219C13.8628 28.9062 13.2379 28.8907 12.6129 28.875C12.527 28.84 12.4488 28.7931 12.3785 28.7344C12.2256 27.4307 12.1944 26.1182 12.2847 24.7969C12.3494 24.6235 12.4587 24.4984 12.6129 24.4219Z" fill="#2B5B58"/>
<path fill-rule="evenodd" clip-rule="evenodd" d="M18.8949 24.4219C20.1765 24.4062 21.4577 24.4219 22.7386 24.4688C23.2613 24.9483 23.2301 25.3857 22.6449 25.7813C21.4261 25.8438 20.2074 25.8438 18.9886 25.7813C18.4066 25.3669 18.3753 24.9138 18.8949 24.4219Z" fill="#5FCAC3"/>
<path fill-rule="evenodd" clip-rule="evenodd" d="M36.6094 24.8906C36.625 31.3907 36.6094 37.8907 36.5625 44.3906C36.5189 44.5248 36.4407 44.6341 36.3281 44.7188C35.5475 44.7656 34.7662 44.7812 33.9844 44.7656C34.0427 44.66 34.1208 44.5662 34.2187 44.4844C34.2967 38.7187 34.2811 32.9686 34.1719 27.2344C34.9269 26.3855 35.7395 25.6042 36.6094 24.8906Z" fill="#CDEFEC"/>
<path fill-rule="evenodd" clip-rule="evenodd" d="M13.6406 25.8281C14.2031 25.8281 14.7656 25.8281 15.3281 25.8281C15.3281 26.3906 15.3281 26.9531 15.3281 27.5156C14.7656 27.5156 14.2031 27.5156 13.6406 27.5156C13.6406 26.9531 13.6406 26.3906 13.6406 25.8281Z" fill="#F1FDFE"/>
<path fill-rule="evenodd" clip-rule="evenodd" d="M24.5169 27.8906C24.2235 28.2311 23.911 28.5592 23.5794 28.875C22.0797 28.9219 20.5797 28.9376 19.0794 28.9219C18.904 28.8882 18.7633 28.7945 18.6575 28.6406C18.4137 28.1717 18.5231 27.8124 18.9856 27.5625C20.7043 27.5 22.4232 27.5 24.1419 27.5625C24.3129 27.6244 24.4378 27.7338 24.5169 27.8906Z" fill="#2B5B58"/>
<path fill-rule="evenodd" clip-rule="evenodd" d="M23.5818 29.1094C24.1443 29.6407 24.7068 30.1718 25.2693 30.7031C25.5505 31.0469 25.863 31.3594 26.2068 31.6406C26.3943 31.8907 26.613 32.1094 26.863 32.2969C27.2068 32.6719 27.5505 33.0469 27.8943 33.4219C26.7693 33.4219 25.6443 33.4219 24.5193 33.4219C23.7586 33.5674 23.4148 33.2549 23.488 32.4844C23.4573 31.3427 23.4885 30.2177 23.5818 29.1094Z" fill="#F4F8C9"/>
<path fill-rule="evenodd" clip-rule="evenodd" d="M23.4851 32.4844C23.4119 33.2549 23.7557 33.5674 24.5164 33.4219C23.9729 34.0123 23.4104 34.5905 22.8289 35.1562C22.6248 35.2689 22.406 35.3158 22.1726 35.2969C21.5848 34.8417 21.5536 34.3417 22.0789 33.7969C22.5476 33.3593 23.0164 32.9219 23.4851 32.4844Z" fill="#5FCAC3"/>
<path fill-rule="evenodd" clip-rule="evenodd" d="M12.6129 33.8906C13.8945 33.875 15.1757 33.8906 16.4566 33.9375C16.5347 34.0156 16.6129 34.0938 16.691 34.1719C16.8436 35.3817 16.8748 36.6005 16.7847 37.8281C16.7185 37.9764 16.6404 38.117 16.5504 38.25C15.8723 38.3562 15.1848 38.4031 14.4879 38.3906C13.8628 38.375 13.2379 38.3594 12.6129 38.3438C12.527 38.3087 12.4488 38.2618 12.3785 38.2031C12.2256 36.8995 12.1944 35.587 12.2847 34.2656C12.3494 34.0922 12.4587 33.9671 12.6129 33.8906Z" fill="#2B5B58"/>
<path fill-rule="evenodd" clip-rule="evenodd" d="M22.0789 33.7969C21.5536 34.3417 21.5848 34.8417 22.1727 35.2969C21.1097 35.3125 20.0472 35.2969 18.9852 35.25C18.851 35.2064 18.7417 35.1282 18.657 35.0156C18.3805 34.4665 18.5211 34.076 19.0789 33.8438C20.0784 33.7969 21.0784 33.7812 22.0789 33.7969Z" fill="#5FCAC3"/>
<path fill-rule="evenodd" clip-rule="evenodd" d="M13.6406 35.2969C14.2031 35.2969 14.7656 35.2969 15.3281 35.2969C15.3281 35.8594 15.3281 36.4219 15.3281 36.9844C14.7656 36.9844 14.2031 36.9844 13.6406 36.9844C13.6406 36.4219 13.6406 35.8594 13.6406 35.2969Z" fill="#F1FDFE"/>
<path fill-rule="evenodd" clip-rule="evenodd" d="M18.9855 36.9844C20.7045 36.9687 22.4233 36.9844 24.1418 37.0313C24.5846 37.2595 24.7253 37.619 24.5636 38.1094C24.479 38.222 24.3697 38.3002 24.2355 38.3438C22.4543 38.4063 20.673 38.4063 18.8918 38.3438C18.3764 37.8453 18.4076 37.3922 18.9855 36.9844Z" fill="#2B5B58"/>
<path fill-rule="evenodd" clip-rule="evenodd" d="M26.8605 36.9844C28.0796 36.9687 29.2984 36.9844 30.5168 37.0313C31.1007 37.4223 31.132 37.8597 30.6105 38.3438C29.3292 38.4063 28.048 38.4063 26.7668 38.3438C26.2514 37.8453 26.2826 37.3922 26.8605 36.9844Z" fill="#2B5B58"/>
</g>
<defs>
<clipPath id="clip0_535_61778">
<rect width="48" height="48" fill="white"/>
</clipPath>
</defs>
</svg>
