<svg width="16" height="16" viewBox="0 0 16 16" fill="none" xmlns="http://www.w3.org/2000/svg">
<path d="M4.34801 11.1333L5.35744 8.60975C5.51839 8.20738 5.75939 7.8419 6.06582 7.53546L11.6012 2.00047C12.2639 1.33773 13.3384 1.33773 14.0012 2.00048C14.6639 2.66322 14.6639 3.73773 14.0012 4.40047L8.46582 9.93546C8.15939 10.2419 7.7939 10.4829 7.39153 10.6438L4.86796 11.6533C4.54143 11.7839 4.2174 11.4598 4.34801 11.1333Z" fill="#5497F6"/>
<path d="M2.80156 4.5999C2.80156 4.04762 3.24928 3.5999 3.80156 3.5999H8.00156C8.33293 3.5999 8.60156 3.33127 8.60156 2.9999C8.60156 2.66853 8.33293 2.3999 8.00156 2.3999H3.80156C2.58654 2.3999 1.60156 3.38488 1.60156 4.5999V12.1999C1.60156 13.4149 2.58654 14.3999 3.80156 14.3999H11.4016C12.6166 14.3999 13.6016 13.4149 13.6016 12.1999V7.9999C13.6016 7.66853 13.3329 7.3999 13.0016 7.3999C12.6702 7.3999 12.4016 7.66853 12.4016 7.9999V12.1999C12.4016 12.7522 11.9538 13.1999 11.4016 13.1999H3.80156C3.24928 13.1999 2.80156 12.7522 2.80156 12.1999V4.5999Z" fill="#5497F6"/>
</svg>
