<svg width="80" height="81" viewBox="0 0 80 81" fill="none" xmlns="http://www.w3.org/2000/svg">
<path fill-rule="evenodd" clip-rule="evenodd" d="M40 72.5005C57.6731 72.5005 72 58.1736 72 40.5005C72 22.8274 57.6731 8.50049 40 8.50049C22.3269 8.50049 8 22.8274 8 40.5005C8 58.1736 22.3269 72.5005 40 72.5005ZM33.1213 29.3792C31.9497 28.2076 30.0503 28.2076 28.8787 29.3792C27.7071 30.5507 27.7071 32.4502 28.8787 33.6218L35.7574 40.5005L28.8787 47.3792C27.7071 48.5507 27.7071 50.4502 28.8787 51.6218C30.0503 52.7934 31.9497 52.7934 33.1213 51.6218L40 44.7431L46.8787 51.6218C48.0503 52.7934 49.9497 52.7934 51.1213 51.6218C52.2929 50.4502 52.2929 48.5507 51.1213 47.3792L44.2426 40.5005L51.1213 33.6218C52.2929 32.4502 52.2929 30.5507 51.1213 29.3792C49.9497 28.2076 48.0503 28.2076 46.8787 29.3792L40 36.2578L33.1213 29.3792Z" fill="#F63564"/>
</svg>
