<svg width="51" height="50" viewBox="0 0 51 50" fill="none" xmlns="http://www.w3.org/2000/svg">
<circle cx="25.499" cy="24.9999" r="23.5849" fill="#DDE851"/>
<g clip-path="url(#clip0_556_53475)">
<path opacity="0.999" fill-rule="evenodd" clip-rule="evenodd" d="M8.05663 1.95801C16.0911 1.95801 24.1255 1.95801 32.16 1.95801C33.3083 2.22377 34.0782 2.92363 34.4695 4.05762C34.5256 8.70475 34.5256 13.3519 34.4695 17.999C34.3532 18.2414 34.1713 18.4094 33.9237 18.5029C33.9377 14.0517 33.9237 9.6005 33.8817 5.14941C33.7837 5.05143 33.6857 4.95345 33.5877 4.85547C25.4761 4.7159 17.3577 4.68791 9.2324 4.77148C9.08241 4.83737 8.95643 4.93535 8.85447 5.06543C8.71478 17.2644 8.68678 29.4701 8.77049 41.6826C8.86847 41.8926 9.02244 42.0465 9.2324 42.1445C11.8917 42.1865 14.5513 42.2006 17.2109 42.1865C18.9745 42.1865 20.7382 42.1865 22.5018 42.1865C22.9145 42.4627 23.3625 42.6727 23.8456 42.8164C23.9155 42.8864 23.9856 42.9564 24.0555 43.0264C24.121 43.7 24.275 44.3439 24.5175 44.958C19.0305 44.958 13.5436 44.958 8.05663 44.958C6.99283 44.6221 6.29297 43.9222 5.95703 42.8584C5.95703 29.9248 5.95703 16.9912 5.95703 4.05762C6.29297 2.99381 6.99283 2.29395 8.05663 1.95801Z" fill="#5FCAC3"/>
<path fill-rule="evenodd" clip-rule="evenodd" d="M32.1602 1.95801C32.972 1.95801 33.7838 1.95801 34.5957 1.95801C35.7968 2.33376 36.5107 3.14561 36.7373 4.39355C36.7793 9.74049 36.7933 15.0875 36.7793 20.4346C35.8318 20.4848 34.88 20.5967 33.9238 20.7705C33.9238 20.0147 33.9238 19.2588 33.9238 18.5029C34.1715 18.4094 34.3534 18.2414 34.4697 17.999C34.5257 13.3519 34.5257 8.70475 34.4697 4.05762C34.0783 2.92364 33.3085 2.22377 32.1602 1.95801Z" fill="#479892"/>
<path fill-rule="evenodd" clip-rule="evenodd" d="M33.9229 18.503C33.1907 18.6299 32.4768 18.8258 31.7813 19.0909C31.7478 19.0717 31.7338 19.0437 31.7393 19.0069C31.8357 18.5921 31.6957 18.2982 31.3194 18.1251C26.5323 18.0691 21.7452 18.0691 16.9581 18.1251C16.5223 18.3697 16.4243 18.7197 16.6642 19.1749C16.7759 19.2658 16.9019 19.3218 17.0421 19.3428C21.6191 19.4128 26.2102 19.4548 30.8155 19.4688C29.7621 19.981 28.7542 20.5548 27.792 21.1905C27.7452 21.0822 27.6612 21.0122 27.5401 20.9805C25.4332 20.8982 23.3336 20.9262 21.2413 21.0645C20.9663 21.5154 21.0503 21.8793 21.4933 22.1563C23.2287 22.1983 24.9644 22.2123 26.7003 22.1983C26.2211 22.6773 25.7732 23.1812 25.3565 23.71C22.5289 23.696 19.7015 23.71 16.8741 23.752C16.4263 24.144 16.4263 24.5359 16.8741 24.9278C19.3935 24.9698 21.913 24.9838 24.4327 24.9698C24.1349 25.4535 23.8829 25.9574 23.6768 26.4815C22.884 26.4441 22.1001 26.4861 21.3253 26.6075C21.086 26.8224 21.016 27.0884 21.1153 27.4053C21.2372 27.5703 21.3911 27.6822 21.5772 27.7413C22.0371 27.8243 22.513 27.8523 23.005 27.8253C22.9449 28.2999 22.7629 28.7198 22.4591 29.085C22.3434 29.5801 22.2174 30.0701 22.0811 30.5548C21.7877 30.6874 21.5078 30.8414 21.2413 31.0167C20.2876 30.4861 19.3357 30.4721 18.3859 30.9747C17.6565 31.9012 17.0266 32.895 16.4962 33.9561C16.2684 34.7559 16.4084 35.4838 16.9161 36.1397C18.2039 37.0075 18.2039 37.8754 16.9161 38.7432C16.4615 39.3074 16.2936 39.9514 16.4122 40.6749C16.627 41.21 16.893 41.7139 17.2101 42.1866C14.5505 42.2006 11.891 42.1866 9.23161 42.1446C9.02165 42.0466 8.86769 41.8926 8.7697 41.6827C8.686 29.4702 8.71399 17.2645 8.85369 5.06551C8.95564 4.93543 9.08162 4.83745 9.23161 4.77156C17.3569 4.68799 25.4753 4.71598 33.5869 4.85555C33.6849 4.95353 33.7829 5.05151 33.8809 5.14949C33.9229 9.60058 33.9369 14.0518 33.9229 18.503Z" fill="#F4FBFE"/>
<path fill-rule="evenodd" clip-rule="evenodd" d="M16.1211 7.58508C19.5926 7.57108 23.0639 7.58508 26.5351 7.62708C26.7074 7.70517 26.8334 7.83115 26.913 8.00501C26.9691 8.62089 26.9691 9.23678 26.913 9.85266C26.8072 10.0986 26.6252 10.2525 26.3671 10.3146C22.9798 10.3706 19.5924 10.3706 16.2051 10.3146C16.0231 10.2446 15.8971 10.1186 15.8272 9.93665C15.7712 9.26477 15.7712 8.5929 15.8272 7.92102C15.9427 7.81981 16.0407 7.70784 16.1211 7.58508Z" fill="#C7D149"/>
<path fill-rule="evenodd" clip-rule="evenodd" d="M16.8757 12.5399C21.7189 12.5259 26.5619 12.5399 31.4049 12.5819C31.7573 12.8323 31.8273 13.1542 31.6149 13.5477C31.539 13.6486 31.4411 13.7186 31.3209 13.7577C26.5338 13.8137 21.7468 13.8137 16.9597 13.7577C16.5368 13.5047 16.4388 13.1547 16.6657 12.7079C16.7493 12.6604 16.8193 12.6043 16.8757 12.5399Z" fill="#92DAFA"/>
<path fill-rule="evenodd" clip-rule="evenodd" d="M12.0059 13.1278C12.6224 13.1138 13.2383 13.1278 13.8535 13.1698C14.0319 13.264 14.1858 13.39 14.3154 13.5477C14.3714 14.1916 14.3714 14.8354 14.3154 15.4793C14.2104 15.7213 14.0284 15.8752 13.7695 15.9413C13.2096 15.9973 12.6497 15.9973 12.0898 15.9413C11.9115 15.847 11.7575 15.7211 11.6279 15.5633C11.5719 14.8915 11.5719 14.2196 11.6279 13.5477C11.714 13.364 11.84 13.224 12.0059 13.1278Z" fill="#5FCAC3"/>
<path fill-rule="evenodd" clip-rule="evenodd" d="M16.8759 15.3116C17.6043 15.2977 18.3322 15.3116 19.0595 15.3536C19.4496 15.5237 19.5756 15.8176 19.4374 16.2354C19.3675 16.3614 19.2695 16.4594 19.1435 16.5294C18.3876 16.5854 17.6318 16.5854 16.8759 16.5294C16.432 16.1237 16.432 15.7177 16.8759 15.3116Z" fill="#91DAFA"/>
<path fill-rule="evenodd" clip-rule="evenodd" d="M21.4111 15.3114C23.4269 15.2974 25.4425 15.3114 27.4579 15.3534C27.8479 15.5274 27.9738 15.8214 27.8358 16.2352C27.7339 16.3653 27.6079 16.4633 27.4579 16.5292C25.4423 16.5852 23.4267 16.5852 21.4111 16.5292C20.9671 16.1235 20.9671 15.7175 21.4111 15.3114Z" fill="#91DAFA"/>
<path fill-rule="evenodd" clip-rule="evenodd" d="M31.7419 19.0069C31.6396 19.1102 31.5276 19.2083 31.4059 19.3008C26.6189 19.3428 21.8319 19.3568 17.0447 19.3428C16.9045 19.3217 16.7785 19.2657 16.6668 19.1748C16.4269 18.7196 16.5249 18.3697 16.9607 18.125C21.7478 18.069 26.5349 18.069 31.322 18.125C31.6983 18.2981 31.8383 18.5921 31.7419 19.0069Z" fill="#93DAFA"/>
<path fill-rule="evenodd" clip-rule="evenodd" d="M33.9237 18.5029C33.9237 19.2588 33.9237 20.0146 33.9237 20.7705C31.7536 21.3235 29.85 22.3593 28.2128 23.8779C28.1311 23.837 28.0471 23.795 27.9609 23.752C27.0935 23.71 26.2257 23.696 25.3574 23.71C25.7741 23.1811 26.222 22.6772 26.7011 22.1982C27.5766 22.3579 27.9405 22.022 27.7929 21.1904C28.7551 20.5548 29.7629 19.9809 30.8163 19.4688C26.2111 19.4547 21.6199 19.4127 17.043 19.3428C21.8301 19.3568 26.6172 19.3428 31.4042 19.3008C31.5259 19.2082 31.6378 19.1102 31.7401 19.0068C31.7347 19.0436 31.7486 19.0717 31.7821 19.0908C32.4777 18.8258 33.1915 18.6298 33.9237 18.5029Z" fill="#E4F6FD"/>
<path fill-rule="evenodd" clip-rule="evenodd" d="M11.9236 18.755C12.596 18.741 13.2679 18.755 13.9392 18.797C14.1116 18.8751 14.2375 19.0011 14.3171 19.1749C14.3731 19.7908 14.3731 20.4067 14.3171 21.0226C14.2471 21.2605 14.0932 21.4145 13.8552 21.4845C13.2393 21.5405 12.6235 21.5405 12.0076 21.4845C11.8874 21.4454 11.7894 21.3754 11.7136 21.2745C11.5787 20.5553 11.5507 19.8275 11.6296 19.0909C11.7452 18.9897 11.8432 18.8778 11.9236 18.755Z" fill="#E17CB5"/>
<path opacity="0.997" fill-rule="evenodd" clip-rule="evenodd" d="M36.7812 20.4346C39.0291 20.4502 41.1007 21.0381 42.996 22.1982C42.9504 22.2033 42.9224 22.2312 42.912 22.2822C43.7821 23.8545 44.3139 25.5342 44.5077 27.3213C43.8344 26.3401 42.9946 25.5282 41.9882 24.8857C41.6243 24.6196 41.2323 24.3956 40.8124 24.2139C39.7271 23.6835 38.5794 23.3756 37.3691 23.29C36.9491 23.29 36.5292 23.29 36.1093 23.29C34.8696 23.362 33.6938 23.6699 32.582 24.2139C32.2009 24.4179 31.837 24.6419 31.4902 24.8857C30.4264 25.5576 29.5586 26.4254 28.8867 27.4893C28.6429 27.8361 28.4189 28.2 28.2148 28.5811C27.6845 29.6664 27.3766 30.8142 27.291 32.0244C27.1679 31.9533 27.0978 31.8413 27.081 31.6885C27.0187 31.2088 26.9347 30.7329 26.8291 30.2607C26.79 30.1406 26.72 30.0426 26.6191 29.9668C26.0319 29.9248 25.444 29.9109 24.8555 29.9248C24.9947 29.171 25.2187 28.4432 25.5273 27.7412C25.7244 27.3471 25.9204 26.9551 26.1152 26.5654C26.4573 26.022 26.8213 25.4902 27.207 24.9697C27.5406 24.608 27.8765 24.244 28.2148 23.8779C29.852 22.3593 31.7556 21.3235 33.9257 20.7705C34.8819 20.5967 35.8337 20.4848 36.7812 20.4346Z" fill="#5497F6"/>
<path fill-rule="evenodd" clip-rule="evenodd" d="M16.8757 20.9386C17.6321 20.9246 18.3879 20.9386 19.1433 20.9806C19.2634 21.0196 19.3614 21.0897 19.4372 21.1905C19.582 21.6299 19.456 21.9518 19.0593 22.1563C18.3594 22.2124 17.6595 22.2124 16.9597 22.1563C16.5368 21.9033 16.4388 21.5533 16.6657 21.1065C16.7493 21.059 16.8193 21.003 16.8757 20.9386Z" fill="#93DAFA"/>
<path fill-rule="evenodd" clip-rule="evenodd" d="M27.7946 21.1904C27.9422 22.0219 27.5783 22.3579 26.7029 22.1982C24.967 22.2122 23.2313 22.1982 21.4959 22.1562C21.0529 21.8792 20.9689 21.5153 21.2439 21.0644C23.3362 20.9261 25.4358 20.898 27.5427 20.9804C27.6638 21.0121 27.7478 21.0821 27.7946 21.1904Z" fill="#93DAFA"/>
<path fill-rule="evenodd" clip-rule="evenodd" d="M42.9949 22.1982C46.395 24.2845 48.3826 27.3079 48.9577 31.2686C48.9577 32.2203 48.9577 33.1722 48.9577 34.124C48.2768 38.7105 45.8412 41.9999 41.6511 43.9922C40.5072 44.4738 39.3315 44.7958 38.1238 44.958C37.172 44.958 36.2201 44.958 35.2683 44.958C35.1201 44.8773 34.9521 44.8492 34.7644 44.874C32.5888 44.4475 30.6292 43.5518 28.8856 42.1865C28.7934 42.1112 28.7934 42.0412 28.8856 41.9766C29.0498 41.8965 29.1898 41.7845 29.3055 41.6406C29.8903 41.6578 30.4502 41.7978 30.9852 42.0605C31.1811 42.1166 31.3771 42.1166 31.573 42.0605C31.7886 41.6981 32.0125 41.3481 32.2449 41.0107C33.3305 41.6431 34.5063 42.007 35.7722 42.1025C36.3881 42.2145 37.004 42.2145 37.6199 42.1025C38.7409 42.0322 39.8046 41.7523 40.8113 41.2627C41.255 41.0412 41.675 40.7893 42.071 40.5068C43.0228 39.835 43.8347 39.0231 44.5066 38.0713C44.789 37.6752 45.0409 37.2553 45.2624 36.8115C45.7386 35.8308 46.0185 34.7951 46.1023 33.7041C46.2142 33.0602 46.2142 32.4164 46.1023 31.7725C46.0296 30.6318 45.7216 29.568 45.1784 28.5811C45.0391 28.1337 44.8151 27.7418 44.5066 27.4053C44.5066 27.3773 44.5066 27.3493 44.5066 27.3213C44.3128 25.5342 43.7809 23.8545 42.9109 22.2822C42.9213 22.2312 42.9492 22.2033 42.9949 22.1982Z" fill="#4379C5"/>
<path fill-rule="evenodd" clip-rule="evenodd" d="M36.1074 23.29C36.0934 23.683 36.1075 24.0749 36.1494 24.4658C36.5761 24.9266 36.968 24.8986 37.3251 24.3818C37.367 24.0189 37.3811 23.655 37.3671 23.29C38.5774 23.3756 39.7251 23.6835 40.8105 24.2139C40.628 24.5633 40.488 24.9273 40.3905 25.3057C40.5357 25.9659 40.8997 26.12 41.4823 25.7676C41.6695 25.483 41.8374 25.1891 41.9862 24.8857C42.9926 25.5282 43.8325 26.3401 44.5058 27.3213C44.5058 27.3493 44.5058 27.3773 44.5058 27.4053C44.1754 27.6367 43.8535 27.8886 43.5399 28.1611C43.4295 28.7926 43.6954 29.1006 44.3378 29.085C44.0108 33.7242 41.7712 37.1255 37.6191 39.2891C36.6193 39.7049 35.6395 39.6488 34.6796 39.1211C34.272 38.7553 33.8521 38.4054 33.4199 38.0713C33.3223 37.6824 33.3084 37.2904 33.3779 36.8955C33.7815 36.5684 34.1455 36.2045 34.4697 35.8037C34.7782 35.2098 34.8342 34.5939 34.6377 33.9561C34.1617 33.1162 33.6859 32.2764 33.2099 31.4365C32.625 30.7311 31.8832 30.4652 30.9844 30.6387C30.6056 30.7229 30.2417 30.8489 29.8926 31.0166C29.6054 30.838 29.3115 30.6701 29.0107 30.5127C28.9029 29.9163 28.7769 29.3565 28.6328 28.833C28.9961 29.1155 29.3741 29.1435 29.7666 28.917C30.0648 28.5313 30.0228 28.1813 29.6406 27.8672C29.3961 27.7193 29.1442 27.5933 28.8848 27.4893C29.5566 26.4254 30.4244 25.5576 31.4883 24.8857C31.6296 25.238 31.8255 25.5599 32.0761 25.8516C32.4027 26.0383 32.6966 25.9963 32.958 25.7256C33.0355 25.5968 33.0775 25.4568 33.084 25.3057C32.9833 24.9085 32.8153 24.5446 32.5801 24.2139C33.6919 23.6699 34.8677 23.362 36.1074 23.29Z" fill="#F4FBFE"/>
<path fill-rule="evenodd" clip-rule="evenodd" d="M36.1068 23.29C36.5267 23.29 36.9466 23.29 37.3665 23.29C37.3805 23.655 37.3664 24.0189 37.3245 24.3818C36.9674 24.8986 36.5755 24.9266 36.1488 24.4658C36.1069 24.0749 36.0928 23.683 36.1068 23.29Z" fill="#92DAFA"/>
<path fill-rule="evenodd" clip-rule="evenodd" d="M25.3573 23.7099C26.2257 23.6959 27.0935 23.7099 27.9608 23.7518C28.0471 23.7949 28.1311 23.8369 28.2128 23.8778C27.8745 24.2439 27.5386 24.6079 27.205 24.9696C26.2812 24.9696 25.3573 24.9696 24.4335 24.9696C21.9138 24.9836 19.3943 24.9696 16.875 24.9276C16.4271 24.5357 16.4271 24.1438 16.875 23.7518C19.7023 23.7099 22.5298 23.6958 25.3573 23.7099Z" fill="#91DAF9"/>
<path fill-rule="evenodd" clip-rule="evenodd" d="M32.5801 24.2139C32.8153 24.5446 32.9833 24.9085 33.084 25.3057C33.0775 25.4568 33.0355 25.5968 32.958 25.7256C32.6966 25.9963 32.4027 26.0383 32.0762 25.8516C31.8256 25.5599 31.6296 25.238 31.4883 24.8857C31.8351 24.6419 32.199 24.4179 32.5801 24.2139Z" fill="#94DAF9"/>
<path fill-rule="evenodd" clip-rule="evenodd" d="M40.8105 24.2139C41.2305 24.3956 41.6224 24.6196 41.9863 24.8857C41.8375 25.1891 41.6695 25.483 41.4824 25.7676C40.8997 26.12 40.5357 25.9659 40.3906 25.3057C40.488 24.9273 40.628 24.5633 40.8105 24.2139Z" fill="#94DAF9"/>
<path fill-rule="evenodd" clip-rule="evenodd" d="M12.0916 24.2978C14.1076 23.8645 14.8495 24.6483 14.3171 26.6494C14.2512 26.7994 14.1533 26.9254 14.0232 27.0273C13.3601 27.1618 12.6882 27.1898 12.0076 27.1113C11.917 27.031 11.819 26.9611 11.7136 26.9014C11.5787 26.1821 11.5507 25.4543 11.6296 24.7178C11.7432 24.5289 11.8971 24.3889 12.0916 24.2978Z" fill="#E17CB5"/>
<path fill-rule="evenodd" clip-rule="evenodd" d="M24.4355 24.9697C25.3594 24.9697 26.2832 24.9697 27.207 24.9697C26.8213 25.4902 26.4573 26.0221 26.1152 26.5654C25.3078 26.4857 24.4959 26.4578 23.6797 26.4814C23.8858 25.9573 24.1377 25.4534 24.4355 24.9697Z" fill="#E5F6FD"/>
<path fill-rule="evenodd" clip-rule="evenodd" d="M37.2826 26.7334C37.3103 28.2877 37.2823 29.8274 37.1986 31.3525C36.8293 31.3352 36.4653 31.3632 36.1068 31.4365C36.0928 29.8405 36.1068 28.2448 36.1488 26.6494C36.583 26.1803 36.9609 26.2083 37.2826 26.7334Z" fill="#E17CB5"/>
<path fill-rule="evenodd" clip-rule="evenodd" d="M16.9601 26.4815C17.6605 26.4676 18.3604 26.4815 19.0597 26.5235C19.4496 26.6976 19.5756 26.9915 19.4376 27.4054C19.3956 27.5593 19.2976 27.6573 19.1437 27.6993C18.3878 27.7553 17.632 27.7553 16.8761 27.6993C16.5644 27.4883 16.4664 27.1943 16.5822 26.8175C16.6995 26.6856 16.8255 26.5736 16.9601 26.4815Z" fill="#92DAFA"/>
<path fill-rule="evenodd" clip-rule="evenodd" d="M23.6794 26.4815C24.4957 26.4578 25.3075 26.4857 26.115 26.5654C25.9201 26.9551 25.7242 27.3471 25.5271 27.7412C24.2113 27.7412 22.8956 27.7412 21.5798 27.7412C21.3937 27.6822 21.2398 27.5702 21.1179 27.4053C21.0186 27.0883 21.0886 26.8224 21.3279 26.6074C22.1027 26.4861 22.8866 26.4441 23.6794 26.4815Z" fill="#92DAF9"/>
<path fill-rule="evenodd" clip-rule="evenodd" d="M37.2832 26.7334C37.3669 28.2865 37.3949 29.8542 37.3672 31.4365C37.2839 31.451 37.2279 31.4229 37.1992 31.3525C37.283 29.8275 37.3109 28.2878 37.2832 26.7334Z" fill="#E2818A"/>
<path fill-rule="evenodd" clip-rule="evenodd" d="M28.8867 27.4893C29.1461 27.5933 29.3981 27.7193 29.6426 27.8672C30.0248 28.1813 30.0668 28.5313 29.7685 28.917C29.376 29.1435 28.9981 29.1155 28.6348 28.833C28.5117 28.7291 28.3717 28.6451 28.2148 28.5811C28.4189 28.2 28.6429 27.8361 28.8867 27.4893Z" fill="#94DAF9"/>
<path fill-rule="evenodd" clip-rule="evenodd" d="M44.5057 27.4053C44.8143 27.7418 45.0383 28.1337 45.1776 28.5811C44.8947 28.7503 44.6148 28.9183 44.3378 29.085C43.6954 29.1006 43.4295 28.7926 43.5399 28.1611C43.8534 27.8886 44.1754 27.6367 44.5057 27.4053Z" fill="#93DAF9"/>
<path fill-rule="evenodd" clip-rule="evenodd" d="M21.5769 27.7412C22.8926 27.7412 24.2083 27.7412 25.5241 27.7412C25.2155 28.4432 24.9915 29.171 24.8522 29.9248C24.5744 29.8806 24.3925 29.9926 24.3063 30.2607C24.2089 30.7905 24.1249 31.3224 24.0544 31.8564C23.7375 32.0919 23.3875 32.2739 23.0046 32.4023C22.5831 32.6411 22.1911 32.921 21.8288 33.2422C21.6329 33.2982 21.4369 33.2982 21.2409 33.2422C20.849 33.1022 20.4571 32.9623 20.0651 32.8223C19.8972 32.7662 19.7292 32.7662 19.5612 32.8223C19.2133 33.4205 18.8774 34.0224 18.5534 34.6279C18.5675 34.6839 18.5814 34.7399 18.5954 34.7959C18.9454 35.0898 19.2953 35.3838 19.6452 35.6777C19.8362 35.826 19.9762 36.008 20.0651 36.2236C19.9743 37.0919 19.9602 37.9597 20.0232 38.8271C19.5472 39.2471 19.0714 39.667 18.5954 40.0869C18.5394 40.1989 18.5394 40.3109 18.5954 40.4229C18.9279 40.9619 19.2499 41.5078 19.5612 42.0605C19.7292 42.1166 19.8972 42.1166 20.0651 42.0605C20.5396 41.8557 21.0295 41.7018 21.5349 41.5986C21.9016 41.7191 22.2235 41.9151 22.5007 42.1865C20.737 42.1865 18.9734 42.1865 17.2097 42.1865C16.8926 41.7139 16.6266 41.21 16.4118 40.6748C16.2932 39.9513 16.4611 39.3074 16.9158 38.7432C18.2035 37.8754 18.2035 37.0075 16.9158 36.1396C16.408 35.4837 16.268 34.7558 16.4958 33.9561C17.0262 32.8949 17.6561 31.9011 18.3855 30.9746C19.3353 30.472 20.2872 30.4861 21.2409 31.0166C21.5074 30.8413 21.7873 30.6873 22.0808 30.5547C22.2171 30.07 22.343 29.58 22.4587 29.085C22.7625 28.7197 22.9445 28.2998 23.0046 27.8252C22.5126 27.8522 22.0367 27.8243 21.5769 27.7412Z" fill="#E6F6FC"/>
<path fill-rule="evenodd" clip-rule="evenodd" d="M28.2129 28.5811C28.3698 28.6451 28.5098 28.7291 28.6328 28.833C28.7769 29.3565 28.9029 29.9163 29.0107 30.5127C29.3115 30.6701 29.6054 30.8381 29.8926 31.0166C30.2417 30.8489 30.6056 30.7229 30.9844 30.6387C31.8831 30.4652 32.625 30.7311 33.2099 31.4365C33.6859 32.2764 34.1617 33.1162 34.6376 33.9561C34.8342 34.5939 34.7782 35.2098 34.4697 35.8037C34.1455 36.2045 33.7815 36.5684 33.3779 36.8955C33.3084 37.2904 33.3223 37.6824 33.4199 38.0713C33.8521 38.4054 34.272 38.7553 34.6796 39.1211C35.6395 39.6489 36.6193 39.7049 37.6191 39.2891C41.7712 37.1255 44.0107 33.7242 44.3378 29.085C44.6148 28.9183 44.8947 28.7503 45.1776 28.5811C45.7208 29.568 46.0288 30.6318 46.1014 31.7725C46.1014 31.8844 46.1014 31.9964 46.1014 32.1084C45.7365 32.0945 45.3725 32.1085 45.0097 32.1504C44.5635 32.5344 44.5635 32.9263 45.0097 33.3262C45.3725 33.3681 45.7365 33.3821 46.1014 33.3682C46.1014 33.4801 46.1014 33.5922 46.1014 33.7041C46.0177 34.7951 45.7378 35.8308 45.2616 36.8115C44.9001 36.6383 44.5222 36.4983 44.1278 36.3916C43.5172 36.4998 43.3492 36.8357 43.6239 37.3994C43.9311 37.6149 44.2251 37.8388 44.5058 38.0713C43.8339 39.0231 43.022 39.835 42.0702 40.5068C41.8378 40.2262 41.6139 39.9322 41.3983 39.625C40.8346 39.3503 40.4987 39.5183 40.3905 40.1289C40.4972 40.5233 40.6372 40.9012 40.8105 41.2627C39.8038 41.7523 38.7401 42.0322 37.6191 42.1025C37.5351 42.1025 37.4511 42.1025 37.3671 42.1025C37.3811 41.7375 37.367 41.3736 37.3251 41.0107C36.8709 40.5478 36.451 40.5758 36.0654 41.0947C36.0235 41.4295 36.0094 41.7654 36.0234 42.1025C35.9394 42.1025 35.8554 42.1025 35.7714 42.1025C34.5055 42.007 33.3297 41.6431 32.2441 41.0107C32.2969 40.7932 32.3949 40.5973 32.5381 40.4229C32.5941 40.3109 32.5941 40.1989 32.5381 40.0869C32.0621 39.667 31.5863 39.2471 31.1103 38.8271C31.1349 38.3248 31.1768 37.8209 31.2363 37.3154C31.2397 36.9422 31.1836 36.5783 31.0683 36.2236C31.1573 36.008 31.2973 35.826 31.4883 35.6777C31.8459 35.3938 32.1959 35.0998 32.5381 34.7959C32.5914 34.6166 32.5633 34.4486 32.4541 34.292C32.1495 33.8091 31.8556 33.3191 31.5722 32.8223C31.3763 32.7662 31.1803 32.7662 30.9844 32.8223C30.4494 33.0851 29.8895 33.225 29.3047 33.2422C28.6944 32.7274 28.0226 32.3216 27.2891 32.0244C27.3746 30.8142 27.6825 29.6664 28.2129 28.5811Z" fill="#E5F6FD"/>
<path fill-rule="evenodd" clip-rule="evenodd" d="M24.8535 29.9249C25.4421 29.911 26.0299 29.9249 26.6172 29.9669C26.718 30.0427 26.7881 30.1407 26.8271 30.2608C26.9328 30.733 27.0168 31.2089 27.0791 31.6886C27.0959 31.8414 27.1659 31.9534 27.289 32.0245C28.0225 32.3216 28.6944 32.7275 29.3046 33.2423C29.8895 33.2251 30.4493 33.0851 30.9843 32.8224C31.1803 32.7663 31.3763 32.7663 31.5722 32.8224C31.8556 33.3192 32.1495 33.8092 32.454 34.2921C32.5633 34.4487 32.5913 34.6167 32.538 34.796C32.1959 35.0999 31.8459 35.3939 31.4882 35.6778C31.2972 35.8261 31.1572 36.0081 31.0683 36.2237C31.1836 36.5784 31.2396 36.9423 31.2363 37.3155C31.1768 37.821 31.1348 38.3249 31.1103 38.8272C31.5862 39.2472 32.0621 39.6671 32.538 40.087C32.594 40.199 32.594 40.311 32.538 40.4229C32.3948 40.5974 32.2968 40.7933 32.2441 41.0108C32.0117 41.3482 31.7877 41.6982 31.5722 42.0606C31.3763 42.1167 31.1803 42.1167 30.9843 42.0606C30.4493 41.7979 29.8895 41.6579 29.3046 41.6407C29.1889 41.7846 29.0489 41.8966 28.8847 41.9767C28.7925 42.0413 28.7925 42.1113 28.8847 42.1866C28.7694 42.1734 28.6574 42.1875 28.5488 42.2286C28.1461 42.4565 27.7262 42.6524 27.289 42.8165C27.0849 43.0101 27.001 43.248 27.0371 43.5304C26.9508 44.0192 26.8109 44.4951 26.6172 44.9581C25.9173 44.9581 25.2174 44.9581 24.5176 44.9581C24.2751 44.344 24.1211 43.7001 24.0557 43.0265C23.9857 42.9565 23.9156 42.8865 23.8457 42.8165C23.3626 42.6728 22.9146 42.4628 22.5019 42.1866C22.2248 41.9152 21.9029 41.7192 21.5361 41.5987C21.0308 41.7019 20.5408 41.8558 20.0664 42.0606C19.8984 42.1167 19.7305 42.1167 19.5625 42.0606C19.2512 41.5079 18.9292 40.962 18.5967 40.4229C18.5407 40.311 18.5407 40.199 18.5967 40.087C19.0726 39.6671 19.5485 39.2472 20.0244 38.8272C19.9615 37.9598 19.9755 37.092 20.0664 36.2237C19.9775 36.0081 19.8375 35.8261 19.6465 35.6778C19.2965 35.3839 18.9467 35.0899 18.5967 34.796C18.5827 34.74 18.5687 34.684 18.5547 34.628C18.8786 34.0225 19.2146 33.4206 19.5625 32.8224C19.7305 32.7663 19.8984 32.7663 20.0664 32.8224C20.4584 32.9624 20.8502 33.1023 21.2422 33.2423C21.4381 33.2983 21.6341 33.2983 21.8301 33.2423C22.1924 32.9211 22.5843 32.6412 23.0059 32.4024C23.3888 32.274 23.7388 32.092 24.0557 31.8565C24.1262 31.3225 24.2102 30.7906 24.3076 30.2608C24.3938 29.9927 24.5757 29.8807 24.8535 29.9249Z" fill="#FFD600"/>
<path fill-rule="evenodd" clip-rule="evenodd" d="M37.1995 31.3526C37.2282 31.423 37.2842 31.451 37.3675 31.4366C38.1534 31.9843 38.3214 32.6842 37.8714 33.5362C37.6183 33.8592 37.2824 34.0551 36.8636 34.1241C35.5062 33.9576 35.0723 33.2298 35.5618 31.9405C35.7351 31.7529 35.917 31.5849 36.1077 31.4366C36.4662 31.3633 36.8302 31.3353 37.1995 31.3526Z" fill="#4473CA"/>
<path fill-rule="evenodd" clip-rule="evenodd" d="M46.1022 31.7725C46.2141 32.4164 46.2141 33.0602 46.1022 33.7041C46.1022 33.5922 46.1022 33.4801 46.1022 33.3682C45.7372 33.3821 45.3733 33.3681 45.0104 33.3262C44.5643 32.9263 44.5643 32.5344 45.0104 32.1504C45.3733 32.1085 45.7372 32.0945 46.1022 32.1084C46.1022 31.9964 46.1022 31.8844 46.1022 31.7725Z" fill="#93D9F9"/>
<path fill-rule="evenodd" clip-rule="evenodd" d="M37.8711 33.5361C38.4291 34.3709 38.947 35.2387 39.4248 36.1396C39.4811 36.7829 39.1872 37.0489 38.543 36.9375C37.886 36.0575 37.3261 35.1197 36.8633 34.124C37.2821 34.0551 37.618 33.8591 37.8711 33.5361Z" fill="#E17CB5"/>
<path fill-rule="evenodd" clip-rule="evenodd" d="M26.2832 39.1634C25.6594 38.0758 25.1836 36.928 24.8555 35.72C25.9431 35.3884 26.7689 35.7243 27.333 36.7278C27.6416 37.8333 27.2918 38.6451 26.2832 39.1634Z" fill="#4473C9"/>
<path fill-rule="evenodd" clip-rule="evenodd" d="M24.8526 35.7195C25.1807 36.9275 25.6566 38.0752 26.2803 39.1628C25.1421 39.5248 24.3163 39.1609 23.8028 38.071C23.5831 37.4404 23.6671 36.8525 24.0548 36.3074C24.2648 36.0262 24.5308 35.8302 24.8526 35.7195Z" fill="#E5F5FB"/>
<path fill-rule="evenodd" clip-rule="evenodd" d="M45.2616 36.8115C45.0402 37.2553 44.7882 37.6752 44.5058 38.0713C44.2251 37.8388 43.9312 37.6149 43.624 37.3994C43.3492 36.8357 43.5172 36.4998 44.1279 36.3916C44.5222 36.4983 44.9002 36.6383 45.2616 36.8115Z" fill="#93D9F9"/>
<path fill-rule="evenodd" clip-rule="evenodd" d="M42.0703 40.507C41.6742 40.7894 41.2543 41.0414 40.8105 41.2629C40.6373 40.9014 40.4973 40.5235 40.3906 40.1291C40.4988 39.5184 40.8347 39.3505 41.3984 39.6252C41.6139 39.9324 41.8378 40.2263 42.0703 40.507Z" fill="#93D9F9"/>
<path fill-rule="evenodd" clip-rule="evenodd" d="M37.6211 42.1025C37.0052 42.2145 36.3893 42.2145 35.7734 42.1025C35.8574 42.1025 35.9414 42.1025 36.0254 42.1025C36.0114 41.7654 36.0255 41.4295 36.0674 41.0947C36.453 40.5758 36.873 40.5478 37.3271 41.0108C37.369 41.3736 37.3831 41.7376 37.3691 42.1025C37.4531 42.1025 37.5371 42.1025 37.6211 42.1025Z" fill="#95DAF9"/>
<path fill-rule="evenodd" clip-rule="evenodd" d="M28.887 42.1867C30.6307 43.5519 32.5903 44.4477 34.7659 44.8742C34.6826 44.8597 34.6267 44.8878 34.5979 44.9582C32.6943 44.9582 30.7907 44.9582 28.887 44.9582C28.2732 44.4848 27.6573 44.009 27.0394 43.5304C27.0033 43.2481 27.0873 43.0101 27.2913 42.8166C27.7285 42.6525 28.1484 42.4565 28.5511 42.2287C28.6597 42.1875 28.7717 42.1735 28.887 42.1867Z" fill="#479892"/>
<path fill-rule="evenodd" clip-rule="evenodd" d="M27.0371 43.5303C27.655 44.0088 28.2709 44.4847 28.8848 44.958C28.1289 44.958 27.373 44.958 26.6172 44.958C26.8109 44.495 26.9509 44.0191 27.0371 43.5303Z" fill="#5FCAC3"/>
</g>
<defs>
<clipPath id="clip0_556_53475">
<rect width="42.9997" height="43" fill="white" transform="translate(6 2)"/>
</clipPath>
</defs>
</svg>
