<svg width="51" height="50" viewBox="0 0 51 50" fill="none" xmlns="http://www.w3.org/2000/svg">
<g clip-path="url(#clip0_556_53611)">
<circle cx="25.499" cy="24.9999" r="23.5849" fill="#E77FB9"/>
<g clip-path="url(#clip1_556_53611)">
<path opacity="0.917" fill-rule="evenodd" clip-rule="evenodd" d="M38.8281 0.341898C39.6191 0.205703 39.9935 0.531224 39.9512 1.31846C39.2296 3.24992 38.4809 5.17049 37.7051 7.08018C37.4126 7.35018 37.0708 7.43156 36.6797 7.32432C36.5007 7.27549 36.3867 7.16156 36.3379 6.98252C36.2728 6.7221 36.2728 6.46169 36.3379 6.20127C37.0215 4.44346 37.7051 2.68565 38.3887 0.927836C38.4672 0.669445 38.6137 0.474133 38.8281 0.341898Z" fill="#CDEFEC"/>
<path opacity="0.976" fill-rule="evenodd" clip-rule="evenodd" d="M42.1513 21.8262C41.2388 22.2493 40.3924 22.7702 39.6122 23.3887C39.0588 22.5423 38.5055 21.696 37.9521 20.8496C35.0629 16.0146 32.1007 11.2294 29.0653 6.49414C28.7719 6.05296 28.4952 5.59723 28.2353 5.12695C28.1535 4.75639 28.186 4.39831 28.3329 4.05273C28.8774 3.4629 29.5447 3.15366 30.3349 3.125C30.5387 3.20236 30.7178 3.31629 30.872 3.4668C34.6584 9.57571 38.4182 15.6955 42.1513 21.8262Z" fill="#5497F6"/>
<path opacity="0.994" fill-rule="evenodd" clip-rule="evenodd" d="M29.0625 6.49414C32.0979 11.2294 35.0601 16.0146 37.9492 20.8496C31.7801 22.3017 25.5951 23.734 19.3945 25.1465C19.362 25.1465 19.3294 25.1465 19.2969 25.1465C18.5509 23.8813 17.7696 22.6442 16.9531 21.4355C20.9672 16.4333 25.0037 11.4528 29.0625 6.49414Z" fill="#DDE851"/>
<path opacity="0.909" fill-rule="evenodd" clip-rule="evenodd" d="M44.2024 8.83789C45.1958 8.92101 45.4563 9.39301 44.9836 10.2539C43.4871 11.2148 41.9572 12.1101 40.3938 12.9395C39.5379 12.6142 39.4077 12.1097 40.0032 11.4258C41.4091 10.5606 42.8089 9.69806 44.2024 8.83789Z" fill="#CDEFEC"/>
<path opacity="0.925" fill-rule="evenodd" clip-rule="evenodd" d="M50.4497 17.8223C50.4497 18.0828 50.4497 18.3431 50.4497 18.6036C50.2274 18.8357 49.9507 18.9659 49.6197 18.9942C47.618 18.7827 45.6161 18.571 43.6138 18.3594C43.0329 18.1218 42.8865 17.7149 43.1744 17.1387C43.4083 16.8933 43.7013 16.7956 44.0533 16.8457C45.9584 17.0151 47.8627 17.1942 49.7662 17.3829C50.0674 17.4346 50.2953 17.5811 50.4497 17.8223Z" fill="#CDEFEC"/>
<path fill-rule="evenodd" clip-rule="evenodd" d="M37.9531 20.8496C38.5065 21.696 39.0599 22.5423 39.6133 23.3887C40.0273 24.1936 40.4831 24.9748 40.9805 25.7324C34.6854 27.054 28.4028 28.4212 22.1328 29.834C21.2214 28.2715 20.3099 26.709 19.3984 25.1465C25.599 23.734 31.784 22.3017 37.9531 20.8496Z" fill="#C7D149"/>
<path fill-rule="evenodd" clip-rule="evenodd" d="M16.9565 21.4355C17.773 22.6442 18.5542 23.8812 19.3002 25.1465C16.9104 26.651 14.5016 28.1321 12.0737 29.5898C11.7816 29.7817 11.5212 29.9934 11.2924 30.2246C10.8426 29.4495 10.3543 28.7009 9.82756 27.9785C9.44314 27.0364 9.60589 26.2063 10.3158 25.4883C12.5182 24.1153 14.7318 22.7645 16.9565 21.4355Z" fill="#5497F6"/>
<path fill-rule="evenodd" clip-rule="evenodd" d="M42.1484 21.8262C42.9654 23.0204 43.7305 24.2574 44.4434 25.5371C44.5865 26.0483 44.44 26.4552 44.0039 26.7578C43.6784 26.9531 43.3528 27.1484 43.0273 27.3438C42.514 27.483 42.0745 27.369 41.709 27.002C41.4637 26.5761 41.2195 26.1529 40.9766 25.7324C40.4792 24.9748 40.0234 24.1936 39.6094 23.3887C40.3896 22.7702 41.2359 22.2493 42.1484 21.8262Z" fill="#4C88DD"/>
<path fill-rule="evenodd" clip-rule="evenodd" d="M19.2969 25.1465C19.3294 25.1465 19.362 25.1465 19.3945 25.1465C20.306 26.709 21.2175 28.2715 22.1289 29.834C22.0638 29.834 22.0312 29.8665 22.0312 29.9316C21.6783 29.7552 21.3203 29.5762 20.957 29.3945C20.3013 29.2727 19.6828 29.3703 19.1016 29.6875C18.2712 30.184 17.4574 30.7048 16.6602 31.25C15.9066 32.158 15.1904 33.0857 14.5117 34.0332C14.19 34.0567 13.8971 33.9754 13.6328 33.7891C13.4502 33.5898 13.2549 33.4108 13.0469 33.252C12.4867 32.2295 11.9008 31.2204 11.2891 30.2246C11.5179 29.9934 11.7782 29.7817 12.0703 29.5898C14.4982 28.1321 16.907 26.651 19.2969 25.1465Z" fill="#4C88DD"/>
<path opacity="0.963" fill-rule="evenodd" clip-rule="evenodd" d="M9.82422 27.9785C10.351 28.7009 10.8393 29.4495 11.2891 30.2246C11.9008 31.2204 12.4867 32.2295 13.0469 33.252C12.6057 33.5454 12.15 33.8221 11.6797 34.082C11.0521 34.2432 10.515 34.0967 10.0684 33.6426C9.33024 32.4754 8.63037 31.2872 7.96875 30.0781C7.98628 29.6121 8.14904 29.2052 8.45703 28.8574C8.91448 28.5619 9.37021 28.2689 9.82422 27.9785Z" fill="#4C88DD"/>
<path opacity="0.993" fill-rule="evenodd" clip-rule="evenodd" d="M22.0352 29.9316C22.1481 30.0916 22.2621 30.2543 22.377 30.4199C23.1064 29.7029 23.9365 29.5076 24.8672 29.8339C24.7031 30.2392 24.5241 30.6624 24.3301 31.1035C23.9877 31.4264 23.6459 31.7357 23.3047 32.0312C23.562 32.4978 23.855 32.9373 24.1836 33.3496C24.577 33.1206 24.9676 32.8927 25.3555 32.666C25.7329 32.5475 26.0909 32.58 26.4297 32.7636C26.477 33.2725 26.3468 33.7283 26.0391 34.1308C25.5676 34.4805 25.0793 34.8061 24.5742 35.1074C24.5662 34.8307 24.55 34.5378 24.5254 34.2285C24.4971 34.0777 24.432 33.9475 24.3301 33.8379C23.7176 34.5431 22.9526 34.8198 22.0352 34.6679C21.4523 34.2145 21.0129 33.6449 20.7168 32.9589C20.2425 32.289 19.6402 32.1262 18.9102 32.4707C18.5122 34.2922 17.6658 35.8709 16.3711 37.207C16.7096 37.1029 17.0351 36.9401 17.3477 36.7187C17.6958 36.3871 18.0213 36.0453 18.3242 35.6933C19.342 37.2316 20.3186 38.7941 21.2539 40.3808C20.34 41.11 19.3309 41.7122 18.2266 42.1875C16.6223 42.3333 15.0272 42.2519 13.4414 41.9433C12.5263 40.898 11.6474 39.8238 10.8047 38.7207C11.2661 38.5133 11.673 38.2204 12.0254 37.8418C12.8564 36.5695 13.6865 35.3 14.5156 34.0332C15.1943 33.0857 15.9105 32.158 16.6641 31.25C17.4613 30.7047 18.2751 30.1839 19.1055 29.6875C19.6867 29.3703 20.3052 29.2726 20.9609 29.3945C21.3242 29.5761 21.6822 29.7551 22.0352 29.9316Z" fill="#FEE5CE"/>
<path fill-rule="evenodd" clip-rule="evenodd" d="M24.8672 29.834C25.6915 30.2688 26.0008 30.9524 25.7949 31.8848C25.7229 32.1922 25.5764 32.4526 25.3555 32.666C24.9676 32.8928 24.577 33.1206 24.1836 33.3496C23.855 32.9373 23.562 32.4979 23.3047 32.0312C23.6459 31.7357 23.9877 31.4265 24.3301 31.1035C24.5241 30.6624 24.7031 30.2393 24.8672 29.834Z" fill="#EED4BD"/>
<path fill-rule="evenodd" clip-rule="evenodd" d="M26.4258 32.7636C27.1741 33.0532 27.5647 33.6066 27.5977 34.4237C27.5401 34.8105 27.41 35.1686 27.207 35.4979C27.1419 35.4979 27.1094 35.5304 27.1094 35.5956C25.9848 36.2063 24.9105 36.8899 23.8867 37.6464C22.6556 37.6882 21.8905 37.1022 21.5918 35.8886C21.2279 35.4268 20.9024 34.9386 20.6152 34.4237C20.1077 33.7857 19.5218 33.6881 18.8574 34.1307C18.765 34.6846 18.586 35.2054 18.3203 35.6932C18.0174 36.0452 17.6919 36.387 17.3438 36.7186C17.0312 36.94 16.7057 37.1028 16.3672 37.2069C17.6619 35.8708 18.5083 34.2921 18.9062 32.4706C19.6363 32.1262 20.2386 32.2889 20.7129 32.9589C21.009 33.6448 21.4484 34.2144 22.0312 34.6679C22.9487 34.8197 23.7137 34.543 24.3262 33.8378C24.4281 33.9474 24.4932 34.0776 24.5215 34.2284C24.5461 34.5377 24.5623 34.8306 24.5703 35.1073C25.0754 34.806 25.5637 34.4804 26.0352 34.1307C26.3429 33.7282 26.473 33.2724 26.4258 32.7636Z" fill="#EDD3BD"/>
<path fill-rule="evenodd" clip-rule="evenodd" d="M23.8867 37.6465C23.5521 38.0337 23.4219 38.4894 23.4961 39.0137C23.7805 40.0013 24.4314 40.5221 25.4492 40.5762C24.7438 40.9453 24.4508 41.5313 24.5703 42.334C23.5148 42.6459 22.6521 42.353 21.9824 41.4551C21.7517 41.0796 21.5075 40.7216 21.25 40.3809C20.3146 38.7942 19.3381 37.2317 18.3203 35.6934C18.586 35.2056 18.765 34.6847 18.8574 34.1309C19.5218 33.6882 20.1077 33.7859 20.6152 34.4239C20.9024 34.9387 21.2279 35.427 21.5918 35.8887C21.8905 37.1024 22.6556 37.6883 23.8867 37.6465Z" fill="#4C88DD"/>
<path opacity="0.99" fill-rule="evenodd" clip-rule="evenodd" d="M27.2077 35.498C27.6776 35.4458 28.1008 35.5434 28.4772 35.791C28.2736 36.1982 28.062 36.6214 27.8425 37.0605C26.8416 37.732 25.8162 38.3668 24.7663 38.9648C24.3488 39.1431 23.9257 39.1594 23.4968 39.0137C23.4225 38.4893 23.5528 38.0337 23.8874 37.6465C24.9112 36.89 25.9854 36.2064 27.11 35.5957C27.1752 35.5957 27.2077 35.5632 27.2077 35.498Z" fill="#FEE5CE"/>
<path fill-rule="evenodd" clip-rule="evenodd" d="M28.4805 35.791C29.0436 36.1014 29.3365 36.5896 29.3594 37.2559C29.3055 37.8844 29.0451 38.4053 28.5781 38.8184C28.4142 38.8566 28.2514 38.9055 28.0898 38.9648C27.2222 39.5239 26.3433 40.061 25.4531 40.5762C24.4354 40.5221 23.7844 40.0013 23.5 39.0137C23.9289 39.1594 24.3521 39.1431 24.7695 38.9648C25.8194 38.3668 26.8448 37.732 27.8457 37.0605C28.0652 36.6214 28.2769 36.1982 28.4805 35.791Z" fill="#EDD3BD"/>
<path opacity="0.983" fill-rule="evenodd" clip-rule="evenodd" d="M10.8008 38.7207C11.6435 39.8238 12.5224 40.898 13.4375 41.9433C13.4375 41.9758 13.4375 42.0084 13.4375 42.041C12.7847 42.5316 12.1336 43.0199 11.4844 43.5058C10.4717 42.363 9.49511 41.1912 8.55469 39.9902C9.12465 39.5019 9.71059 39.0299 10.3125 38.5742C10.512 38.5117 10.6748 38.5605 10.8008 38.7207Z" fill="#CBD3DD"/>
<path opacity="0.992" fill-rule="evenodd" clip-rule="evenodd" d="M28.5768 38.8184C28.8627 38.8247 29.1231 38.8898 29.358 39.0137C29.3331 39.6546 29.0727 40.1917 28.5768 40.625C27.6488 41.203 26.7048 41.7564 25.7447 42.2852C25.3601 42.4633 24.9694 42.4796 24.5729 42.334C24.4533 41.5312 24.7463 40.9453 25.4518 40.5762C26.3419 40.061 27.2208 39.5239 28.0885 38.9648C28.25 38.9055 28.4128 38.8566 28.5768 38.8184Z" fill="#FEE5CE"/>
<path opacity="0.986" fill-rule="evenodd" clip-rule="evenodd" d="M8.55859 39.9902C9.49901 41.1912 10.4756 42.363 11.4883 43.5058C11.6185 43.6686 11.7487 43.8313 11.8789 43.9941C11.6266 44.197 11.3824 44.425 11.1465 44.6777C9.7749 46.2929 8.42399 47.9206 7.09375 49.5605C5.1078 49.5768 3.12213 49.5605 1.13672 49.5117C0.831968 49.4172 0.604104 49.2382 0.453125 48.9746C0.453125 47.9003 0.453125 46.8261 0.453125 45.7519C0.592912 45.5627 0.755673 45.3837 0.941406 45.2148C3.28066 43.4291 5.59187 41.6062 7.875 39.746C8.18349 39.6402 8.41135 39.7216 8.55859 39.9902Z" fill="#56B6B0"/>
<path fill-rule="evenodd" clip-rule="evenodd" d="M29.3555 39.0137C29.8037 39.1524 30.1129 39.4454 30.2832 39.8926C30.5419 40.7955 30.2978 41.5279 29.5508 42.0898C28.6028 42.694 27.6263 43.2475 26.6211 43.75C26.3606 43.7825 26.1003 43.8151 25.8398 43.8477C24.7981 44.4661 23.7565 45.0847 22.7148 45.7031C21.9767 46.0851 21.1954 46.2153 20.3711 46.0938C19.18 45.862 17.9919 45.6179 16.8066 45.3613C16.6796 45.3749 16.5982 45.4399 16.5625 45.5566C15.4846 44.4138 14.4429 43.2419 13.4375 42.041C13.4375 42.0085 13.4375 41.9759 13.4375 41.9434C15.0233 42.252 16.6184 42.3333 18.2227 42.1875C19.327 41.7122 20.3361 41.1101 21.25 40.3809C21.5075 40.7216 21.7517 41.0796 21.9824 41.4551C22.6521 42.3529 23.5148 42.6459 24.5703 42.334C24.9669 42.4796 25.3575 42.4633 25.7422 42.2852C26.7022 41.7564 27.6463 41.203 28.5742 40.625C29.0701 40.1917 29.3306 39.6546 29.3555 39.0137Z" fill="#EDD4BD"/>
<path fill-rule="evenodd" clip-rule="evenodd" d="M13.4375 42.041C14.4429 43.2419 15.4846 44.4138 16.5625 45.5566C16.72 45.6873 16.7688 45.8501 16.709 46.0449C16.1414 46.5465 15.5718 47.0348 15 47.5098C13.9271 46.3714 12.8854 45.1995 11.875 43.9941C11.7448 43.8313 11.6146 43.6687 11.4844 43.5059C12.1336 43.0199 12.7847 42.5316 13.4375 42.041Z" fill="#94A3A8"/>
<path fill-rule="evenodd" clip-rule="evenodd" d="M11.8789 43.9941C12.8893 45.1995 13.931 46.3714 15.0039 47.5098C15.0989 47.6629 15.1152 47.8257 15.0527 47.998C14.6129 48.5387 14.1409 49.0433 13.6367 49.5117C11.456 49.5605 9.27498 49.5769 7.09375 49.5605C8.42399 47.9206 9.7749 46.293 11.1465 44.6777C11.3824 44.425 11.6266 44.1971 11.8789 43.9941Z" fill="#479892"/>
</g>
</g>
<defs>
<clipPath id="clip0_556_53611">
<rect width="50" height="50" fill="white" transform="translate(0.5)"/>
</clipPath>
<clipPath id="clip1_556_53611">
<rect width="50" height="50" fill="white" transform="translate(0.5)"/>
</clipPath>
</defs>
</svg>
