<svg width="37" height="36" viewBox="0 0 37 36" fill="none" xmlns="http://www.w3.org/2000/svg">
<path fill-rule="evenodd" clip-rule="evenodd" d="M17.8876 4.02575C18.2404 3.73279 18.7549 3.73279 19.1077 4.02575C22.5975 6.92349 27.0143 8.74338 31.8476 8.97474C32.282 8.99554 32.653 9.30932 32.71 9.7405C32.8338 10.6762 32.8977 11.6309 32.8977 12.6004C32.8977 21.8928 27.0299 29.8147 18.7974 32.8629C18.6044 32.9343 18.3915 32.9343 18.1985 32.8629C9.96574 29.8148 4.09766 21.8928 4.09766 12.6002C4.09766 11.6307 4.16153 10.6762 4.28529 9.74051C4.34232 9.30933 4.71329 8.99554 5.14773 8.97474C9.98096 8.74339 14.3978 6.9235 17.8876 4.02575ZM25.4394 14.744C25.878 14.141 25.7447 13.2967 25.1417 12.8581C24.5387 12.4196 23.6944 12.5529 23.2559 13.1559L16.9851 21.7782L13.6023 18.3953C13.075 17.8681 12.2203 17.8681 11.6931 18.3953C11.1659 18.9225 11.1659 19.7773 11.6931 20.3045L16.1931 24.8045C16.4722 25.0837 16.8596 25.2267 17.2533 25.1958C17.6469 25.1649 18.0072 24.9633 18.2394 24.644L25.4394 14.744Z" fill="#5FCAC3"/>
</svg>
