<svg width="51" height="50" viewBox="0 0 51 50" fill="none" xmlns="http://www.w3.org/2000/svg">
<g clip-path="url(#clip0_556_53720)">
<path fill-rule="evenodd" clip-rule="evenodd" d="M17.6389 -0.0488281C19.2339 -0.0488281 20.829 -0.0488281 22.424 -0.0488281C22.4078 0.798151 22.424 1.6445 22.4729 2.49023C22.5217 2.60417 22.6031 2.68555 22.717 2.73438C26.2324 2.7832 29.7481 2.79948 33.2639 2.7832C33.2639 3.33659 33.2639 3.88997 33.2639 4.44336C33.2197 4.53695 33.1546 4.61833 33.0686 4.6875C32.6466 4.73623 32.2235 4.75251 31.799 4.73633C31.3108 4.73633 30.8225 4.73633 30.3342 4.73633C27.0464 4.73633 23.7587 4.73633 20.4709 4.73633C19.9826 4.73633 19.4944 4.73633 19.0061 4.73633C17.8263 5.0849 17.3055 4.66173 17.4436 3.4668C17.4436 2.81575 17.4436 2.16472 17.4436 1.51367C17.3948 0.970853 17.4599 0.45002 17.6389 -0.0488281Z" fill="#4CA29C"/>
<path opacity="0.998" fill-rule="evenodd" clip-rule="evenodd" d="M22.424 -0.0488281C26.0048 -0.0488281 29.5855 -0.0488281 33.1662 -0.0488281C33.1939 0.0282353 33.2427 0.0933395 33.3127 0.146484C33.3614 0.601055 33.3778 1.05679 33.3615 1.51367C33.3615 2.16472 33.3615 2.81575 33.3615 3.4668C33.3921 3.81269 33.3595 4.1382 33.2639 4.44336C33.2639 3.88997 33.2639 3.33659 33.2639 2.7832C29.7481 2.79948 26.2324 2.7832 22.717 2.73438C22.603 2.68555 22.5217 2.60417 22.4729 2.49023C22.424 1.6445 22.4078 0.798151 22.424 -0.0488281Z" fill="#5FCAC3"/>
<path fill-rule="evenodd" clip-rule="evenodd" d="M12.9514 1.51367C12.6741 1.62954 12.4625 1.82485 12.3166 2.09961C12.2679 2.55418 12.2516 3.00991 12.2678 3.46679C11.5834 3.45055 10.8999 3.46683 10.217 3.51562C10.1682 3.56445 10.1194 3.61328 10.0706 3.66211C10.0054 16.9108 10.0054 30.1595 10.0706 43.4082C10.1194 43.457 10.1682 43.5059 10.217 43.5547C10.8999 43.6035 11.5834 43.6197 12.2678 43.6035C12.2678 44.4173 12.2678 45.2311 12.2678 46.0449C10.2758 44.8353 8.55058 43.3054 7.09204 41.4551C7.09204 31.1686 7.09204 20.8821 7.09204 10.5957C7.07577 7.79603 7.09204 4.99655 7.14087 2.19726C7.21762 1.89622 7.39666 1.68462 7.67798 1.5625C9.43549 1.51368 11.1933 1.4974 12.9514 1.51367Z" fill="#4CA29C"/>
<path fill-rule="evenodd" clip-rule="evenodd" d="M12.9514 1.51367C14.4487 1.51367 15.9462 1.51367 17.4436 1.51367C17.4436 2.16472 17.4436 2.81575 17.4436 3.4668C16.3368 3.4668 15.23 3.4668 14.1233 3.4668C13.5048 3.4668 12.8862 3.4668 12.2678 3.4668C12.2516 3.00991 12.2679 2.55418 12.3166 2.09961C12.4625 1.82485 12.674 1.62954 12.9514 1.51367Z" fill="#5FCAC3"/>
<path opacity="0.992" fill-rule="evenodd" clip-rule="evenodd" d="M33.3594 1.51364C36.6882 1.46617 40.0085 1.515 43.3203 1.66013C43.4716 1.77868 43.5855 1.92517 43.6621 2.09958C43.7109 4.93143 43.7272 7.76346 43.7109 10.5957C42.8082 12.3692 41.8316 14.0945 40.7813 15.7715C40.7976 11.7348 40.7813 7.69841 40.7324 3.66208C40.6836 3.61325 40.6348 3.56443 40.5859 3.5156C38.1773 3.46677 35.7685 3.4505 33.3594 3.46677C33.3594 2.81572 33.3594 2.16469 33.3594 1.51364Z" fill="#5FCAC3"/>
<path fill-rule="evenodd" clip-rule="evenodd" d="M12.2695 3.46678C12.888 3.46678 13.5065 3.46678 14.125 3.46678C13.9948 16.8457 13.9948 30.2246 14.125 43.6035C13.5065 43.6035 12.888 43.6035 12.2695 43.6035C11.5852 43.6197 10.9016 43.6035 10.2188 43.5547C10.1699 43.5058 10.1211 43.457 10.0723 43.4082C10.0072 30.1595 10.0072 16.9108 10.0723 3.66209C10.1211 3.61326 10.1699 3.56443 10.2188 3.5156C10.9016 3.46682 11.5852 3.45054 12.2695 3.46678Z" fill="#F6F5F4"/>
<path fill-rule="evenodd" clip-rule="evenodd" d="M14.1211 3.46679C15.2278 3.46679 16.3346 3.46679 17.4414 3.46679C17.3033 4.66173 17.8241 5.0849 19.0039 4.73633C18.7969 5.62801 19.0574 6.32788 19.7851 6.83593C20.6315 6.86848 21.4778 6.90104 22.3242 6.93359C23.3826 9.0009 24.9776 9.55427 27.1094 8.59375C27.7242 8.19054 28.18 7.65343 28.4765 6.98242C29.3933 6.92572 30.3048 6.84434 31.2109 6.73828C31.4682 6.54682 31.6473 6.30268 31.748 6.00586C31.7968 5.58392 31.8131 5.16075 31.7969 4.73633C32.2213 4.75251 32.6444 4.73623 33.0664 4.6875C33.1524 4.61833 33.2175 4.53695 33.2617 4.44336C33.3573 4.1382 33.3899 3.81268 33.3594 3.46679C35.7684 3.45052 38.1773 3.46679 40.5859 3.51562C40.6347 3.56445 40.6836 3.61328 40.7324 3.66211C40.7812 7.69843 40.7975 11.7349 40.7812 15.7715C38.763 19.2871 36.7448 22.8027 34.7265 26.3184C34.6027 26.5532 34.5376 26.8137 34.5312 27.0996C30.7225 27.0833 26.9139 27.0996 23.1054 27.1484C22.4544 27.6042 22.4544 28.0599 23.1054 28.5156C26.7837 28.5644 30.4621 28.5808 34.1406 28.5644C34.1406 28.7598 34.1406 28.9551 34.1406 29.1504C33.8998 29.8348 33.7695 30.551 33.75 31.2988C33.8527 31.3134 33.9504 31.2972 34.0429 31.25C34.4834 30.8194 34.9391 30.4126 35.4101 30.0293C36.0945 29.3449 36.8107 28.6939 37.5586 28.0762C38.6343 26.2498 39.7085 24.4269 40.7812 22.6074C40.7812 25.7324 40.7812 28.8574 40.7812 31.9824C37.5894 31.4969 34.9201 32.4409 32.7734 34.8144C29.5506 34.7981 26.3279 34.8144 23.1054 34.8633C22.4396 35.3897 22.4722 35.8618 23.2031 36.2793C26.0026 36.3444 28.802 36.4095 31.6015 36.4746C30.5427 38.8085 30.445 41.1849 31.3086 43.6035C25.5794 43.6035 19.8503 43.6035 14.1211 43.6035C13.9909 30.2246 13.9909 16.8457 14.1211 3.46679Z" fill="#FEFEFE"/>
<path fill-rule="evenodd" clip-rule="evenodd" d="M19.0062 4.73633C19.4945 4.73633 19.9828 4.73633 20.4711 4.73633C20.4711 4.96419 20.4711 5.19206 20.4711 5.41992C21.3256 5.37989 22.1718 5.42872 23.0101 5.56641C23.4981 5.87336 23.8074 6.31281 23.9379 6.88477C24.9074 7.79091 25.884 7.79091 26.8675 6.88477C27.0303 6.55925 27.193 6.23372 27.3558 5.9082C27.4744 5.75695 27.6209 5.64302 27.7953 5.56641C28.6336 5.42872 29.4798 5.37989 30.3343 5.41992C30.3343 5.19206 30.3343 4.96419 30.3343 4.73633C30.8226 4.73633 31.3109 4.73633 31.7992 4.73633C31.8154 5.16075 31.7991 5.58393 31.7504 6.00586C31.6497 6.30269 31.4706 6.54683 31.2132 6.73828C30.3071 6.84435 29.3957 6.92572 28.4789 6.98242C28.1823 7.65344 27.7265 8.19055 27.1117 8.59375C24.9799 9.55428 23.3849 9.0009 22.3265 6.93359C21.4801 6.90104 20.6339 6.86849 19.7875 6.83594C19.0597 6.32788 18.7993 5.62801 19.0062 4.73633Z" fill="#CAD0D8"/>
<path fill-rule="evenodd" clip-rule="evenodd" d="M20.4688 4.73633C23.7565 4.73633 27.0442 4.73633 30.332 4.73633C30.332 4.96419 30.332 5.19206 30.332 5.41992C29.4775 5.37989 28.6313 5.42872 27.793 5.56641C27.6186 5.64302 27.4721 5.75695 27.3535 5.9082C27.1907 6.23372 27.028 6.55925 26.8652 6.88477C25.8816 7.79091 24.9051 7.79091 23.9355 6.88477C23.8051 6.31281 23.4958 5.87336 23.0078 5.56641C22.1695 5.42872 21.3232 5.37989 20.4688 5.41992C20.4688 5.19206 20.4688 4.96419 20.4688 4.73633Z" fill="#FEFEFE"/>
<path fill-rule="evenodd" clip-rule="evenodd" d="M49.1797 8.05662C48.7833 7.90808 48.3927 7.72905 48.0078 7.51951C47.7665 7.45053 47.5386 7.48308 47.3242 7.61716C46.7722 8.41246 46.2839 9.24253 45.8594 10.1074C45.3711 9.89607 44.9153 9.63562 44.4922 9.32615C45.0606 8.3197 45.6304 7.31058 46.2012 6.2988C46.4436 5.7626 46.8505 5.55101 47.4219 5.66404C48.0808 6.00147 48.7155 6.37581 49.3262 6.78708C49.5528 7.24865 49.504 7.67182 49.1797 8.05662Z" fill="#848483"/>
<path opacity="0.985" fill-rule="evenodd" clip-rule="evenodd" d="M49.1797 8.05663C48.6169 9.08519 48.031 10.0943 47.4219 11.084C46.9011 10.7585 46.3802 10.4329 45.8594 10.1074C46.2839 9.24255 46.7722 8.41247 47.3242 7.61718C47.5386 7.48309 47.7665 7.45055 48.0078 7.51952C48.3927 7.72906 48.7833 7.90809 49.1797 8.05663Z" fill="#9B9B9B"/>
<path fill-rule="evenodd" clip-rule="evenodd" d="M44.4935 9.32617C44.9166 9.63564 45.3724 9.89609 45.8607 10.1074C46.3815 10.4329 46.9024 10.7585 47.4232 11.084C47.2527 11.4577 47.0573 11.8157 46.8372 12.1582C46.2804 11.9042 45.7433 11.6112 45.2259 11.2793C42.05 16.5239 38.9738 21.8299 35.9974 27.1973C35.9649 27.1973 35.9322 27.1973 35.8997 27.1973C35.5479 26.9883 35.1898 26.7767 34.8255 26.5625C34.7521 26.497 34.7195 26.4156 34.7279 26.3184C36.7461 22.8027 38.7643 19.2871 40.7825 15.7715C41.8329 14.0945 42.8095 12.3692 43.7122 10.5957C43.9727 10.1726 44.233 9.74935 44.4935 9.32617Z" fill="#B1BA41"/>
<path opacity="0.99" fill-rule="evenodd" clip-rule="evenodd" d="M7.09136 10.5957C7.09136 20.8821 7.09136 31.1687 7.09136 41.4551C2.77103 36.2229 0.931843 30.2009 1.57379 23.3887C2.14007 18.5481 3.97925 14.2839 7.09136 10.5957Z" fill="#CDEFEC"/>
<path fill-rule="evenodd" clip-rule="evenodd" d="M18.6149 10.8886C18.279 11.0736 17.9535 11.2851 17.6383 11.5234C17.2965 11.9683 16.9709 12.4078 16.6617 12.8418C15.8743 12.6037 15.4999 12.8967 15.5387 13.7207C16.0309 14.3594 16.6006 14.9129 17.2477 15.3808C17.2331 15.4836 17.2493 15.5812 17.2965 15.6738C17.6901 16.0698 18.0969 16.4278 18.5172 16.748C16.8114 17.0752 15.5907 16.4566 14.8551 14.8926C14.3337 12.9567 15.0011 11.6058 16.8571 10.8398C17.448 10.767 18.0339 10.7833 18.6149 10.8886Z" fill="#4CA29C"/>
<path fill-rule="evenodd" clip-rule="evenodd" d="M18.6172 10.8887C20.7987 11.9482 21.3032 13.5434 20.1309 15.6738C19.6832 16.1711 19.1461 16.5291 18.5195 16.748C18.0992 16.4278 17.6924 16.0698 17.2988 15.6738C17.2517 15.5813 17.2354 15.4836 17.25 15.3809C17.5254 15.4055 17.7857 15.3566 18.0312 15.2344C18.6009 14.6647 19.1706 14.095 19.7402 13.5254C20.0649 12.6288 19.7557 12.2544 18.8125 12.4023C18.4041 12.8271 17.981 13.2339 17.543 13.623C17.2456 13.3576 16.9526 13.0973 16.6641 12.8418C16.9732 12.4078 17.2988 11.9684 17.6406 11.5234C17.9559 11.2852 18.2813 11.0736 18.6172 10.8887Z" fill="#5FCAC3"/>
<path opacity="0.999" fill-rule="evenodd" clip-rule="evenodd" d="M46.8398 12.1582C46.5469 12.679 46.2539 13.1999 45.9609 13.7207C45.1388 14.9412 44.39 16.2107 43.7148 17.5293C43.6172 17.5618 43.5521 17.627 43.5195 17.7246C42.5662 19.3289 41.6548 20.9565 40.7852 22.6074C39.7124 24.4269 38.6382 26.2498 37.5625 28.0762C37.0417 27.7832 36.5208 27.4902 36 27.1973C38.9765 21.8299 42.0526 16.5239 45.2285 11.2793C45.7459 11.6112 46.283 11.9042 46.8398 12.1582Z" fill="#DDE851"/>
<path fill-rule="evenodd" clip-rule="evenodd" d="M23.1062 11.5723C27.5334 11.556 31.9605 11.5723 36.3874 11.6211C36.9957 12.0284 37.0282 12.4841 36.4851 12.9883C31.9929 13.0534 27.5007 13.0534 23.0085 12.9883C22.4717 12.4691 22.5042 11.9971 23.1062 11.5723Z" fill="#CAD0D8"/>
<path fill-rule="evenodd" clip-rule="evenodd" d="M17.2469 15.3808C16.5998 14.9128 16.0301 14.3594 15.5379 13.7206C15.4991 12.8966 15.8735 12.6036 16.6609 12.8417C16.9495 13.0972 17.2425 13.3576 17.5398 13.623C17.9778 13.2338 18.401 12.827 18.8094 12.4023C19.7525 12.2543 20.0618 12.6287 19.7371 13.5253C19.1675 14.095 18.5977 14.6647 18.0281 15.2343C17.7826 15.3566 17.5223 15.4054 17.2469 15.3808Z" fill="#F9FCFF"/>
<path opacity="0.991" fill-rule="evenodd" clip-rule="evenodd" d="M45.957 13.7207C49.0664 18.9973 50.0593 24.6613 48.9355 30.7129C48.5109 32.7844 47.8436 34.77 46.9336 36.6699C46.1335 35.2512 45.0593 34.0793 43.7109 33.1543C43.7109 27.946 43.7109 22.7376 43.7109 17.5293C44.3861 16.2107 45.1349 14.9412 45.957 13.7207Z" fill="#CDEFEC"/>
<path fill-rule="evenodd" clip-rule="evenodd" d="M23.1062 14.502C26.1337 14.4857 29.1611 14.502 32.1882 14.5508C32.7965 14.9581 32.829 15.4138 32.2859 15.918C29.1934 15.9831 26.101 15.9831 23.0085 15.918C22.4717 15.3987 22.5042 14.9268 23.1062 14.502Z" fill="#CAD0D8"/>
<path fill-rule="evenodd" clip-rule="evenodd" d="M43.7109 17.5293C43.7109 22.7376 43.7109 27.946 43.7109 33.1543C43.6458 33.1543 43.6133 33.1218 43.6133 33.0566C43.6457 27.9294 43.6132 22.8188 43.5156 17.7246C43.5481 17.627 43.6133 17.5618 43.7109 17.5293Z" fill="#80B781"/>
<path fill-rule="evenodd" clip-rule="evenodd" d="M43.5156 17.7246C43.6132 22.8188 43.6457 27.9294 43.6133 33.0566C42.7644 32.6483 41.8854 32.3229 40.9766 32.0801C40.8797 32.0969 40.8146 32.0643 40.7812 31.9824C40.7812 28.8574 40.7812 25.7324 40.7812 22.6074C41.6509 20.9565 42.5623 19.3289 43.5156 17.7246Z" fill="#5FCAC3"/>
<path fill-rule="evenodd" clip-rule="evenodd" d="M18.5156 18.6034C17.7997 19.0599 17.2463 19.6783 16.8555 20.4589C16.8108 20.5368 16.7457 20.5694 16.6602 20.5566C15.7295 20.3641 15.3877 20.7222 15.6348 21.6308C16.1265 22.1389 16.6311 22.6272 17.1484 23.0956C17.512 23.6871 18.0003 24.1428 18.6133 24.4628C16.2932 24.8456 14.9585 23.8691 14.6094 21.5331C14.9606 19.2752 16.2627 18.2987 18.5156 18.6034Z" fill="#4CA29C"/>
<path fill-rule="evenodd" clip-rule="evenodd" d="M18.5195 18.6035C20.7104 19.5685 21.2802 21.131 20.2285 23.291C19.8104 23.8569 19.2733 24.2476 18.6172 24.4629C18.0042 24.1429 17.5159 23.6872 17.1523 23.0957C17.4131 23.2109 17.6734 23.1946 17.9336 23.0469C18.5358 22.4446 19.138 21.8425 19.7402 21.2402C20.0284 20.4538 19.7518 20.0794 18.9102 20.1172C18.4088 20.5208 17.9367 20.9603 17.4941 21.4355C17.1975 21.1554 16.9208 20.8624 16.6641 20.5566C16.7496 20.5694 16.8147 20.5369 16.8594 20.459C17.2502 19.6784 17.8036 19.06 18.5195 18.6035Z" fill="#5FCAC3"/>
<path fill-rule="evenodd" clip-rule="evenodd" d="M23.0086 19.3848C27.5009 19.3685 31.9931 19.3848 36.4852 19.4336C37.0209 19.9298 36.9884 20.3856 36.3875 20.8008C31.9605 20.8659 27.5333 20.8659 23.1063 20.8008C22.499 20.3646 22.4664 19.8925 23.0086 19.3848Z" fill="#CAD0D8"/>
<path fill-rule="evenodd" clip-rule="evenodd" d="M17.15 23.0956C16.6326 22.6272 16.128 22.1389 15.6363 21.6308C15.3893 20.7222 15.7311 20.3641 16.6617 20.5566C16.9185 20.8623 17.1951 21.1553 17.4918 21.4355C17.9344 20.9602 18.4065 20.5207 18.9078 20.1171C19.7494 20.0793 20.0261 20.4537 19.7379 21.2401C19.1357 21.8424 18.5335 22.4445 17.9313 23.0468C17.6711 23.1945 17.4108 23.2109 17.15 23.0956Z" fill="#FBFDFE"/>
<path fill-rule="evenodd" clip-rule="evenodd" d="M23.0086 22.3145C26.1012 22.2982 29.1937 22.3145 32.286 22.3633C32.8217 22.8595 32.7892 23.3152 32.1883 23.7305C29.161 23.7956 26.1336 23.7956 23.1063 23.7305C22.499 23.2943 22.4664 22.8222 23.0086 22.3145Z" fill="#CAD0D8"/>
<path fill-rule="evenodd" clip-rule="evenodd" d="M18.5169 26.3183C18.1333 26.6845 17.7263 27.0425 17.2962 27.3925C17.0882 27.7115 16.9092 28.037 16.7591 28.369C16.1295 28.105 15.7063 28.284 15.4895 28.9061C15.5017 29.065 15.5506 29.2115 15.636 29.3456C16.1604 29.8536 16.6649 30.3744 17.1497 30.9081C17.506 31.4918 17.9943 31.9149 18.6145 32.1776C16.9058 32.5849 15.6526 31.9989 14.8548 30.4198C14.3314 28.3253 15.0964 26.9419 17.1497 26.2694C17.6081 26.2143 18.0637 26.2307 18.5169 26.3183Z" fill="#5FCAC3"/>
<path fill-rule="evenodd" clip-rule="evenodd" d="M18.5156 26.3184C20.4122 27.0842 21.0795 28.4514 20.5176 30.4199C20.1777 31.3295 19.543 31.9154 18.6133 32.1777C17.9931 31.915 17.5048 31.4919 17.1484 30.9082C17.5116 30.9568 17.8372 30.8754 18.125 30.6641C18.7331 30.0888 19.3027 29.4866 19.834 28.8574C19.8874 27.8838 19.4806 27.6071 18.6133 28.0273C18.239 28.4017 17.8646 28.7761 17.4902 29.1504C17.2261 28.9027 16.9819 28.6423 16.7578 28.3691C16.9079 28.0371 17.0869 27.7116 17.2949 27.3926C17.7251 27.0426 18.132 26.6846 18.5156 26.3184Z" fill="#5FCAC3"/>
<path fill-rule="evenodd" clip-rule="evenodd" d="M34.7266 26.3184C34.7182 26.4156 34.7508 26.497 34.8242 26.5625C35.1885 26.7767 35.5466 26.9883 35.8984 27.1973C35.7042 28.0699 35.5414 28.9488 35.4102 29.834C34.9999 29.5801 34.5768 29.3521 34.1406 29.1504C34.1406 28.9551 34.1406 28.7598 34.1406 28.5645C34.2944 28.091 34.4246 27.6027 34.5312 27.0996C34.5376 26.8137 34.6027 26.5532 34.7266 26.3184Z" fill="#FCD1A3"/>
<path fill-rule="evenodd" clip-rule="evenodd" d="M34.5313 27.0996C34.4246 27.6027 34.2945 28.091 34.1406 28.5645C30.4621 28.5808 26.7837 28.5645 23.1055 28.5156C22.4544 28.0599 22.4544 27.6042 23.1055 27.1485C26.914 27.0996 30.7226 27.0833 34.5313 27.0996Z" fill="#CAD0D8"/>
<path fill-rule="evenodd" clip-rule="evenodd" d="M35.9023 27.1973C35.9349 27.1973 35.9675 27.1973 36 27.1973C36.5208 27.4902 37.0417 27.7832 37.5625 28.0762C36.8146 28.6939 36.0984 29.3449 35.4141 30.0293C35.4141 29.9642 35.4141 29.8991 35.4141 29.834C35.5453 28.9488 35.7081 28.0699 35.9023 27.1973Z" fill="#FEE4C0"/>
<path fill-rule="evenodd" clip-rule="evenodd" d="M17.1523 30.9083C16.6676 30.3746 16.1631 29.8538 15.6387 29.3458C15.5532 29.2117 15.5044 29.0652 15.4922 28.9063C15.709 28.2842 16.1321 28.1052 16.7617 28.3692C16.9858 28.6424 17.23 28.9028 17.4941 29.1505C17.8685 28.7762 18.2429 28.4018 18.6172 28.0274C19.4845 27.6072 19.8913 27.8839 19.8379 28.8575C19.3066 29.4867 18.737 30.0889 18.1289 30.6642C17.8411 30.8755 17.5155 30.9569 17.1523 30.9083Z" fill="#FAFCFF"/>
<path fill-rule="evenodd" clip-rule="evenodd" d="M34.1406 29.1504C34.5768 29.3521 34.9999 29.5801 35.4102 29.834C35.4102 29.8991 35.4102 29.9642 35.4102 30.0293C34.9392 30.4126 34.4834 30.8194 34.043 31.25C33.9504 31.2972 33.8527 31.3134 33.75 31.2988C33.7695 30.551 33.8998 29.8348 34.1406 29.1504Z" fill="#62605E"/>
<path fill-rule="evenodd" clip-rule="evenodd" d="M23.1085 30.0293C25.1595 30.013 27.2103 30.0293 29.2608 30.0781C29.7614 30.3275 29.8754 30.7018 29.6026 31.2012C29.5144 31.3185 29.4006 31.3999 29.2608 31.4453C27.21 31.5105 25.1593 31.5105 23.1085 31.4453C22.4638 30.9737 22.4638 30.5018 23.1085 30.0293Z" fill="#CAD0D8"/>
<path fill-rule="evenodd" clip-rule="evenodd" d="M40.785 31.9823C40.8184 32.0642 40.8834 32.0968 40.9803 32.08C36.9612 33.3506 34.8127 36.1012 34.535 40.3319C34.8198 44.5675 36.9682 47.3507 40.9803 48.6815C38.966 49.1107 37.0454 48.8504 35.2186 47.9003C35.0074 47.7457 34.7795 47.6155 34.535 47.5097C33.1011 46.4994 32.0269 45.1974 31.3123 43.6034C30.4488 41.1848 30.5464 38.8084 31.6053 36.4745C31.6872 36.4411 31.7198 36.3761 31.703 36.2792C32.0203 35.7658 32.3783 35.2775 32.7772 34.8144C34.9239 32.4408 37.5932 31.4968 40.785 31.9823Z" fill="#0372FA"/>
<path opacity="0.994" fill-rule="evenodd" clip-rule="evenodd" d="M40.9766 32.0801C41.8854 32.3229 42.7644 32.6483 43.6133 33.0566C43.6133 33.1218 43.6458 33.1543 43.7109 33.1543C45.0593 34.0793 46.1335 35.2512 46.9336 36.6699C48.5161 40.7724 47.6698 44.2717 44.3945 47.168C43.3749 47.9381 42.2356 48.4427 40.9766 48.6816C36.9645 47.3508 34.816 44.5676 34.5312 40.332C34.809 36.1013 36.9574 33.3507 40.9766 32.0801Z" fill="#0382FB"/>
<path fill-rule="evenodd" clip-rule="evenodd" d="M18.6142 34.1307C16.7354 35.161 16.2308 36.6584 17.1005 38.6229C17.5025 39.2045 18.0071 39.6602 18.6142 39.9901C15.8311 40.2506 14.5453 38.9811 14.7568 36.1815C15.4835 34.4589 16.7694 33.7753 18.6142 34.1307Z" fill="#B4DAFE"/>
<path fill-rule="evenodd" clip-rule="evenodd" d="M18.614 34.1309C20.7921 35.1929 21.2966 36.788 20.1276 38.916C19.6975 39.383 19.1929 39.7411 18.614 39.9902C18.0068 39.6604 17.5023 39.2047 17.1003 38.623C16.2306 36.6585 16.7352 35.1611 18.614 34.1309Z" fill="#D8ECFE"/>
<path fill-rule="evenodd" clip-rule="evenodd" d="M32.7768 34.8145C32.3779 35.2777 32.0199 35.7659 31.7026 36.2793C28.8706 36.2793 26.0386 36.2793 23.2065 36.2793C22.4757 35.8618 22.4431 35.3898 23.1089 34.8633C26.3313 34.8145 29.554 34.7982 32.7768 34.8145Z" fill="#CAD0D8"/>
<path fill-rule="evenodd" clip-rule="evenodd" d="M37.7578 36.1816C38.7024 36.1654 39.6464 36.1816 40.5899 36.2304C40.655 37.0768 40.72 37.9231 40.7852 38.7695C41.6363 38.7885 42.4825 38.8374 43.3242 38.916C43.438 39.8583 43.4543 40.8023 43.3731 41.748C43.3242 41.7968 43.2754 41.8457 43.2266 41.8945C42.4134 41.9433 41.5996 41.9595 40.7852 41.9433C40.8014 42.7578 40.7852 43.5716 40.7364 44.3847C40.6875 44.4336 40.6387 44.4824 40.5899 44.5312C39.622 44.6111 38.6617 44.5948 37.709 44.4824C37.6912 43.6447 37.6424 42.8146 37.5625 41.9922C36.7248 41.9744 35.8948 41.9256 35.0723 41.8457C35.0072 40.8691 35.0072 39.8926 35.0723 38.916C35.9187 38.8509 36.765 38.7858 37.6114 38.7207C37.6304 37.8668 37.6792 37.0204 37.7578 36.1816Z" fill="#FBFBFC"/>
<path fill-rule="evenodd" clip-rule="evenodd" d="M23.2031 36.2793C26.0352 36.2793 28.8672 36.2793 31.6992 36.2793C31.716 36.3762 31.6834 36.4412 31.6016 36.4746C28.8021 36.4095 26.0026 36.3444 23.2031 36.2793Z" fill="#D6D7D7"/>
<path fill-rule="evenodd" clip-rule="evenodd" d="M23.1071 37.7442C25.1582 37.7278 27.209 37.7442 29.2595 37.793C29.8678 38.2003 29.9003 38.656 29.3571 39.1602C27.2412 39.2253 25.1254 39.2253 23.0095 39.1602C22.4714 38.6455 22.5039 38.1735 23.1071 37.7442Z" fill="#CAD0D8"/>
<path opacity="0.999" fill-rule="evenodd" clip-rule="evenodd" d="M12.2656 43.6035C12.8841 43.6035 13.5026 43.6035 14.1211 43.6035C19.8503 43.6035 25.5794 43.6035 31.3086 43.6035C32.0231 45.1975 33.0974 46.4995 34.5312 47.5098C27.9558 47.5098 21.3802 47.5098 14.8047 47.5098C13.8937 47.1198 13.0474 46.6315 12.2656 46.0449C12.2656 45.2312 12.2656 44.4173 12.2656 43.6035Z" fill="#5FCAC3"/>
<path opacity="0.981" fill-rule="evenodd" clip-rule="evenodd" d="M14.8047 47.5098C21.3802 47.5098 27.9558 47.5098 34.5312 47.5098C34.7758 47.6156 35.0036 47.7458 35.2148 47.9004C32.7746 48.9823 30.2355 49.6659 27.5977 49.9512C26.1328 49.9512 24.668 49.9512 23.2031 49.9512C20.2546 49.652 17.4551 48.8382 14.8047 47.5098Z" fill="#CDEFEC"/>
</g>
<defs>
<clipPath id="clip0_556_53720">
<rect width="50" height="50" fill="white" transform="translate(0.5)"/>
</clipPath>
</defs>
</svg>
